<?xml version="1.0" encoding="utf-8"?>
<!-- Generator: Adobe Illustrator 21.0.0, SVG Export Plug-In . SVG Version: 6.00 Build 0)  -->
<svg version="1.1" id="Capa_1" xmlns="http://www.w3.org/2000/svg" xmlns:xlink="http://www.w3.org/1999/xlink" x="0px" y="0px"
	 viewBox="0 0 959 700" style="enable-background:new 0 0 959 700;" xml:space="preserve">
<style type="text/css">
	.st0{fill:#F39C12;}
	.st1{fill:#E67E22;}
	.st2{fill:#ECE9D5;}
	.st3{fill:#332928;}
	.st4{fill:#F1C40F;}
</style>
<g>
	<path class="st0" d="M23.3,327.3C174.1,348.7,326,359.4,478,359.4c151.9,0,303.9-10.7,454.7-32.2c-13.1,28.5-26.6,57-40.5,85.4
		c20.5,24,41.5,47.9,62.8,71.5c-158.2,22.5-317.6,33.8-477,33.8c-159.4,0-318.8-11.3-477-33.8c21.4-23.6,42.3-47.5,62.9-71.5
		C49.9,384.3,36.4,355.8,23.3,327.3z"/>
	<path class="st1" d="M117.2,396.9c247.9,28.4,498.3,28.4,746.2,0c-27.8-15.6-55.1-31.5-82.1-47.8c-193.6,17.5-388.4,17.5-582,0
		C172.3,365.3,145,381.3,117.2,396.9z"/>
	<ellipse class="st2" cx="489" cy="350.1" rx="350.1" ry="350.1"/>
	<path class="st3" d="M489,657.2c-1.9,0-3.8,0-5.7,0c-0.9,0-1.6-0.8-1.6-1.7c0-0.9,0.8-1.6,1.7-1.6c0,0,0,0,0,0c1.9,0,3.7,0,5.6,0
		l3.5,0c0,0,0,0,0,0c0.9,0,1.7,0.7,1.7,1.6c0,0.9-0.7,1.7-1.6,1.7L489,657.2L489,657.2z M501.7,656.9c-0.9,0-1.6-0.7-1.7-1.6
		c0-0.9,0.7-1.7,1.6-1.7c3-0.1,6.1-0.3,9.1-0.5c0.8-0.1,1.7,0.6,1.8,1.5c0.1,0.9-0.6,1.7-1.5,1.8
		C507.9,656.6,504.8,656.8,501.7,656.9C501.7,656.9,501.7,656.9,501.7,656.9L501.7,656.9z M474.2,656.8
		C474.2,656.8,474.2,656.8,474.2,656.8c-3.2-0.2-6.2-0.3-9.3-0.6c-0.9-0.1-1.6-0.9-1.5-1.8c0.1-0.9,0.9-1.7,1.8-1.5
		c3,0.2,6,0.4,9.1,0.6c0.9,0,1.6,0.8,1.6,1.7C475.8,656.1,475.1,656.8,474.2,656.8L474.2,656.8z M519.9,655.6
		c-0.8,0-1.6-0.6-1.7-1.5c-0.1-0.9,0.6-1.7,1.5-1.8c3-0.3,6-0.6,9-1c0.9-0.2,1.7,0.5,1.9,1.4c0.1,0.9-0.5,1.7-1.4,1.9
		c-3,0.4-6.1,0.8-9.2,1.1C520.1,655.6,520,655.6,519.9,655.6L519.9,655.6z M456,655.4c-0.1,0-0.1,0-0.2,0c-3.1-0.3-6.1-0.7-9.1-1.1
		c-0.9-0.1-1.5-1-1.4-1.9c0.1-0.9,1-1.5,1.9-1.4c3,0.4,6,0.8,9,1.1c0.9,0.1,1.6,0.9,1.5,1.8C457.5,654.8,456.8,655.4,456,655.4
		L456,655.4z M538.1,653.2c-0.8,0-1.5-0.6-1.6-1.4c-0.1-0.9,0.5-1.8,1.4-1.9c3-0.5,6-1,9-1.6c0.9-0.2,1.8,0.4,1.9,1.3
		c0.2,0.9-0.4,1.8-1.3,1.9c-3,0.6-6,1.1-9.1,1.6C538.3,653.2,538.2,653.2,538.1,653.2L538.1,653.2z M437.8,652.9c-0.1,0-0.2,0-0.3,0
		c-3-0.5-6.1-1.1-9.1-1.7c-0.9-0.2-1.5-1.1-1.3-2c0.2-0.9,1.1-1.5,2-1.3c3,0.6,6,1.1,9,1.7c0.9,0.1,1.5,1,1.4,1.9
		C439.3,652.3,438.6,652.9,437.8,652.9L437.8,652.9z M556.1,649.8c-0.8,0-1.4-0.5-1.6-1.3c-0.2-0.9,0.4-1.8,1.3-2
		c3-0.7,5.9-1.4,8.9-2.1c0.9-0.2,1.8,0.3,2,1.2c0.2,0.9-0.3,1.8-1.2,2c-3,0.8-6,1.5-8.9,2.1C556.3,649.8,556.2,649.8,556.1,649.8
		L556.1,649.8z M419.9,649.3c-0.1,0-0.2,0-0.4,0c-3-0.7-6-1.4-8.9-2.2c-0.9-0.2-1.4-1.2-1.2-2c0.2-0.9,1.1-1.4,2-1.2
		c2.9,0.8,5.9,1.5,8.8,2.2c0.9,0.2,1.5,1.1,1.2,2C421.3,648.8,420.6,649.3,419.9,649.3L419.9,649.3z M573.8,645.2
		c-0.7,0-1.4-0.5-1.6-1.2c-0.3-0.9,0.3-1.8,1.1-2.1c2.9-0.8,5.8-1.7,8.7-2.7c0.9-0.3,1.8,0.2,2.1,1.1c0.3,0.9-0.2,1.8-1.1,2.1
		c-2.9,0.9-5.9,1.8-8.8,2.7C574.1,645.2,574,645.2,573.8,645.2L573.8,645.2z M402.2,644.6c-0.2,0-0.3,0-0.5-0.1
		c-2.9-0.9-5.9-1.8-8.8-2.7c-0.9-0.3-1.3-1.2-1.1-2.1c0.3-0.9,1.2-1.3,2.1-1.1c2.9,0.9,5.8,1.9,8.7,2.7c0.9,0.3,1.4,1.2,1.1,2.1
		C403.5,644.2,402.9,644.6,402.2,644.6L402.2,644.6z M591.3,639.6c-0.7,0-1.3-0.4-1.6-1.1c-0.3-0.9,0.1-1.8,1-2.1
		c2.9-1,5.7-2.1,8.5-3.2c0.9-0.3,1.8,0.1,2.2,0.9c0.3,0.9-0.1,1.8-0.9,2.2c-2.9,1.1-5.7,2.2-8.6,3.2
		C591.6,639.6,591.4,639.6,591.3,639.6L591.3,639.6z M384.7,638.9c-0.2,0-0.4,0-0.6-0.1c-2.9-1-5.8-2.1-8.6-3.3
		c-0.9-0.3-1.3-1.3-0.9-2.2c0.3-0.9,1.3-1.3,2.2-0.9c2.8,1.1,5.7,2.2,8.5,3.2c0.9,0.3,1.3,1.3,1,2.1
		C386.1,638.5,385.4,638.9,384.7,638.9L384.7,638.9z M608.3,633c-0.6,0-1.3-0.4-1.5-1c-0.4-0.8,0-1.8,0.9-2.2
		c2.8-1.2,5.6-2.4,8.3-3.7c0.8-0.4,1.8,0,2.2,0.8c0.4,0.8,0,1.8-0.8,2.2c-2.8,1.3-5.6,2.5-8.4,3.7C608.7,632.9,608.5,633,608.3,633
		L608.3,633z M367.7,632.1c-0.2,0-0.4,0-0.7-0.1c-2.8-1.2-5.6-2.5-8.4-3.8c-0.8-0.4-1.2-1.4-0.8-2.2c0.4-0.8,1.4-1.2,2.2-0.8
		c2.8,1.3,5.5,2.5,8.3,3.8c0.8,0.4,1.2,1.3,0.9,2.2C368.9,631.7,368.3,632.1,367.7,632.1L367.7,632.1z M624.9,625.4
		c-0.6,0-1.2-0.3-1.5-0.9c-0.4-0.8-0.1-1.8,0.8-2.2c2.7-1.3,5.4-2.7,8.1-4.2c0.8-0.4,1.8-0.1,2.3,0.7c0.4,0.8,0.1,1.8-0.7,2.3
		c-2.7,1.4-5.4,2.9-8.2,4.2C625.4,625.3,625.1,625.4,624.9,625.4L624.9,625.4z M351.1,624.3c-0.3,0-0.5-0.1-0.8-0.2
		c-2.7-1.4-5.5-2.8-8.2-4.3c-0.8-0.4-1.1-1.5-0.7-2.3c0.4-0.8,1.5-1.1,2.3-0.7c2.7,1.5,5.4,2.9,8.1,4.2c0.8,0.4,1.1,1.4,0.7,2.2
		C352.3,624,351.7,624.3,351.1,624.3L351.1,624.3z M641,616.7c-0.6,0-1.1-0.3-1.4-0.8c-0.5-0.8-0.2-1.8,0.6-2.3
		c2.6-1.5,5.2-3.1,7.8-4.6c0.8-0.5,1.8-0.2,2.3,0.5c0.5,0.8,0.2,1.8-0.5,2.3c-2.6,1.6-5.2,3.2-7.9,4.7
		C641.6,616.7,641.3,616.7,641,616.7L641,616.7z M335,615.5c-0.3,0-0.6-0.1-0.8-0.2c-2.7-1.5-5.3-3.1-7.9-4.8
		c-0.8-0.5-1-1.5-0.5-2.3c0.5-0.8,1.5-1,2.3-0.5c2.6,1.6,5.2,3.2,7.8,4.7c0.8,0.5,1.1,1.5,0.6,2.3
		C336.1,615.2,335.5,615.5,335,615.5L335,615.5z M656.6,607.1c-0.5,0-1.1-0.3-1.4-0.7c-0.5-0.8-0.3-1.8,0.5-2.3
		c2.5-1.7,5-3.4,7.5-5.1c0.7-0.5,1.8-0.3,2.3,0.4c0.5,0.8,0.3,1.8-0.4,2.3c-2.5,1.8-5,3.5-7.6,5.2
		C657.2,607.1,656.9,607.1,656.6,607.1L656.6,607.1z M319.4,605.8c-0.3,0-0.6-0.1-0.9-0.3c-2.6-1.7-5.1-3.5-7.6-5.2
		c-0.7-0.5-0.9-1.6-0.4-2.3c0.5-0.8,1.6-0.9,2.3-0.4c2.5,1.8,5,3.5,7.5,5.2c0.8,0.5,1,1.5,0.5,2.3
		C320.5,605.5,319.9,605.8,319.4,605.8L319.4,605.8z M671.5,596.6c-0.5,0-1-0.2-1.3-0.7c-0.6-0.7-0.4-1.8,0.3-2.3
		c2.4-1.8,4.8-3.7,7.2-5.6c0.7-0.6,1.8-0.5,2.3,0.3c0.6,0.7,0.5,1.8-0.3,2.3c-2.4,1.9-4.8,3.8-7.3,5.6
		C672.2,596.5,671.9,596.6,671.5,596.6L671.5,596.6z M304.5,595.1c-0.4,0-0.7-0.1-1-0.3c-2.4-1.9-4.9-3.8-7.3-5.7
		c-0.7-0.6-0.8-1.6-0.3-2.3c0.6-0.7,1.6-0.8,2.3-0.3c2.4,1.9,4.8,3.8,7.2,5.6c0.7,0.6,0.9,1.6,0.3,2.3
		C305.5,594.9,305,595.1,304.5,595.1L304.5,595.1z M685.9,585.3c-0.5,0-0.9-0.2-1.3-0.6c-0.6-0.7-0.5-1.8,0.2-2.3
		c2.3-2,4.6-3.9,6.9-6c0.7-0.6,1.7-0.6,2.3,0.1c0.6,0.7,0.6,1.7-0.1,2.3c-2.3,2-4.6,4.1-6.9,6C686.6,585.1,686.2,585.3,685.9,585.3
		L685.9,585.3z M290.2,583.6c-0.4,0-0.8-0.1-1.1-0.4c-2.3-2-4.6-4-6.9-6.1c-0.7-0.6-0.7-1.7-0.1-2.4c0.6-0.7,1.7-0.7,2.4-0.1
		c2.2,2,4.5,4.1,6.8,6c0.7,0.6,0.8,1.7,0.2,2.3C291.2,583.4,290.7,583.6,290.2,583.6L290.2,583.6z M699.5,573
		c-0.4,0-0.9-0.2-1.2-0.5c-0.6-0.7-0.6-1.7,0.1-2.4c2.2-2.1,4.4-4.2,6.5-6.4c0.6-0.7,1.7-0.7,2.4,0c0.6,0.6,0.7,1.7,0,2.4
		c-2.2,2.2-4.4,4.3-6.6,6.4C700.3,572.9,699.9,573,699.5,573L699.5,573z M276.7,571.3c-0.4,0-0.8-0.2-1.2-0.5
		c-2.2-2.1-4.4-4.3-6.5-6.5c-0.6-0.7-0.6-1.7,0-2.4c0.7-0.6,1.7-0.6,2.4,0c2.1,2.2,4.3,4.3,6.5,6.4c0.7,0.6,0.7,1.7,0,2.3
		C277.6,571.1,277.1,571.3,276.7,571.3L276.7,571.3z M712.4,560c-0.4,0-0.8-0.2-1.1-0.4c-0.7-0.6-0.7-1.7-0.1-2.4
		c2.1-2.2,4.1-4.5,6.1-6.8c0.6-0.7,1.7-0.8,2.3-0.2c0.7,0.6,0.8,1.7,0.1,2.3c-2,2.3-4.1,4.6-6.2,6.8
		C713.3,559.8,712.8,560,712.4,560L712.4,560z M263.9,558.2c-0.5,0-0.9-0.2-1.2-0.5c-2.1-2.3-4.1-4.6-6.1-6.9
		c-0.6-0.7-0.5-1.7,0.2-2.4c0.7-0.6,1.7-0.5,2.3,0.2c2,2.3,4,4.6,6.1,6.8c0.6,0.7,0.6,1.7-0.1,2.3
		C264.7,558,264.3,558.2,263.9,558.2L263.9,558.2z M724.5,546.3c-0.4,0-0.8-0.1-1.1-0.4c-0.7-0.6-0.8-1.6-0.2-2.3
		c1.9-2.3,3.8-4.7,5.7-7.1c0.6-0.7,1.6-0.9,2.3-0.3c0.7,0.6,0.9,1.6,0.3,2.3c-1.9,2.4-3.8,4.8-5.8,7.2
		C725.4,546.1,724.9,546.3,724.5,546.3L724.5,546.3z M252,544.3c-0.5,0-1-0.2-1.3-0.6c-1.9-2.4-3.8-4.8-5.7-7.2
		c-0.6-0.7-0.4-1.8,0.3-2.3c0.7-0.6,1.8-0.4,2.3,0.3c1.8,2.4,3.7,4.8,5.6,7.1c0.6,0.7,0.5,1.8-0.2,2.3
		C252.7,544.2,252.3,544.3,252,544.3L252,544.3z M735.7,531.8c-0.3,0-0.7-0.1-1-0.3c-0.7-0.5-0.9-1.6-0.4-2.3
		c1.8-2.5,3.6-4.9,5.3-7.4c0.5-0.8,1.6-0.9,2.3-0.4c0.8,0.5,1,1.6,0.4,2.3c-1.7,2.5-3.5,5-5.3,7.5
		C736.7,531.6,736.2,531.8,735.7,531.8L735.7,531.8z M240.9,529.8c-0.5,0-1-0.2-1.4-0.7c-1.8-2.5-3.5-5-5.3-7.5
		c-0.5-0.8-0.3-1.8,0.4-2.3c0.8-0.5,1.8-0.3,2.3,0.4c1.7,2.5,3.4,5,5.2,7.5c0.5,0.7,0.4,1.8-0.4,2.3
		C241.5,529.7,241.2,529.8,240.9,529.8L240.9,529.8z M746.1,516.7c-0.3,0-0.6-0.1-0.9-0.3c-0.8-0.5-1-1.5-0.5-2.3
		c1.6-2.6,3.3-5.1,4.8-7.7c0.5-0.8,1.5-1,2.3-0.6c0.8,0.5,1,1.5,0.6,2.3c-1.6,2.6-3.2,5.2-4.9,7.8
		C747.2,516.4,746.6,516.7,746.1,516.7L746.1,516.7z M230.6,514.6c-0.6,0-1.1-0.3-1.4-0.8c-1.6-2.6-3.2-5.2-4.8-7.8
		c-0.5-0.8-0.2-1.8,0.6-2.3c0.8-0.5,1.8-0.2,2.3,0.6c1.5,2.6,3.1,5.2,4.7,7.8c0.5,0.8,0.3,1.8-0.5,2.3
		C231.2,514.5,230.9,514.6,230.6,514.6L230.6,514.6z M755.5,501c-0.3,0-0.6-0.1-0.8-0.2c-0.8-0.5-1.1-1.5-0.6-2.3
		c1.5-2.6,2.9-5.3,4.3-8c0.4-0.8,1.4-1.1,2.2-0.7c0.8,0.4,1.1,1.4,0.7,2.2c-1.4,2.7-2.9,5.4-4.4,8.1
		C756.7,500.7,756.1,501,755.5,501L755.5,501z M221.3,498.9c-0.6,0-1.2-0.3-1.5-0.9c-1.5-2.7-2.9-5.4-4.3-8.1
		c-0.4-0.8-0.1-1.8,0.7-2.2c0.8-0.4,1.8-0.1,2.2,0.7c1.4,2.7,2.8,5.4,4.3,8c0.4,0.8,0.1,1.8-0.7,2.3
		C221.9,498.8,221.6,498.9,221.3,498.9L221.3,498.9z M764,484.7c-0.2,0-0.5-0.1-0.7-0.2c-0.8-0.4-1.2-1.4-0.8-2.2
		c1.3-2.7,2.6-5.5,3.9-8.3c0.4-0.8,1.4-1.2,2.2-0.8c0.8,0.4,1.2,1.4,0.8,2.2c-1.3,2.8-2.6,5.6-3.9,8.4
		C765.2,484.4,764.6,484.7,764,484.7L764,484.7z M213,482.6c-0.6,0-1.2-0.3-1.5-1c-1.3-2.8-2.6-5.5-3.8-8.4c-0.4-0.8,0-1.8,0.9-2.2
		c0.8-0.4,1.8,0,2.2,0.9c1.2,2.8,2.5,5.5,3.8,8.3c0.4,0.8,0,1.8-0.8,2.2C213.5,482.6,213.2,482.6,213,482.6L213,482.6z M771.5,467.9
		c-0.2,0-0.4,0-0.6-0.1c-0.9-0.4-1.3-1.3-0.9-2.2c1.2-2.8,2.3-5.6,3.4-8.5c0.3-0.9,1.3-1.3,2.1-1c0.9,0.3,1.3,1.3,1,2.1
		c-1.1,2.9-2.2,5.7-3.4,8.6C772.8,467.6,772.2,467.9,771.5,467.9L771.5,467.9z M205.7,465.9c-0.7,0-1.3-0.4-1.5-1
		c-1.1-2.8-2.3-5.7-3.3-8.6c-0.3-0.9,0.1-1.8,1-2.1c0.9-0.3,1.8,0.1,2.1,1c1.1,2.9,2.1,5.7,3.3,8.5c0.3,0.9-0.1,1.8-0.9,2.2
		C206.1,465.9,205.9,465.9,205.7,465.9L205.7,465.9z M778,450.8c-0.2,0-0.4,0-0.5-0.1c-0.9-0.3-1.3-1.2-1-2.1c1-2.9,1.9-5.8,2.8-8.7
		c0.3-0.9,1.2-1.4,2.1-1.1c0.9,0.3,1.4,1.2,1.1,2.1c-0.9,2.9-1.9,5.9-2.9,8.8C779.3,450.3,778.7,450.8,778,450.8L778,450.8z
		 M199.3,448.7c-0.7,0-1.3-0.4-1.6-1.1c-1-2.9-1.9-5.8-2.8-8.8c-0.3-0.9,0.2-1.8,1.1-2.1c0.9-0.3,1.8,0.2,2.1,1.1
		c0.9,2.9,1.8,5.8,2.8,8.7c0.3,0.9-0.2,1.8-1.1,2.1C199.7,448.7,199.5,448.7,199.3,448.7L199.3,448.7z M783.4,433.2
		c-0.1,0-0.3,0-0.4-0.1c-0.9-0.2-1.4-1.2-1.2-2c0.8-2.9,1.6-5.9,2.3-8.8c0.2-0.9,1.1-1.4,2-1.2c0.9,0.2,1.4,1.1,1.2,2
		c-0.7,3-1.5,6-2.3,8.9C784.8,432.7,784.1,433.2,783.4,433.2L783.4,433.2z M194.1,431.2c-0.7,0-1.4-0.5-1.6-1.2
		c-0.8-3-1.5-5.9-2.3-8.9c-0.2-0.9,0.3-1.8,1.2-2c0.9-0.2,1.8,0.3,2,1.2c0.7,3,1.4,5.9,2.2,8.8c0.2,0.9-0.3,1.8-1.2,2
		C194.4,431.2,194.2,431.2,194.1,431.2L194.1,431.2z M787.7,415.4c-0.1,0-0.2,0-0.4,0c-0.9-0.2-1.5-1.1-1.3-2c0.6-3,1.2-5.9,1.8-8.9
		c0.2-0.9,1-1.5,1.9-1.3c0.9,0.2,1.5,1,1.3,1.9c-0.5,3-1.1,6-1.8,9C789.2,414.9,788.5,415.4,787.7,415.4L787.7,415.4z M189.9,413.3
		c-0.8,0-1.5-0.5-1.6-1.3c-0.6-3-1.2-6-1.7-9.1c-0.2-0.9,0.5-1.8,1.4-1.9c0.9-0.1,1.8,0.5,1.9,1.4c0.5,3,1.1,6,1.7,8.9
		c0.2,0.9-0.4,1.8-1.3,2C190.1,413.3,190,413.3,189.9,413.3L189.9,413.3z M791,397.4c-0.1,0-0.2,0-0.2,0c-0.9-0.1-1.5-1-1.4-1.9
		c0.4-3,0.9-6,1.2-9c0.1-0.9,0.9-1.6,1.8-1.5c0.9,0.1,1.6,0.9,1.5,1.8c-0.4,3.1-0.8,6.1-1.2,9.1C792.5,396.8,791.8,397.4,791,397.4
		L791,397.4z M186.7,395.3c-0.8,0-1.5-0.6-1.6-1.4c-0.4-3-0.8-6.1-1.2-9.1c-0.1-0.9,0.6-1.7,1.5-1.8c0.9-0.1,1.7,0.6,1.8,1.5
		c0.3,3,0.7,6,1.2,9c0.1,0.9-0.5,1.8-1.4,1.9C186.9,395.3,186.8,395.3,186.7,395.3L186.7,395.3z M793.2,379.2c-0.1,0-0.1,0-0.1,0
		c-0.9-0.1-1.6-0.9-1.5-1.8c0.3-3,0.5-6,0.7-9.1c0.1-0.9,0.8-1.6,1.8-1.6c0.9,0.1,1.6,0.8,1.6,1.8c-0.2,3.1-0.4,6.1-0.7,9.2
		C794.7,378.6,794,379.2,793.2,379.2L793.2,379.2z M184.7,377.1c-0.9,0-1.6-0.7-1.7-1.5c-0.3-3.1-0.5-6.1-0.6-9.2
		c0-0.9,0.7-1.7,1.6-1.7c0.9-0.1,1.7,0.7,1.7,1.6c0.2,3,0.4,6.1,0.6,9.1c0.1,0.9-0.6,1.7-1.5,1.8
		C184.8,377.1,184.7,377.1,184.7,377.1L184.7,377.1z M794.2,361C794.2,361,794.2,361,794.2,361c-1,0-1.7-0.8-1.7-1.7
		c0.1-3,0.1-6.1,0.1-9.1c0-0.9,0.7-1.7,1.7-1.7c0.9,0,1.7,0.7,1.7,1.7c0,3.1,0,6.1-0.1,9.2C795.9,360.2,795.1,361,794.2,361
		L794.2,361z M183.7,358.8c-0.9,0-1.6-0.7-1.7-1.6c-0.1-2.3-0.1-4.7-0.1-7.1l0-2.1c0-0.9,0.8-1.8,1.7-1.7c0.9,0,1.7,0.8,1.7,1.7
		l0,2.1c0,2.3,0,4.7,0.1,7C185.4,358,184.7,358.8,183.7,358.8C183.7,358.8,183.7,358.8,183.7,358.8L183.7,358.8z M794.3,346.9
		c-0.9,0-1.7-0.7-1.7-1.6c0-3-0.1-6.1-0.3-9.1c0-0.9,0.7-1.7,1.6-1.7c0.9,0,1.7,0.7,1.7,1.6c0.1,3.1,0.2,6.1,0.3,9.2
		C796,346.1,795.3,346.9,794.3,346.9C794.4,346.9,794.3,346.9,794.3,346.9L794.3,346.9z M183.9,340.5
		C183.8,340.5,183.8,340.5,183.9,340.5c-1,0-1.7-0.8-1.7-1.7c0.1-3.1,0.3-6.1,0.5-9.2c0.1-0.9,0.9-1.6,1.8-1.6
		c0.9,0.1,1.6,0.9,1.6,1.8c-0.2,3-0.4,6.1-0.5,9.1C185.5,339.8,184.7,340.5,183.9,340.5L183.9,340.5z M793.5,328.6
		c-0.9,0-1.6-0.7-1.7-1.5c-0.2-3-0.5-6.1-0.8-9.1c-0.1-0.9,0.6-1.7,1.5-1.8c0.9-0.1,1.7,0.6,1.8,1.5c0.3,3,0.6,6.1,0.8,9.2
		c0.1,0.9-0.6,1.7-1.5,1.8C793.6,328.6,793.5,328.6,793.5,328.6L793.5,328.6z M185.1,322.2c-0.1,0-0.1,0-0.2,0
		c-0.9-0.1-1.6-0.9-1.5-1.8c0.3-3.1,0.6-6.1,1-9.2c0.1-0.9,0.9-1.6,1.9-1.4c0.9,0.1,1.6,0.9,1.4,1.9c-0.4,3-0.7,6-1,9.1
		C186.6,321.6,185.9,322.2,185.1,322.2L185.1,322.2z M791.6,310.4c-0.8,0-1.5-0.6-1.6-1.4c-0.4-3-0.9-6-1.4-9
		c-0.1-0.9,0.5-1.8,1.4-1.9c0.9-0.1,1.8,0.5,1.9,1.4c0.5,3,1,6.1,1.4,9.1c0.1,0.9-0.5,1.7-1.4,1.9
		C791.7,310.4,791.7,310.4,791.6,310.4L791.6,310.4z M187.4,304.1c-0.1,0-0.2,0-0.3,0c-0.9-0.1-1.5-1-1.4-1.9c0.5-3,1-6.1,1.6-9.1
		c0.2-0.9,1-1.5,1.9-1.3c0.9,0.2,1.5,1,1.3,1.9c-0.6,3-1.1,6-1.5,9C188.9,303.5,188.2,304.1,187.4,304.1L187.4,304.1z M788.6,292.3
		c-0.8,0-1.5-0.5-1.6-1.3c-0.6-3-1.2-6-1.9-8.9c-0.2-0.9,0.4-1.8,1.3-2c0.9-0.2,1.8,0.4,2,1.3c0.7,3,1.3,6,1.9,9
		c0.2,0.9-0.4,1.8-1.3,2C788.8,292.3,788.7,292.3,788.6,292.3L788.6,292.3z M190.7,286.1c-0.1,0-0.2,0-0.4,0c-0.9-0.2-1.5-1.1-1.3-2
		c0.7-3,1.4-6,2.1-9c0.2-0.9,1.1-1.4,2-1.2c0.9,0.2,1.4,1.1,1.2,2c-0.7,2.9-1.4,5.9-2.1,8.9C192.2,285.5,191.5,286.1,190.7,286.1
		L190.7,286.1z M784.5,274.5c-0.7,0-1.4-0.5-1.6-1.2c-0.8-2.9-1.6-5.9-2.4-8.8c-0.3-0.9,0.2-1.8,1.1-2.1c0.9-0.3,1.8,0.2,2.1,1.1
		c0.9,2.9,1.7,5.9,2.5,8.9c0.2,0.9-0.3,1.8-1.2,2C784.8,274.5,784.6,274.5,784.5,274.5L784.5,274.5z M195.2,268.3
		c-0.2,0-0.3,0-0.5-0.1c-0.9-0.3-1.4-1.2-1.1-2.1c0.8-3,1.7-5.9,2.6-8.8c0.3-0.9,1.2-1.4,2.1-1.1c0.9,0.3,1.4,1.2,1.1,2.1
		c-0.9,2.9-1.8,5.8-2.6,8.7C196.6,267.8,195.9,268.3,195.2,268.3L195.2,268.3z M779.4,256.9c-0.7,0-1.4-0.4-1.6-1.1
		c-0.9-2.9-1.9-5.8-3-8.6c-0.3-0.9,0.1-1.8,1-2.1c0.9-0.3,1.8,0.1,2.1,1c1,2.9,2,5.8,3,8.7c0.3,0.9-0.2,1.8-1.1,2.1
		C779.7,256.9,779.5,256.9,779.4,256.9L779.4,256.9z M200.7,250.8c-0.2,0-0.4,0-0.6-0.1c-0.9-0.3-1.3-1.3-1-2.1
		c1-2.9,2.1-5.8,3.2-8.7c0.3-0.9,1.3-1.3,2.2-1c0.9,0.3,1.3,1.3,1,2.2c-1.1,2.8-2.1,5.7-3.1,8.6
		C202.1,250.4,201.4,250.8,200.7,250.8L200.7,250.8z M773.1,239.7c-0.7,0-1.3-0.4-1.5-1.1c-1.1-2.8-2.3-5.6-3.5-8.4
		c-0.4-0.8,0-1.8,0.9-2.2c0.8-0.4,1.8,0,2.2,0.9c1.2,2.8,2.4,5.6,3.5,8.5c0.3,0.9-0.1,1.8-0.9,2.2
		C773.6,239.6,773.3,239.7,773.1,239.7L773.1,239.7z M207.3,233.7c-0.2,0-0.4,0-0.6-0.1c-0.8-0.4-1.2-1.3-0.9-2.2
		c1.2-2.8,2.4-5.7,3.7-8.5c0.4-0.8,1.4-1.2,2.2-0.8c0.8,0.4,1.2,1.4,0.8,2.2c-1.3,2.8-2.5,5.6-3.7,8.4
		C208.6,233.3,208,233.7,207.3,233.7L207.3,233.7z M765.9,222.9c-0.6,0-1.2-0.4-1.5-1c-1.3-2.7-2.6-5.5-4-8.2
		c-0.4-0.8-0.1-1.8,0.7-2.2c0.8-0.4,1.8-0.1,2.2,0.7c1.4,2.7,2.7,5.5,4,8.3c0.4,0.8,0,1.8-0.8,2.2
		C766.4,222.9,766.2,222.9,765.9,222.9L765.9,222.9z M214.9,217c-0.2,0-0.5-0.1-0.7-0.2c-0.8-0.4-1.2-1.4-0.8-2.2
		c1.4-2.8,2.8-5.5,4.2-8.2c0.4-0.8,1.4-1.1,2.2-0.7c0.8,0.4,1.1,1.4,0.7,2.2c-1.4,2.7-2.8,5.4-4.2,8.1
		C216.1,216.6,215.6,217,214.9,217L214.9,217z M757.7,206.6c-0.6,0-1.2-0.3-1.5-0.9c-1.4-2.7-2.9-5.3-4.4-7.9
		c-0.5-0.8-0.2-1.8,0.6-2.3c0.8-0.5,1.8-0.2,2.3,0.6c1.5,2.6,3,5.3,4.5,8c0.4,0.8,0.1,1.8-0.7,2.3
		C758.3,206.5,758,206.6,757.7,206.6L757.7,206.6z M223.5,200.8c-0.3,0-0.6-0.1-0.8-0.2c-0.8-0.5-1.1-1.5-0.6-2.3
		c1.5-2.7,3.1-5.3,4.7-7.9c0.5-0.8,1.5-1,2.3-0.6c0.8,0.5,1,1.5,0.6,2.3c-1.6,2.6-3.1,5.2-4.6,7.9
		C224.7,200.5,224.1,200.8,223.5,200.8L223.5,200.8z M748.5,190.8c-0.6,0-1.1-0.3-1.4-0.8c-1.6-2.6-3.2-5.1-4.9-7.7
		c-0.5-0.8-0.3-1.8,0.5-2.3c0.8-0.5,1.8-0.3,2.3,0.5c1.7,2.6,3.4,5.1,5,7.7c0.5,0.8,0.2,1.8-0.5,2.3
		C749.1,190.7,748.8,190.8,748.5,190.8L748.5,190.8z M233.1,185.1c-0.3,0-0.6-0.1-0.9-0.3c-0.8-0.5-1-1.5-0.5-2.3
		c1.7-2.6,3.4-5.1,5.2-7.6c0.5-0.8,1.6-0.9,2.3-0.4c0.8,0.5,0.9,1.6,0.4,2.3c-1.7,2.5-3.4,5-5.1,7.6
		C234.2,184.9,233.6,185.1,233.1,185.1L233.1,185.1z M738.4,175.6c-0.5,0-1-0.2-1.4-0.7c-1.8-2.5-3.5-4.9-5.4-7.3
		c-0.5-0.7-0.4-1.8,0.3-2.3c0.7-0.5,1.8-0.4,2.3,0.3c1.8,2.4,3.6,4.9,5.4,7.4c0.5,0.7,0.4,1.8-0.4,2.3
		C739.1,175.5,738.8,175.6,738.4,175.6L738.4,175.6z M243.6,170.1c-0.3,0-0.7-0.1-1-0.3c-0.7-0.5-0.9-1.6-0.3-2.3
		c1.8-2.5,3.7-4.9,5.6-7.3c0.6-0.7,1.6-0.8,2.3-0.3c0.7,0.6,0.8,1.6,0.3,2.3c-1.9,2.4-3.7,4.8-5.5,7.2
		C244.6,169.8,244.1,170.1,243.6,170.1L243.6,170.1z M727.4,160.9c-0.5,0-1-0.2-1.3-0.6c-1.9-2.4-3.8-4.7-5.8-7
		c-0.6-0.7-0.5-1.8,0.2-2.3c0.7-0.6,1.7-0.5,2.3,0.2c2,2.3,3.9,4.7,5.9,7.1c0.6,0.7,0.5,1.8-0.3,2.3
		C728.1,160.8,727.8,160.9,727.4,160.9L727.4,160.9z M254.9,155.7c-0.4,0-0.8-0.1-1.1-0.4c-0.7-0.6-0.8-1.6-0.2-2.3c2-2.4,4-4.7,6-7
		c0.6-0.7,1.7-0.7,2.3-0.1c0.7,0.6,0.7,1.7,0.1,2.3c-2,2.3-4,4.6-6,6.9C255.9,155.5,255.4,155.7,254.9,155.7L254.9,155.7z
		 M715.5,147c-0.5,0-0.9-0.2-1.2-0.5c-2-2.2-4.1-4.5-6.2-6.7c-0.6-0.7-0.6-1.7,0-2.4c0.7-0.6,1.7-0.6,2.3,0c2.1,2.2,4.2,4.5,6.3,6.7
		c0.6,0.7,0.6,1.7-0.1,2.3C716.3,146.9,715.9,147,715.5,147L715.5,147z M267.1,142c-0.4,0-0.8-0.2-1.1-0.5c-0.7-0.6-0.7-1.7-0.1-2.4
		c2.1-2.2,4.3-4.4,6.4-6.6c0.7-0.7,1.7-0.6,2.4,0c0.6,0.7,0.6,1.7,0,2.4c-2.2,2.1-4.3,4.3-6.4,6.5C268,141.8,267.6,142,267.1,142
		L267.1,142z M702.9,133.8c-0.4,0-0.8-0.2-1.2-0.5c-2.2-2.1-4.4-4.2-6.6-6.3c-0.7-0.6-0.7-1.7-0.1-2.4c0.6-0.7,1.7-0.7,2.4-0.1
		c2.3,2.1,4.5,4.2,6.7,6.3c0.7,0.6,0.7,1.7,0,2.4C703.7,133.6,703.3,133.8,702.9,133.8L702.9,133.8z M280.1,129.1
		c-0.4,0-0.9-0.2-1.2-0.5c-0.6-0.7-0.6-1.7,0.1-2.4c2.2-2.1,4.5-4.2,6.8-6.2c0.7-0.6,1.7-0.5,2.3,0.1c0.6,0.7,0.5,1.7-0.1,2.3
		c-2.3,2-4.5,4.1-6.7,6.1C280.9,128.9,280.5,129.1,280.1,129.1L280.1,129.1z M689.4,121.4c-0.4,0-0.8-0.1-1.1-0.4
		c-2.3-2-4.6-4-7-5.9c-0.7-0.6-0.8-1.6-0.2-2.3c0.6-0.7,1.6-0.8,2.3-0.2c2.4,1.9,4.7,3.9,7,5.9c0.7,0.6,0.8,1.7,0.2,2.3
		C690.3,121.2,689.9,121.4,689.4,121.4L689.4,121.4z M293.8,117c-0.5,0-1-0.2-1.3-0.6c-0.6-0.7-0.5-1.8,0.2-2.3
		c2.4-2,4.7-3.9,7.2-5.8c0.7-0.6,1.8-0.4,2.3,0.3c0.6,0.7,0.4,1.8-0.3,2.3c-2.4,1.9-4.8,3.8-7.1,5.7
		C294.6,116.8,294.2,117,293.8,117L293.8,117z M675.2,109.8c-0.4,0-0.7-0.1-1-0.3c-2.4-1.9-4.8-3.7-7.3-5.5
		c-0.7-0.5-0.9-1.6-0.4-2.3c0.5-0.7,1.6-0.9,2.3-0.4c2.5,1.8,5,3.6,7.4,5.5c0.7,0.6,0.9,1.6,0.3,2.3
		C676.2,109.5,675.7,109.8,675.2,109.8L675.2,109.8z M308.2,105.7c-0.5,0-1-0.2-1.3-0.7c-0.5-0.7-0.4-1.8,0.4-2.3
		c2.5-1.8,5-3.6,7.5-5.3c0.8-0.5,1.8-0.3,2.3,0.4c0.5,0.8,0.3,1.8-0.4,2.3c-2.5,1.7-5,3.5-7.4,5.3
		C308.9,105.6,308.5,105.7,308.2,105.7L308.2,105.7z M660.4,99c-0.3,0-0.7-0.1-0.9-0.3c-2.5-1.7-5.1-3.4-7.6-5
		c-0.8-0.5-1-1.5-0.5-2.3c0.5-0.8,1.5-1,2.3-0.5c2.6,1.7,5.2,3.3,7.7,5.1c0.8,0.5,1,1.6,0.4,2.3C661.5,98.8,660.9,99,660.4,99
		L660.4,99z M323.3,95.3c-0.5,0-1.1-0.3-1.4-0.8c-0.5-0.8-0.3-1.8,0.5-2.3c2.6-1.7,5.2-3.3,7.8-4.9c0.8-0.5,1.8-0.2,2.3,0.6
		c0.5,0.8,0.2,1.8-0.6,2.3c-2.6,1.6-5.2,3.2-7.7,4.8C323.9,95.2,323.6,95.3,323.3,95.3L323.3,95.3z M644.9,89.2
		c-0.3,0-0.6-0.1-0.8-0.2c-2.6-1.6-5.3-3.1-7.9-4.5c-0.8-0.4-1.1-1.5-0.6-2.3c0.4-0.8,1.4-1.1,2.3-0.6c2.7,1.5,5.4,3,8,4.6
		c0.8,0.5,1,1.5,0.6,2.3C646,88.9,645.5,89.2,644.9,89.2L644.9,89.2z M338.9,85.8c-0.6,0-1.1-0.3-1.5-0.8c-0.4-0.8-0.2-1.8,0.6-2.3
		c2.7-1.5,5.4-3,8.1-4.4c0.8-0.4,1.8-0.1,2.2,0.7c0.4,0.8,0.1,1.8-0.7,2.2c-2.7,1.4-5.3,2.9-8,4.4C339.4,85.7,339.2,85.8,338.9,85.8
		L338.9,85.8z M628.9,80.3c-0.3,0-0.5-0.1-0.8-0.2c-2.7-1.4-5.4-2.7-8.2-4.1c-0.8-0.4-1.2-1.4-0.8-2.2c0.4-0.8,1.4-1.2,2.2-0.8
		c2.8,1.3,5.5,2.7,8.3,4.1c0.8,0.4,1.1,1.4,0.7,2.2C630.1,79.9,629.5,80.3,628.9,80.3L628.9,80.3z M355.1,77.3
		c-0.6,0-1.2-0.3-1.5-0.9c-0.4-0.8-0.1-1.8,0.8-2.2c2.7-1.3,5.5-2.6,8.3-3.9c0.8-0.4,1.8,0,2.2,0.8c0.4,0.8,0,1.8-0.8,2.2
		c-2.8,1.2-5.5,2.5-8.2,3.9C355.5,77.2,355.3,77.3,355.1,77.3L355.1,77.3z M612.3,72.3c-0.2,0-0.5,0-0.7-0.1
		c-2.8-1.2-5.6-2.4-8.4-3.6c-0.9-0.3-1.3-1.3-0.9-2.2c0.3-0.9,1.3-1.3,2.2-0.9c2.9,1.2,5.7,2.4,8.5,3.6c0.8,0.4,1.2,1.4,0.8,2.2
		C613.6,72,613,72.3,612.3,72.3L612.3,72.3z M371.7,69.8c-0.6,0-1.3-0.4-1.5-1c-0.4-0.8,0-1.8,0.9-2.2c2.8-1.2,5.7-2.3,8.5-3.4
		c0.9-0.3,1.8,0.1,2.1,1c0.3,0.9-0.1,1.8-1,2.1c-2.8,1.1-5.6,2.2-8.4,3.4C372.1,69.7,371.9,69.8,371.7,69.8L371.7,69.8z M595.3,65.4
		c-0.2,0-0.4,0-0.6-0.1c-2.9-1.1-5.7-2.1-8.6-3c-0.9-0.3-1.3-1.2-1-2.1c0.3-0.9,1.2-1.3,2.1-1c2.9,1,5.8,2,8.7,3.1
		c0.9,0.3,1.3,1.3,1,2.1C596.6,65,596,65.4,595.3,65.4L595.3,65.4z M388.8,63.3c-0.7,0-1.3-0.4-1.6-1.1c-0.3-0.9,0.2-1.8,1-2.1
		c2.9-1,5.8-2,8.7-2.9c0.9-0.3,1.8,0.2,2.1,1.1c0.3,0.9-0.2,1.8-1.1,2.1c-2.9,0.9-5.8,1.9-8.6,2.9C389.1,63.2,389,63.3,388.8,63.3
		L388.8,63.3z M577.9,59.6c-0.2,0-0.3,0-0.5-0.1c-2.9-0.9-5.8-1.7-8.8-2.5c-0.9-0.2-1.4-1.2-1.2-2c0.2-0.9,1.1-1.4,2-1.2
		c3,0.8,5.9,1.7,8.9,2.5c0.9,0.3,1.4,1.2,1.1,2.1C579.3,59.1,578.6,59.6,577.9,59.6L577.9,59.6z M406.2,57.8c-0.7,0-1.4-0.5-1.6-1.2
		c-0.3-0.9,0.3-1.8,1.2-2.1c2.9-0.8,5.9-1.6,8.9-2.4c0.9-0.2,1.8,0.3,2,1.2c0.2,0.9-0.3,1.8-1.2,2c-3,0.7-5.9,1.5-8.8,2.3
		C406.5,57.8,406.4,57.8,406.2,57.8L406.2,57.8z M560.2,54.8c-0.1,0-0.3,0-0.4,0c-2.9-0.7-5.9-1.4-8.9-2c-0.9-0.2-1.5-1.1-1.3-2
		c0.2-0.9,1.1-1.5,2-1.3c3,0.6,6,1.3,9,2c0.9,0.2,1.4,1.1,1.2,2C561.7,54.3,561,54.8,560.2,54.8L560.2,54.8z M424,53.4
		c-0.8,0-1.5-0.5-1.6-1.3c-0.2-0.9,0.4-1.8,1.3-2c3-0.6,6-1.3,9-1.8c0.9-0.2,1.8,0.4,1.9,1.3c0.2,0.9-0.4,1.8-1.3,1.9
		c-3,0.6-6,1.2-8.9,1.8C424.2,53.3,424.1,53.4,424,53.4L424,53.4z M542.3,51.1c-0.1,0-0.2,0-0.3,0c-3-0.5-6-1-9-1.4
		c-0.9-0.1-1.5-1-1.4-1.9c0.1-0.9,1-1.5,1.9-1.4c3,0.4,6.1,0.9,9.1,1.5c0.9,0.2,1.5,1,1.4,1.9C543.8,50.5,543.1,51.1,542.3,51.1
		L542.3,51.1z M442,50c-0.8,0-1.5-0.6-1.6-1.4c-0.1-0.9,0.5-1.8,1.4-1.9c3-0.5,6.1-0.9,9.1-1.3c0.9-0.1,1.7,0.5,1.9,1.4
		c0.1,0.9-0.5,1.7-1.4,1.9c-3,0.4-6,0.8-9,1.3C442.2,50,442.1,50,442,50L442,50z M524.2,48.4c-0.1,0-0.1,0-0.2,0
		c-3-0.3-6-0.6-9.1-0.9c-0.9-0.1-1.6-0.9-1.5-1.8c0.1-0.9,0.9-1.6,1.8-1.5c3.1,0.3,6.1,0.6,9.2,0.9c0.9,0.1,1.6,0.9,1.5,1.8
		C525.7,47.8,525,48.4,524.2,48.4L524.2,48.4z M460.2,47.8c-0.8,0-1.6-0.6-1.7-1.5c-0.1-0.9,0.6-1.7,1.5-1.8c3-0.3,6.1-0.5,9.2-0.7
		c0.9,0,1.7,0.6,1.8,1.6c0.1,0.9-0.6,1.7-1.6,1.8c-3,0.2-6.1,0.4-9.1,0.7C460.3,47.8,460.2,47.8,460.2,47.8L460.2,47.8z M505.9,46.9
		C505.9,46.9,505.9,46.9,505.9,46.9c-3.1-0.2-6.1-0.3-9.2-0.4c-0.9,0-1.6-0.8-1.6-1.7c0-0.9,0.8-1.6,1.7-1.6c0,0,0,0,0,0
		c3.1,0.1,6.1,0.2,9.2,0.4c0.9,0,1.6,0.8,1.6,1.8C507.5,46.2,506.8,46.9,505.9,46.9L505.9,46.9z M478.5,46.6c-0.9,0-1.6-0.7-1.7-1.6
		c0-0.9,0.7-1.7,1.6-1.7c3.1-0.1,6.1-0.2,9.2-0.2c0,0,0,0,0,0c0.9,0,1.7,0.7,1.7,1.7c0,0.9-0.7,1.7-1.7,1.7
		C484.6,46.4,481.6,46.5,478.5,46.6C478.5,46.6,478.5,46.6,478.5,46.6L478.5,46.6z"/>
	<path class="st3" d="M489,669.2c-2,0-3.9,0-5.9,0c-1,0-1.7-0.8-1.7-1.8c0-0.9,0.8-1.7,1.7-1.7c0,0,0,0,0,0c1.9,0,3.9,0,5.8,0l3.6,0
		c0,0,0,0,0,0c0.9,0,1.7,0.8,1.7,1.7c0,1-0.8,1.7-1.7,1.7L489,669.2L489,669.2z M502.2,669c-0.9,0-1.7-0.7-1.7-1.7
		c0-1,0.7-1.8,1.7-1.8c3.2-0.1,6.3-0.3,9.5-0.5c0.9-0.1,1.8,0.7,1.8,1.6c0.1,1-0.7,1.8-1.6,1.8C508.6,668.7,505.4,668.8,502.2,669
		C502.2,669,502.2,669,502.2,669L502.2,669z M473.6,668.9C473.6,668.9,473.6,668.9,473.6,668.9c-3.3-0.2-6.5-0.4-9.6-0.6
		c-1-0.1-1.7-0.9-1.6-1.9c0.1-1,1-1.7,1.9-1.6c3.1,0.2,6.3,0.4,9.4,0.6c1,0,1.7,0.9,1.6,1.8C475.3,668.1,474.6,668.9,473.6,668.9
		L473.6,668.9z M521.2,667.6c-0.9,0-1.6-0.7-1.7-1.6c-0.1-0.9,0.6-1.8,1.5-1.9c3.1-0.3,6.3-0.7,9.4-1.1c0.9-0.2,1.8,0.5,1.9,1.5
		c0.1,0.9-0.5,1.8-1.5,1.9c-3.2,0.4-6.3,0.8-9.5,1.1C521.3,667.6,521.2,667.6,521.2,667.6L521.2,667.6z M454.7,667.4
		c-0.1,0-0.1,0-0.2,0c-3.2-0.3-6.3-0.7-9.5-1.2c-0.9-0.1-1.6-1-1.5-1.9c0.1-1,1-1.6,1.9-1.5c3.1,0.4,6.2,0.8,9.4,1.2
		c0.9,0.1,1.6,1,1.5,1.9C456.3,666.7,455.5,667.4,454.7,667.4L454.7,667.4z M540,665.2c-0.8,0-1.6-0.6-1.7-1.4
		c-0.2-0.9,0.5-1.8,1.4-2c3.1-0.5,6.2-1.1,9.3-1.6c0.9-0.2,1.8,0.4,2,1.4c0.2,0.9-0.4,1.8-1.4,2c-3.1,0.6-6.3,1.2-9.4,1.7
		C540.2,665.1,540.1,665.2,540,665.2L540,665.2z M435.8,664.8c-0.1,0-0.2,0-0.3,0c-3.2-0.5-6.3-1.1-9.4-1.7c-0.9-0.2-1.5-1.1-1.4-2
		c0.2-0.9,1.1-1.5,2-1.4c3.1,0.6,6.2,1.2,9.3,1.7c0.9,0.2,1.6,1,1.4,2C437.4,664.2,436.6,664.8,435.8,664.8L435.8,664.8z
		 M558.7,661.6c-0.8,0-1.5-0.5-1.7-1.4c-0.2-0.9,0.4-1.9,1.3-2.1c3.1-0.7,6.2-1.4,9.2-2.2c0.9-0.3,1.9,0.3,2.1,1.2
		c0.2,0.9-0.3,1.9-1.2,2.1c-3.1,0.8-6.2,1.5-9.3,2.2C559,661.5,558.8,661.6,558.7,661.6L558.7,661.6z M417.1,661.1
		c-0.1,0-0.3,0-0.4,0c-3.1-0.7-6.2-1.5-9.3-2.3c-0.9-0.2-1.5-1.2-1.2-2.1c0.2-0.9,1.2-1.5,2.1-1.2c3,0.8,6.1,1.6,9.2,2.3
		c0.9,0.2,1.5,1.1,1.3,2.1C418.6,660.5,417.9,661.1,417.1,661.1L417.1,661.1z M577.2,656.8c-0.8,0-1.4-0.5-1.7-1.3
		c-0.3-0.9,0.3-1.9,1.2-2.1c3-0.9,6.1-1.8,9.1-2.8c0.9-0.3,1.9,0.2,2.2,1.1c0.3,0.9-0.2,1.9-1.1,2.2c-3,1-6.1,1.9-9.2,2.8
		C577.5,656.8,577.3,656.8,577.2,656.8L577.2,656.8z M398.7,656.2c-0.2,0-0.3,0-0.5-0.1c-3.1-0.9-6.1-1.9-9.1-2.9
		c-0.9-0.3-1.4-1.3-1.1-2.2c0.3-0.9,1.3-1.4,2.2-1.1c3,1,6,1.9,9,2.8c0.9,0.3,1.4,1.2,1.2,2.2C400.2,655.7,399.5,656.2,398.7,656.2
		L398.7,656.2z M595.3,651c-0.7,0-1.4-0.4-1.6-1.2c-0.3-0.9,0.1-1.9,1.1-2.2c3-1.1,5.9-2.2,8.9-3.3c0.9-0.4,1.9,0.1,2.2,1
		c0.3,0.9-0.1,1.9-1,2.2c-3,1.2-6,2.3-9,3.3C595.7,651,595.5,651,595.3,651L595.3,651z M380.6,650.3c-0.2,0-0.4,0-0.6-0.1
		c-3-1.1-6-2.2-9-3.4c-0.9-0.4-1.3-1.4-1-2.3c0.4-0.9,1.4-1.3,2.2-1c2.9,1.2,5.9,2.3,8.9,3.4c0.9,0.3,1.4,1.3,1,2.2
		C382,649.8,381.3,650.3,380.6,650.3L380.6,650.3z M613,644.1c-0.7,0-1.3-0.4-1.6-1.1c-0.4-0.9,0-1.9,0.9-2.3
		c2.9-1.2,5.8-2.5,8.6-3.8c0.9-0.4,1.9,0,2.3,0.8c0.4,0.9,0,1.9-0.8,2.3c-2.9,1.3-5.8,2.6-8.7,3.9
		C613.4,644.1,613.2,644.1,613,644.1L613,644.1z M362.9,643.2c-0.2,0-0.5,0-0.7-0.1c-2.9-1.3-5.9-2.6-8.7-3.9
		c-0.9-0.4-1.2-1.4-0.8-2.3c0.4-0.9,1.4-1.2,2.3-0.8c2.9,1.3,5.7,2.6,8.6,3.9c0.9,0.4,1.3,1.4,0.9,2.3
		C364.2,642.8,363.6,643.2,362.9,643.2L362.9,643.2z M630.2,636.2c-0.6,0-1.2-0.4-1.5-1c-0.4-0.9-0.1-1.9,0.8-2.3
		c2.8-1.4,5.6-2.9,8.4-4.3c0.8-0.5,1.9-0.1,2.3,0.7c0.4,0.8,0.1,1.9-0.7,2.3c-2.8,1.5-5.6,3-8.5,4.4
		C630.7,636.1,630.5,636.2,630.2,636.2L630.2,636.2z M345.6,635.1c-0.3,0-0.5-0.1-0.8-0.2c-2.9-1.4-5.7-2.9-8.5-4.5
		c-0.8-0.5-1.1-1.5-0.7-2.3c0.5-0.8,1.5-1.1,2.3-0.7c2.8,1.5,5.6,3,8.4,4.4c0.9,0.4,1.2,1.5,0.8,2.3
		C346.9,634.7,346.3,635.1,345.6,635.1L345.6,635.1z M647,627.2c-0.6,0-1.2-0.3-1.5-0.9c-0.5-0.8-0.2-1.9,0.6-2.4
		c2.7-1.6,5.4-3.2,8.1-4.8c0.8-0.5,1.9-0.2,2.4,0.6c0.5,0.8,0.2,1.9-0.6,2.4c-2.7,1.7-5.4,3.3-8.2,4.9
		C647.6,627.1,647.3,627.2,647,627.2L647,627.2z M328.9,625.9c-0.3,0-0.6-0.1-0.9-0.2c-2.8-1.6-5.5-3.3-8.2-5
		c-0.8-0.5-1.1-1.6-0.5-2.4c0.5-0.8,1.6-1.1,2.4-0.5c2.7,1.7,5.4,3.3,8.1,4.9c0.8,0.5,1.1,1.5,0.6,2.4
		C330.1,625.6,329.5,625.9,328.9,625.9L328.9,625.9z M663.1,617.2c-0.6,0-1.1-0.3-1.4-0.8c-0.5-0.8-0.3-1.9,0.5-2.4
		c2.6-1.7,5.2-3.5,7.8-5.3c0.8-0.5,1.9-0.4,2.4,0.4c0.6,0.8,0.4,1.9-0.4,2.4c-2.6,1.8-5.2,3.6-7.9,5.4
		C663.8,617.2,663.5,617.2,663.1,617.2L663.1,617.2z M312.7,615.8c-0.3,0-0.7-0.1-1-0.3c-2.7-1.8-5.3-3.6-7.9-5.4
		c-0.8-0.6-1-1.6-0.4-2.4c0.6-0.8,1.6-1,2.4-0.4c2.6,1.8,5.2,3.6,7.8,5.4c0.8,0.5,1,1.6,0.5,2.4
		C313.9,615.6,313.3,615.8,312.7,615.8L312.7,615.8z M678.7,606.3c-0.5,0-1-0.2-1.4-0.7c-0.6-0.8-0.4-1.8,0.3-2.4
		c2.5-1.9,5-3.8,7.5-5.8c0.8-0.6,1.8-0.5,2.4,0.3c0.6,0.7,0.5,1.8-0.3,2.4c-2.5,2-5,3.9-7.6,5.8
		C679.4,606.2,679.1,606.3,678.7,606.3L678.7,606.3z M297.2,604.8c-0.4,0-0.7-0.1-1-0.4c-2.5-1.9-5.1-3.9-7.5-5.9
		c-0.7-0.6-0.9-1.7-0.3-2.4c0.6-0.7,1.7-0.9,2.4-0.3c2.5,2,4.9,3.9,7.5,5.8c0.8,0.6,0.9,1.7,0.3,2.4
		C298.3,604.5,297.8,604.8,297.2,604.8L297.2,604.8z M693.6,594.5c-0.5,0-1-0.2-1.3-0.6c-0.6-0.7-0.5-1.8,0.2-2.4
		c2.4-2,4.8-4.1,7.1-6.2c0.7-0.6,1.8-0.6,2.4,0.1c0.6,0.7,0.6,1.8-0.1,2.4c-2.4,2.1-4.8,4.2-7.2,6.3
		C694.4,594.4,694,594.5,693.6,594.5L693.6,594.5z M282.4,592.8c-0.4,0-0.8-0.1-1.1-0.4c-2.4-2.1-4.8-4.2-7.2-6.3
		c-0.7-0.6-0.8-1.7-0.1-2.4c0.6-0.7,1.7-0.8,2.4-0.1c2.3,2.1,4.7,4.2,7.1,6.3c0.7,0.6,0.8,1.7,0.2,2.4
		C283.4,592.6,282.9,592.8,282.4,592.8L282.4,592.8z M707.8,581.8c-0.5,0-0.9-0.2-1.3-0.5c-0.7-0.7-0.6-1.8,0.1-2.4
		c2.3-2.2,4.5-4.4,6.8-6.6c0.7-0.7,1.8-0.7,2.4,0c0.7,0.7,0.7,1.8,0,2.4c-2.2,2.3-4.5,4.5-6.8,6.7
		C708.6,581.7,708.2,581.8,707.8,581.8L707.8,581.8z M268.4,580c-0.4,0-0.9-0.2-1.2-0.5c-2.3-2.2-4.6-4.5-6.8-6.8
		c-0.7-0.7-0.7-1.8,0-2.4c0.7-0.7,1.8-0.7,2.4,0c2.2,2.3,4.4,4.5,6.7,6.7c0.7,0.7,0.7,1.8,0,2.4C269.3,579.8,268.8,580,268.4,580
		L268.4,580z M721.2,568.3c-0.4,0-0.8-0.2-1.2-0.5c-0.7-0.7-0.7-1.7-0.1-2.4c2.1-2.3,4.3-4.6,6.4-7c0.6-0.7,1.7-0.8,2.4-0.2
		c0.7,0.6,0.8,1.7,0.2,2.4c-2.1,2.4-4.2,4.8-6.4,7.1C722.1,568.1,721.6,568.3,721.2,568.3L721.2,568.3z M255.1,566.3
		c-0.5,0-0.9-0.2-1.3-0.6c-2.2-2.3-4.3-4.7-6.4-7.1c-0.6-0.7-0.5-1.8,0.2-2.4c0.7-0.6,1.8-0.5,2.4,0.2c2.1,2.4,4.2,4.7,6.3,7.1
		c0.6,0.7,0.6,1.8-0.1,2.4C255.9,566.2,255.5,566.3,255.1,566.3L255.1,566.3z M733.7,554c-0.4,0-0.8-0.1-1.1-0.4
		c-0.7-0.6-0.8-1.7-0.2-2.4c2-2.4,4-4.9,5.9-7.4c0.6-0.8,1.7-0.9,2.4-0.3c0.8,0.6,0.9,1.7,0.3,2.4c-2,2.5-4,5-6,7.5
		C734.7,553.8,734.2,554,733.7,554L733.7,554z M242.6,551.9c-0.5,0-1-0.2-1.3-0.6c-2-2.5-4-5-5.9-7.5c-0.6-0.8-0.4-1.8,0.3-2.4
		c0.8-0.6,1.8-0.4,2.4,0.3c1.9,2.5,3.9,5,5.9,7.4c0.6,0.7,0.5,1.8-0.3,2.4C243.4,551.8,243,551.9,242.6,551.9L242.6,551.9z
		 M745.4,538.9c-0.4,0-0.7-0.1-1-0.3c-0.8-0.6-0.9-1.6-0.4-2.4c1.9-2.6,3.7-5.1,5.5-7.7c0.5-0.8,1.6-1,2.4-0.4
		c0.8,0.5,1,1.6,0.4,2.4c-1.8,2.6-3.7,5.2-5.5,7.8C746.5,538.7,745.9,538.9,745.4,538.9L745.4,538.9z M231.1,536.8
		c-0.5,0-1.1-0.3-1.4-0.7c-1.9-2.6-3.7-5.2-5.5-7.8c-0.5-0.8-0.3-1.9,0.5-2.4c0.8-0.5,1.9-0.3,2.4,0.5c1.8,2.6,3.6,5.2,5.4,7.8
		c0.6,0.8,0.4,1.9-0.4,2.4C231.8,536.7,231.4,536.8,231.1,536.8L231.1,536.8z M756.2,523.2c-0.3,0-0.6-0.1-0.9-0.3
		c-0.8-0.5-1-1.6-0.5-2.4c1.7-2.7,3.4-5.3,5-8.1c0.5-0.8,1.6-1.1,2.4-0.6c0.8,0.5,1.1,1.6,0.6,2.4c-1.6,2.7-3.3,5.5-5.1,8.1
		C757.3,523,756.8,523.2,756.2,523.2L756.2,523.2z M220.5,521.1c-0.6,0-1.1-0.3-1.5-0.8c-1.7-2.7-3.4-5.4-5-8.1
		c-0.5-0.8-0.2-1.9,0.6-2.4c0.8-0.5,1.9-0.2,2.4,0.6c1.6,2.7,3.2,5.4,4.9,8.1c0.5,0.8,0.3,1.9-0.5,2.4
		C221.1,521,220.8,521.1,220.5,521.1L220.5,521.1z M766,506.9c-0.3,0-0.6-0.1-0.8-0.2c-0.8-0.5-1.1-1.5-0.7-2.4
		c1.5-2.8,3-5.5,4.5-8.3c0.4-0.9,1.5-1.2,2.3-0.7c0.8,0.4,1.2,1.5,0.7,2.3c-1.5,2.8-3,5.6-4.6,8.4
		C767.2,506.6,766.6,506.9,766,506.9L766,506.9z M210.8,504.7c-0.6,0-1.2-0.3-1.5-0.9c-1.5-2.8-3-5.6-4.5-8.4
		c-0.4-0.8-0.1-1.9,0.8-2.3c0.8-0.4,1.9-0.1,2.3,0.8c1.4,2.8,2.9,5.6,4.4,8.3c0.5,0.8,0.2,1.9-0.7,2.3
		C211.4,504.7,211.1,504.7,210.8,504.7L210.8,504.7z M774.8,490c-0.3,0-0.5-0.1-0.8-0.2c-0.9-0.4-1.2-1.4-0.8-2.3
		c1.4-2.8,2.7-5.7,4-8.6c0.4-0.9,1.4-1.3,2.3-0.9c0.9,0.4,1.3,1.4,0.9,2.3c-1.3,2.9-2.7,5.8-4,8.7C776.1,489.6,775.5,490,774.8,490
		L774.8,490z M202.2,487.8c-0.6,0-1.3-0.4-1.6-1c-1.4-2.9-2.7-5.8-4-8.7c-0.4-0.9,0-1.9,0.9-2.3c0.9-0.4,1.9,0,2.3,0.9
		c1.3,2.9,2.6,5.7,3.9,8.6c0.4,0.9,0,1.9-0.8,2.3C202.7,487.8,202.4,487.8,202.2,487.8L202.2,487.8z M782.6,472.6
		c-0.2,0-0.4,0-0.7-0.1c-0.9-0.4-1.3-1.4-0.9-2.3c1.2-2.9,2.4-5.9,3.5-8.8c0.3-0.9,1.3-1.4,2.2-1c0.9,0.3,1.3,1.3,1,2.2
		c-1.1,3-2.3,6-3.5,8.9C783.9,472.2,783.3,472.6,782.6,472.6L782.6,472.6z M194.5,470.4c-0.7,0-1.3-0.4-1.6-1.1
		c-1.2-3-2.3-5.9-3.4-8.9c-0.3-0.9,0.1-1.9,1-2.2c0.9-0.3,1.9,0.1,2.2,1c1.1,3,2.2,5.9,3.4,8.8c0.4,0.9-0.1,1.9-1,2.3
		C195,470.4,194.7,470.4,194.5,470.4L194.5,470.4z M789.4,454.7c-0.2,0-0.4,0-0.6-0.1c-0.9-0.3-1.4-1.3-1.1-2.2c1-3,2-6,2.9-9
		c0.3-0.9,1.2-1.4,2.2-1.1c0.9,0.3,1.4,1.2,1.1,2.2c-0.9,3.1-1.9,6.1-3,9.1C790.7,454.3,790.1,454.7,789.4,454.7L789.4,454.7z
		 M188,452.6c-0.7,0-1.4-0.5-1.6-1.2c-1-3-2-6.1-2.9-9.1c-0.3-0.9,0.2-1.9,1.2-2.2c0.9-0.3,1.9,0.2,2.2,1.2c0.9,3,1.9,6,2.9,9
		c0.3,0.9-0.2,1.9-1.1,2.2C188.3,452.6,188.1,452.6,188,452.6L188,452.6z M795,436.5c-0.2,0-0.3,0-0.5-0.1c-0.9-0.3-1.5-1.2-1.2-2.1
		c0.8-3,1.6-6.1,2.4-9.2c0.2-0.9,1.2-1.5,2.1-1.3c0.9,0.2,1.5,1.2,1.3,2.1c-0.8,3.1-1.6,6.2-2.4,9.3
		C796.4,436,795.7,436.5,795,436.5L795,436.5z M182.5,434.4c-0.8,0-1.5-0.5-1.7-1.3c-0.8-3.1-1.6-6.2-2.3-9.3
		c-0.2-0.9,0.4-1.9,1.3-2.1c0.9-0.2,1.9,0.4,2.1,1.3c0.7,3.1,1.5,6.1,2.3,9.2c0.2,0.9-0.3,1.9-1.2,2.1
		C182.8,434.3,182.6,434.4,182.5,434.4L182.5,434.4z M799.5,418c-0.1,0-0.2,0-0.4,0c-0.9-0.2-1.5-1.1-1.3-2.1
		c0.7-3.1,1.3-6.2,1.8-9.3c0.2-0.9,1.1-1.5,2-1.4c0.9,0.2,1.6,1.1,1.4,2c-0.6,3.1-1.2,6.3-1.8,9.4C801,417.4,800.3,418,799.5,418
		L799.5,418z M178.1,415.8c-0.8,0-1.5-0.6-1.7-1.4c-0.6-3.1-1.2-6.3-1.8-9.4c-0.2-0.9,0.5-1.8,1.4-2c1-0.1,1.8,0.5,2,1.4
		c0.5,3.1,1.1,6.2,1.8,9.3c0.2,0.9-0.4,1.8-1.3,2C178.3,415.8,178.2,415.8,178.1,415.8L178.1,415.8z M802.9,399.3
		c-0.1,0-0.2,0-0.3,0c-0.9-0.1-1.6-1-1.5-2c0.5-3.1,0.9-6.2,1.3-9.4c0.1-0.9,1-1.6,1.9-1.5c0.9,0.1,1.6,1,1.5,1.9
		c-0.4,3.2-0.8,6.3-1.3,9.5C804.5,398.7,803.7,399.3,802.9,399.3L802.9,399.3z M174.8,397.1c-0.8,0-1.6-0.6-1.7-1.5
		c-0.4-3.2-0.9-6.3-1.2-9.5c-0.1-0.9,0.6-1.8,1.5-1.9c1-0.1,1.8,0.6,1.9,1.5c0.4,3.1,0.8,6.3,1.2,9.4c0.1,0.9-0.5,1.8-1.5,2
		C175,397.1,174.9,397.1,174.8,397.1L174.8,397.1z M805.1,380.4c-0.1,0-0.1,0-0.2,0c-1-0.1-1.7-0.9-1.6-1.9c0.3-3.1,0.5-6.3,0.7-9.4
		c0.1-1,0.9-1.7,1.8-1.6c1,0.1,1.7,0.9,1.6,1.8c-0.2,3.2-0.4,6.4-0.7,9.5C806.8,379.7,806,380.4,805.1,380.4L805.1,380.4z
		 M172.7,378.2c-0.9,0-1.6-0.7-1.7-1.6c-0.3-3.2-0.5-6.4-0.6-9.5c0-1,0.7-1.8,1.6-1.8c1-0.1,1.8,0.7,1.8,1.6
		c0.2,3.2,0.4,6.3,0.6,9.4c0.1,1-0.6,1.8-1.6,1.9C172.8,378.2,172.8,378.2,172.7,378.2L172.7,378.2z M806.3,361.4
		C806.2,361.4,806.2,361.4,806.3,361.4c-1,0-1.8-0.8-1.7-1.8c0.1-3.1,0.1-6.3,0.1-9.5c0-1,0.8-1.7,1.7-1.7c1,0,1.7,0.8,1.7,1.7
		c0,3.2,0,6.4-0.1,9.6C807.9,360.6,807.2,361.4,806.3,361.4L806.3,361.4z M171.7,359.2c-0.9,0-1.7-0.7-1.7-1.7
		c-0.1-2.4-0.1-4.9-0.1-7.3l0-2.2c0-1,0.9-1.8,1.7-1.7c1,0,1.7,0.8,1.7,1.7l0,2.2c0,2.4,0,4.8,0.1,7.3
		C173.5,358.3,172.7,359.1,171.7,359.2C171.7,359.2,171.7,359.2,171.7,359.2L171.7,359.2z M806.3,346.8c-0.9,0-1.7-0.8-1.7-1.7
		c0-3.2-0.1-6.3-0.3-9.5c0-1,0.7-1.8,1.7-1.8c0.9,0,1.8,0.7,1.8,1.7c0.1,3.2,0.2,6.4,0.3,9.6C808.1,346,807.3,346.8,806.3,346.8
		C806.4,346.8,806.4,346.8,806.3,346.8L806.3,346.8z M171.9,340.1C171.8,340.1,171.8,340.1,171.9,340.1c-1,0-1.8-0.8-1.7-1.8
		c0.1-3.2,0.3-6.4,0.5-9.6c0.1-1,0.9-1.7,1.8-1.6c1,0.1,1.7,0.9,1.6,1.8c-0.2,3.1-0.4,6.3-0.5,9.5
		C173.5,339.4,172.8,340.1,171.9,340.1L171.9,340.1z M805.5,327.8c-0.9,0-1.7-0.7-1.7-1.6c-0.2-3.2-0.5-6.3-0.8-9.4
		c-0.1-0.9,0.6-1.8,1.5-1.9c0.9-0.1,1.8,0.6,1.9,1.5c0.3,3.2,0.6,6.3,0.9,9.5c0.1,1-0.6,1.8-1.6,1.9
		C805.6,327.8,805.5,327.8,805.5,327.8L805.5,327.8z M173.1,321.1c-0.1,0-0.1,0-0.2,0c-1-0.1-1.6-0.9-1.6-1.9
		c0.3-3.2,0.7-6.4,1.1-9.5c0.1-0.9,1-1.6,1.9-1.5c0.9,0.1,1.6,1,1.5,1.9c-0.4,3.1-0.7,6.3-1,9.4C174.7,320.5,174,321.1,173.1,321.1
		L173.1,321.1z M803.5,308.8c-0.8,0-1.6-0.6-1.7-1.5c-0.4-3.1-0.9-6.3-1.4-9.4c-0.2-0.9,0.5-1.8,1.4-2c0.9-0.1,1.8,0.5,2,1.4
		c0.5,3.1,1,6.3,1.4,9.5c0.1,0.9-0.5,1.8-1.5,1.9C803.7,308.8,803.6,308.8,803.5,308.8L803.5,308.8z M175.5,302.3
		c-0.1,0-0.2,0-0.3,0c-0.9-0.1-1.6-1-1.4-2c0.5-3.2,1-6.3,1.6-9.4c0.2-0.9,1.1-1.6,2-1.4c0.9,0.2,1.6,1.1,1.4,2
		c-0.6,3.1-1.1,6.2-1.6,9.3C177.1,301.6,176.3,302.3,175.5,302.3L175.5,302.3z M800.4,290.1c-0.8,0-1.5-0.6-1.7-1.4
		c-0.6-3.1-1.3-6.2-2-9.3c-0.2-0.9,0.4-1.9,1.3-2.1c0.9-0.2,1.9,0.4,2.1,1.3c0.7,3.1,1.4,6.2,2,9.4c0.2,0.9-0.4,1.8-1.4,2
		C800.6,290.1,800.5,290.1,800.4,290.1L800.4,290.1z M179,283.5c-0.1,0-0.2,0-0.4,0c-0.9-0.2-1.5-1.1-1.3-2.1
		c0.7-3.1,1.4-6.2,2.2-9.3c0.2-0.9,1.2-1.5,2.1-1.3c0.9,0.2,1.5,1.2,1.3,2.1c-0.8,3.1-1.5,6.1-2.2,9.2
		C180.5,283,179.8,283.5,179,283.5L179,283.5z M796.1,271.5c-0.8,0-1.5-0.5-1.7-1.3c-0.8-3.1-1.6-6.1-2.5-9.1
		c-0.3-0.9,0.3-1.9,1.2-2.1c0.9-0.3,1.9,0.3,2.1,1.2c0.9,3.1,1.7,6.1,2.6,9.2c0.2,0.9-0.3,1.9-1.2,2.1
		C796.4,271.5,796.3,271.5,796.1,271.5L796.1,271.5z M183.6,265.1c-0.2,0-0.3,0-0.5-0.1c-0.9-0.3-1.5-1.2-1.2-2.1
		c0.9-3.1,1.8-6.1,2.8-9.2c0.3-0.9,1.3-1.4,2.2-1.1c0.9,0.3,1.4,1.3,1.1,2.2c-1,3-1.9,6-2.7,9.1
		C185.1,264.6,184.4,265.1,183.6,265.1L183.6,265.1z M790.8,253.2c-0.7,0-1.4-0.5-1.6-1.2c-1-3-2-6-3.1-8.9c-0.3-0.9,0.1-1.9,1-2.2
		c0.9-0.3,1.9,0.1,2.2,1c1.1,3,2.1,6,3.1,9.1c0.3,0.9-0.2,1.9-1.1,2.2C791.1,253.2,790.9,253.2,790.8,253.2L790.8,253.2z
		 M189.4,246.9c-0.2,0-0.4,0-0.6-0.1c-0.9-0.3-1.4-1.3-1.1-2.2c1.1-3,2.2-6,3.3-9c0.3-0.9,1.4-1.3,2.2-1c0.9,0.3,1.3,1.3,1,2.2
		c-1.1,2.9-2.2,5.9-3.3,8.9C190.8,246.5,190.1,246.9,189.4,246.9L189.4,246.9z M784.3,235.3c-0.7,0-1.3-0.4-1.6-1.1
		c-1.2-2.9-2.4-5.8-3.6-8.7c-0.4-0.9,0-1.9,0.9-2.3c0.9-0.4,1.9,0,2.3,0.9c1.3,2.9,2.5,5.9,3.6,8.8c0.3,0.9-0.1,1.9-1,2.2
		C784.7,235.3,784.5,235.3,784.3,235.3L784.3,235.3z M196.3,229.1c-0.2,0-0.5,0-0.7-0.1c-0.9-0.4-1.3-1.4-0.9-2.3
		c1.2-3,2.5-5.9,3.8-8.8c0.4-0.9,1.4-1.3,2.3-0.9c0.9,0.4,1.3,1.4,0.9,2.3c-1.3,2.9-2.6,5.8-3.8,8.7
		C197.6,228.7,196.9,229.1,196.3,229.1L196.3,229.1z M776.8,217.9c-0.7,0-1.3-0.4-1.6-1c-1.3-2.9-2.7-5.7-4.1-8.5
		c-0.4-0.9-0.1-1.9,0.8-2.3c0.8-0.4,1.9-0.1,2.3,0.8c1.4,2.8,2.8,5.7,4.2,8.6c0.4,0.9,0,1.9-0.8,2.3
		C777.3,217.9,777.1,217.9,776.8,217.9L776.8,217.9z M204.2,211.7c-0.3,0-0.5-0.1-0.8-0.2c-0.9-0.4-1.2-1.5-0.8-2.3
		c1.4-2.9,2.9-5.7,4.4-8.5c0.4-0.8,1.5-1.2,2.3-0.7c0.8,0.4,1.2,1.5,0.7,2.3c-1.5,2.8-2.9,5.6-4.3,8.4
		C205.4,211.4,204.8,211.7,204.2,211.7L204.2,211.7z M768.3,201c-0.6,0-1.2-0.3-1.5-0.9c-1.5-2.8-3-5.5-4.6-8.2
		c-0.5-0.8-0.2-1.9,0.6-2.4c0.8-0.5,1.9-0.2,2.4,0.6c1.6,2.8,3.2,5.5,4.7,8.3c0.5,0.8,0.1,1.9-0.7,2.3
		C768.8,200.9,768.6,201,768.3,201L768.3,201z M213.1,194.9c-0.3,0-0.6-0.1-0.9-0.2c-0.8-0.5-1.1-1.5-0.6-2.4
		c1.6-2.8,3.2-5.5,4.9-8.3c0.5-0.8,1.6-1.1,2.4-0.6c0.8,0.5,1.1,1.6,0.6,2.4c-1.6,2.7-3.3,5.4-4.8,8.2
		C214.3,194.6,213.7,194.9,213.1,194.9L213.1,194.9z M758.7,184.5c-0.6,0-1.1-0.3-1.5-0.8c-1.7-2.7-3.4-5.3-5.1-8
		c-0.5-0.8-0.3-1.9,0.5-2.4c0.8-0.5,1.9-0.3,2.4,0.5c1.8,2.7,3.5,5.3,5.2,8c0.5,0.8,0.3,1.9-0.6,2.4
		C759.4,184.4,759.1,184.5,758.7,184.5L758.7,184.5z M223,178.6c-0.3,0-0.7-0.1-0.9-0.3c-0.8-0.5-1-1.6-0.5-2.4
		c1.7-2.7,3.5-5.3,5.4-7.9c0.5-0.8,1.6-1,2.4-0.4c0.8,0.5,1,1.6,0.4,2.4c-1.8,2.6-3.6,5.2-5.3,7.9
		C224.2,178.4,223.6,178.6,223,178.6L223,178.6z M748.2,168.7c-0.5,0-1.1-0.3-1.4-0.7c-1.8-2.6-3.7-5.1-5.6-7.6
		c-0.6-0.8-0.4-1.8,0.3-2.4c0.8-0.6,1.9-0.4,2.4,0.3c1.9,2.5,3.8,5.1,5.6,7.7c0.6,0.8,0.4,1.9-0.4,2.4
		C748.9,168.6,748.6,168.7,748.2,168.7L748.2,168.7z M233.9,163c-0.4,0-0.7-0.1-1-0.3c-0.8-0.6-0.9-1.7-0.4-2.4
		c1.9-2.6,3.8-5.1,5.8-7.6c0.6-0.8,1.7-0.9,2.4-0.3c0.8,0.6,0.9,1.7,0.3,2.4c-2,2.5-3.9,5-5.8,7.5C235,162.8,234.5,163,233.9,163
		L233.9,163z M736.8,153.5c-0.5,0-1-0.2-1.4-0.6c-2-2.5-4-4.9-6-7.3c-0.6-0.7-0.5-1.8,0.2-2.4c0.7-0.6,1.8-0.5,2.4,0.2
		c2.1,2.4,4.1,4.9,6.1,7.4c0.6,0.7,0.5,1.8-0.3,2.4C737.6,153.4,737.2,153.5,736.8,153.5L736.8,153.5z M245.7,148
		c-0.4,0-0.8-0.1-1.1-0.4c-0.7-0.6-0.8-1.7-0.2-2.4c2-2.4,4.1-4.9,6.3-7.2c0.6-0.7,1.7-0.8,2.4-0.1c0.7,0.6,0.8,1.7,0.1,2.4
		c-2.1,2.4-4.2,4.7-6.2,7.2C246.7,147.8,246.2,148,245.7,148L245.7,148z M724.5,139c-0.5,0-0.9-0.2-1.3-0.6
		c-2.1-2.3-4.3-4.6-6.5-6.9c-0.7-0.7-0.6-1.8,0-2.4c0.7-0.7,1.8-0.6,2.4,0c2.2,2.3,4.4,4.6,6.5,7c0.6,0.7,0.6,1.8-0.1,2.4
		C725.3,138.9,724.9,139,724.5,139L724.5,139z M258.4,133.8c-0.4,0-0.9-0.2-1.2-0.5c-0.7-0.7-0.7-1.8-0.1-2.4
		c2.2-2.3,4.4-4.6,6.7-6.9c0.7-0.7,1.8-0.7,2.4,0c0.7,0.7,0.7,1.8,0,2.4c-2.2,2.2-4.4,4.5-6.6,6.8
		C259.3,133.6,258.8,133.8,258.4,133.8L258.4,133.8z M711.3,125.3c-0.4,0-0.9-0.2-1.2-0.5c-2.3-2.2-4.5-4.4-6.9-6.5
		c-0.7-0.6-0.7-1.7-0.1-2.4c0.7-0.7,1.7-0.7,2.4-0.1c2.3,2.2,4.6,4.4,6.9,6.6c0.7,0.7,0.7,1.8,0,2.4
		C712.2,125.1,711.7,125.3,711.3,125.3L711.3,125.3z M271.9,120.4c-0.5,0-0.9-0.2-1.3-0.5c-0.7-0.7-0.6-1.8,0.1-2.4
		c2.3-2.2,4.7-4.3,7.1-6.4c0.7-0.6,1.8-0.6,2.4,0.1c0.6,0.7,0.6,1.8-0.2,2.4c-2.4,2.1-4.7,4.2-7,6.4
		C272.7,120.2,272.3,120.4,271.9,120.4L271.9,120.4z M697.3,112.4c-0.4,0-0.8-0.1-1.1-0.4c-2.4-2.1-4.8-4.1-7.2-6.1
		c-0.7-0.6-0.8-1.7-0.2-2.4c0.6-0.7,1.7-0.8,2.4-0.2c2.5,2,4.9,4.1,7.3,6.2c0.7,0.6,0.8,1.7,0.2,2.4
		C698.3,112.2,697.8,112.4,697.3,112.4L697.3,112.4z M286.1,107.8c-0.5,0-1-0.2-1.3-0.6c-0.6-0.7-0.5-1.8,0.2-2.4c2.4-2,4.9-4,7.4-6
		c0.7-0.6,1.8-0.5,2.4,0.3c0.6,0.8,0.5,1.8-0.3,2.4c-2.5,1.9-4.9,3.9-7.4,5.9C286.9,107.7,286.5,107.8,286.1,107.8L286.1,107.8z
		 M682.6,100.3c-0.4,0-0.7-0.1-1.1-0.4c-2.5-1.9-5-3.8-7.6-5.7c-0.8-0.6-0.9-1.6-0.4-2.4c0.6-0.8,1.6-0.9,2.4-0.4
		c2.6,1.9,5.1,3.8,7.7,5.7c0.8,0.6,0.9,1.7,0.3,2.4C683.6,100.1,683.1,100.3,682.6,100.3L682.6,100.3z M301.1,96.1
		c-0.5,0-1.1-0.2-1.4-0.7c-0.6-0.8-0.4-1.9,0.4-2.4c2.6-1.9,5.2-3.7,7.8-5.6c0.8-0.5,1.9-0.3,2.4,0.4c0.5,0.8,0.3,1.9-0.4,2.4
		c-2.6,1.8-5.2,3.6-7.7,5.5C301.8,96,301.5,96.1,301.1,96.1L301.1,96.1z M667.1,89.1c-0.3,0-0.7-0.1-1-0.3c-2.6-1.8-5.2-3.5-7.9-5.2
		c-0.8-0.5-1-1.6-0.5-2.4c0.5-0.8,1.6-1,2.4-0.5c2.7,1.7,5.4,3.5,8,5.3c0.8,0.5,1,1.6,0.5,2.4C668.2,88.9,667.7,89.1,667.1,89.1
		L667.1,89.1z M316.7,85.3c-0.6,0-1.1-0.3-1.5-0.8c-0.5-0.8-0.3-1.9,0.5-2.4c2.7-1.7,5.4-3.4,8.1-5.1c0.8-0.5,1.9-0.2,2.4,0.6
		c0.5,0.8,0.2,1.9-0.6,2.4c-2.7,1.6-5.4,3.3-8,5C317.4,85.2,317.1,85.3,316.7,85.3L316.7,85.3z M651.1,78.9c-0.3,0-0.6-0.1-0.9-0.2
		c-2.7-1.6-5.5-3.2-8.2-4.7c-0.8-0.5-1.1-1.5-0.7-2.4c0.5-0.8,1.5-1.1,2.3-0.7c2.8,1.6,5.6,3.1,8.3,4.8c0.8,0.5,1.1,1.5,0.6,2.4
		C652.2,78.6,651.6,78.9,651.1,78.9L651.1,78.9z M333,75.4c-0.6,0-1.2-0.3-1.5-0.9c-0.5-0.8-0.2-1.9,0.7-2.4
		c2.8-1.6,5.6-3.1,8.4-4.6c0.8-0.4,1.9-0.1,2.3,0.7c0.4,0.8,0.1,1.9-0.7,2.3c-2.8,1.5-5.6,3-8.3,4.5C333.6,75.3,333.3,75.4,333,75.4
		L333,75.4z M634.4,69.7c-0.3,0-0.5-0.1-0.8-0.2c-2.8-1.4-5.6-2.9-8.5-4.2c-0.9-0.4-1.2-1.4-0.8-2.3c0.4-0.9,1.4-1.2,2.3-0.8
		c2.9,1.4,5.8,2.8,8.6,4.3c0.9,0.4,1.2,1.5,0.7,2.3C635.6,69.3,635,69.7,634.4,69.7L634.4,69.7z M349.8,66.6c-0.6,0-1.3-0.4-1.6-1
		c-0.4-0.9-0.1-1.9,0.8-2.3c2.9-1.4,5.7-2.7,8.6-4.1c0.9-0.4,1.9,0,2.3,0.9c0.4,0.9,0,1.9-0.9,2.3c-2.9,1.3-5.7,2.6-8.5,4
		C350.3,66.5,350,66.6,349.8,66.6L349.8,66.6z M617.2,61.4c-0.2,0-0.5,0-0.7-0.1c-2.9-1.3-5.8-2.5-8.7-3.7c-0.9-0.4-1.3-1.4-0.9-2.3
		c0.4-0.9,1.4-1.3,2.3-1c3,1.2,5.9,2.5,8.8,3.7c0.9,0.4,1.3,1.4,0.9,2.3C618.5,61,617.8,61.4,617.2,61.4L617.2,61.4z M367.1,58.8
		c-0.7,0-1.3-0.4-1.6-1.1c-0.4-0.9,0-1.9,0.9-2.3c2.9-1.2,5.9-2.4,8.9-3.5c0.9-0.3,1.9,0.1,2.2,1c0.3,0.9-0.1,1.9-1,2.2
		c-2.9,1.1-5.9,2.3-8.8,3.5C367.5,58.7,367.3,58.8,367.1,58.8L367.1,58.8z M599.5,54.2c-0.2,0-0.4,0-0.6-0.1c-3-1.1-5.9-2.2-9-3.2
		c-0.9-0.3-1.4-1.3-1.1-2.2c0.3-0.9,1.3-1.4,2.2-1.1c3,1,6.1,2.1,9.1,3.2c0.9,0.3,1.4,1.3,1,2.2C600.9,53.8,600.2,54.2,599.5,54.2
		L599.5,54.2z M384.8,52c-0.7,0-1.4-0.4-1.6-1.2c-0.3-0.9,0.2-1.9,1.1-2.2c3-1,6-2,9.1-3c0.9-0.3,1.9,0.2,2.2,1.1
		c0.3,0.9-0.2,1.9-1.1,2.2c-3,0.9-6,1.9-9,3C385.2,51.9,385,52,384.8,52L384.8,52z M581.4,48.1c-0.2,0-0.3,0-0.5-0.1
		c-3-0.9-6-1.8-9.1-2.6c-0.9-0.2-1.5-1.2-1.2-2.1c0.2-0.9,1.2-1.5,2.1-1.2c3.1,0.8,6.2,1.7,9.2,2.6c0.9,0.3,1.4,1.2,1.2,2.2
		C582.8,47.7,582.1,48.1,581.4,48.1L581.4,48.1z M403,46.3c-0.8,0-1.5-0.5-1.7-1.3c-0.3-0.9,0.3-1.9,1.2-2.1
		c3.1-0.9,6.2-1.7,9.3-2.4c0.9-0.2,1.9,0.3,2.1,1.3c0.2,0.9-0.3,1.9-1.3,2.1c-3.1,0.8-6.1,1.6-9.2,2.4
		C403.3,46.3,403.1,46.3,403,46.3L403,46.3z M563,43.2c-0.1,0-0.3,0-0.4,0c-3.1-0.7-6.1-1.4-9.2-2.1c-0.9-0.2-1.5-1.1-1.3-2
		c0.2-0.9,1.1-1.5,2-1.3c3.1,0.6,6.2,1.3,9.3,2.1c0.9,0.2,1.5,1.2,1.3,2.1C564.5,42.6,563.8,43.2,563,43.2L563,43.2z M421.5,41.7
		c-0.8,0-1.5-0.6-1.7-1.4c-0.2-0.9,0.4-1.9,1.3-2.1c3.1-0.7,6.2-1.3,9.4-1.9c0.9-0.2,1.8,0.4,2,1.4c0.2,0.9-0.4,1.8-1.4,2
		c-3.1,0.6-6.2,1.2-9.3,1.9C421.7,41.7,421.6,41.7,421.5,41.7L421.5,41.7z M544.4,39.3c-0.1,0-0.2,0-0.3,0c-3.1-0.5-6.2-1-9.3-1.5
		c-0.9-0.1-1.6-1-1.5-2c0.1-0.9,1-1.6,2-1.5c3.2,0.5,6.3,1,9.4,1.5c0.9,0.2,1.6,1.1,1.4,2C545.9,38.7,545.2,39.3,544.4,39.3
		L544.4,39.3z M440.2,38.2c-0.8,0-1.6-0.6-1.7-1.5c-0.1-0.9,0.5-1.8,1.4-2c3.1-0.5,6.3-0.9,9.5-1.3c0.9-0.1,1.8,0.6,1.9,1.5
		c0.1,0.9-0.6,1.8-1.5,1.9c-3.1,0.4-6.3,0.8-9.4,1.3C440.3,38.2,440.3,38.2,440.2,38.2L440.2,38.2z M525.6,36.6c-0.1,0-0.1,0-0.2,0
		c-3.1-0.4-6.3-0.7-9.4-0.9c-1-0.1-1.7-0.9-1.6-1.9c0.1-1,0.9-1.7,1.9-1.6c3.2,0.3,6.4,0.6,9.5,0.9c1,0.1,1.6,1,1.5,1.9
		C527.2,35.9,526.4,36.6,525.6,36.6L525.6,36.6z M459.1,35.9c-0.9,0-1.6-0.7-1.7-1.6c-0.1-1,0.6-1.8,1.6-1.9
		c3.2-0.3,6.3-0.5,9.5-0.7c1,0,1.8,0.7,1.8,1.6c0.1,1-0.7,1.8-1.6,1.8c-3.2,0.2-6.3,0.4-9.4,0.7C459.2,35.9,459.1,35.9,459.1,35.9
		L459.1,35.9z M506.6,35C506.6,35,506.5,35,506.6,35c-3.2-0.2-6.4-0.3-9.6-0.4c-1,0-1.7-0.8-1.7-1.8c0-0.9,0.8-1.7,1.7-1.7
		c0,0,0,0,0,0c3.2,0.1,6.4,0.2,9.6,0.4c1,0.1,1.7,0.9,1.6,1.8C508.3,34.2,507.5,35,506.6,35L506.6,35z M478.1,34.7
		c-0.9,0-1.7-0.7-1.7-1.7c0-1,0.7-1.8,1.7-1.8c3.2-0.1,6.4-0.2,9.6-0.2c0,0,0,0,0,0c1,0,1.7,0.8,1.7,1.7c0,1-0.8,1.7-1.7,1.7
		C484.4,34.5,481.3,34.6,478.1,34.7C478.1,34.7,478.1,34.7,478.1,34.7L478.1,34.7z"/>
	<path class="st4" d="M117.2,396.9c247.9,28.4,498.3,28.4,746.2,0c6,52.5,12,105,18,157.4C621.5,584,359,584,99.2,554.3
		C105.2,501.8,111.2,449.3,117.2,396.9z"/>
	<g>
		<path class="st3" d="M420.9,329.1c-16.6-29.3-5.3-75.3,29.1-109.7c39-39,93-48.4,120.6-20.8c0,0,0.1,0.1,0.1,0.1
			c-5.5,16.1-23.1,50.2-75.7,68.7C446.6,284.3,428,311.2,420.9,329.1z M578.3,208.7c-4.2,9.7-11.5,22.5-24,35
			c-12.6,12.6-30.5,25-55.9,33.9c-51.5,18-65.8,47.6-69.9,61.9c0.2,0.2,0.4,0.4,0.5,0.6c27.6,27.6,81.6,18.3,120.6-20.8
			C584.5,284.5,595.7,237.9,578.3,208.7z"/>
	</g>
	<g id="star_1_">
		<polygon class="st3" points="798.5,499.3 817.8,510.9 812.7,489 829.7,474.3 807.3,472.3 798.5,451.7 789.8,472.3 767.3,474.3 
			784.4,489 779.3,510.9 		"/>
	</g>
	<g id="star">
		<polygon class="st3" points="159.8,502 179,513.6 173.9,491.7 191,477 168.5,475 159.8,454.4 151,475 128.6,477 145.6,491.7 
			140.5,513.6 		"/>
	</g>
	<g>
		<path d="M312.8,491.4l8.2,2.1c0.1,1.7,0.2,3.1,0.2,4.3c0,6.4-2.3,11.5-7,15.4c-4.6,3.8-10.9,5.7-18.6,5.7c-19.5,0-29.3-11-29.3-33
			c0-10.4,2.9-18.9,8.6-25.4c5.7-6.5,13.1-9.7,22.3-9.7c14.3,0,21.4,6.9,21.4,20.6l-8.2,3.8c0.1-1.9,0.1-3.4,0.1-4.5
			c0-9.7-3.9-14.6-11.7-14.6c-8.2,0-12.4,10.3-12.4,31c0,17.7,4.6,26.6,13.8,26.6c3.8,0,7-1.5,9.5-4.5c2.5-3,3.8-6.8,3.8-11.4
			C313.4,496.4,313.2,494.3,312.8,491.4z"/>
		<path d="M362.5,500.1l7.1,2.1c-0.7,11.2-7.4,16.9-19.9,16.9c-16.2,0-24.3-8.1-24.3-24.3c0-7.9,2.2-14.3,6.5-19.3
			c4.3-5,9.8-7.5,16.6-7.5c14.1,0,21.1,9.1,21.1,27.2h-25.7c0,12.8,3.2,19.1,9.7,19.1c6.1,0,9.1-3.6,9.1-10.8
			C362.6,502.5,362.5,501.3,362.5,500.1z M343.7,489.7h10.5c0-11.3-1.7-17-5.1-17c-3.1,0-4.8,4.2-5.2,12.6L343.7,489.7z"/>
		<path d="M415,481.7l-8.6,1.5c0-7.3-3.4-10.9-10.1-10.9c-4.2,0-6.2,1.7-6.2,5.1c0,2.5,3.6,5.2,10.7,8.1
			c10.9,4.5,16.4,10.2,16.4,17.1c0,11-7,16.5-20.9,16.5c-14.8,0-22.1-5.5-22.1-16.5l9.1-1.8c-0.1,1.1-0.2,2.1-0.2,3
			c0,2.8,1.2,5.3,3.6,7.4c2.4,2.1,5.2,3.1,8.4,3.1c4.3,0,6.4-1.8,6.4-5.4c0-2.4-3.4-5.1-10.3-8c-10.3-4.4-15.5-10.1-15.5-17.1
			c0-4.6,2-8.4,5.9-11.3s9.1-4.4,15.3-4.4C407.9,468,413.9,472.6,415,481.7z"/>
		<path d="M470.5,468v50h-17.6v-7.8c-4.1,5.8-9.3,8.7-15.7,8.7c-8.6,0-12.9-4.2-12.9-12.6v-37.1c5.9-0.3,11.8-0.7,17.6-1.3v37.9
			c0,3.3,1,4.9,3,4.9c5.3,0,7.9-5.7,7.9-17v-24.5C458.7,469,464.6,468.5,470.5,468z"/>
		<path d="M515.4,486.9h-12.1c0.4-1.9,0.8-3.3,1.1-4.2c0.5-1.3,0.7-2.5,0.7-3.6c0-2.1-0.7-3.1-2.2-3.1c-1.1,0-2.2,1.4-3.2,4.1
			c-1,2.7-1.5,5.6-1.5,8.6v29.2h-17.6v-48.7l3.4,0c4.1,0,8.8-0.4,14.2-1.3v8c2.9-5.3,6.4-8,10.5-8c5.7,0,8.5,3.1,8.5,9.4
			c0,1.6-0.3,3.5-0.8,5.7C516.1,483.9,515.8,485.2,515.4,486.9z"/>
		<path d="M557.3,496.2l7.4,2.3l0,2c0,12.4-6.8,18.6-20.3,18.6c-16,0-24.1-8.1-24.1-24.4c0-8.1,2.3-14.6,7-19.5
			c4.7-4.8,10.9-7.3,18.8-7.3c11.3,0,17,5.1,17,15.4l-8.3,4l0.1-4.6c0-7-2.3-10.4-7-10.4c-6.2,0-9.3,6.8-9.3,20.5
			c0,8.4,0.7,14.2,2,17.4s3.8,4.7,7.3,4.7c6.5,0,9.8-4.2,9.8-12.7C557.9,500.8,557.7,498.8,557.3,496.2z"/>
		<path d="M620.1,516.2c-4.3,1.7-8.5,2.5-12.6,2.5c-6.1,0-9.8-1.9-11.2-5.7c-2.9,3.9-7.1,5.9-12.7,5.9c-10.3,0-15.4-4.8-15.4-14.3
			c0-7.2,4.7-12.3,14.1-15.3c8.6-2.7,12.9-6,12.9-9.8c0-5-2.5-7.5-7.4-7.5c-5.7,0-8.6,2.4-8.6,7.2c0,1.5,0.5,3.5,1.4,6l-8.7-1.7
			c-0.2-1.5-0.3-2.9-0.3-4.3c0-7.7,7.1-11.6,21.2-11.6c13.4,0,20.1,3.6,20.1,10.8v29.6c0,3,1,4.5,2.9,4.5c0.6,0,1.5-0.3,2.7-1
			L620.1,516.2z M595.1,488.6c-1.1,1.3-2.4,2.3-3.8,3.1c-3.6,2.1-5.5,5.7-5.5,10.7c0,6.4,1.3,9.7,3.8,9.7c3.7,0,5.5-3.2,5.5-9.6
			V488.6z"/>
		<path d="M648.8,469.2v5.5h-7v43.2h-17.6v-43.2H618v-5.5h6.2v-4.3c0-4,1.4-7.3,4.2-10c2.8-2.6,6.4-4,10.6-4
			c8.5,0,12.8,3.2,12.8,9.6c0,0.5,0,1.1,0,1.8l-8.4,2.9c0.5-1.7,0.7-3,0.7-4c0-3.4-1.2-5.1-3.6-5.1c-2.1,0-3.1,1.5-3.1,4.5
			c0,1.8,1.5,4.7,4.4,8.5H648.8z"/>
		<path d="M689.5,500.1l7.1,2.1c-0.7,11.2-7.4,16.9-19.9,16.9c-16.2,0-24.3-8.1-24.3-24.3c0-7.9,2.2-14.3,6.5-19.3
			c4.3-5,9.8-7.5,16.6-7.5c14.1,0,21.1,9.1,21.1,27.2h-25.7c0,12.8,3.2,19.1,9.7,19.1c6.1,0,9.1-3.6,9.1-10.8
			C689.6,502.5,689.5,501.3,689.5,500.1z M674.2,463.5h-4.2l6.9-12.8h13.9L674.2,463.5z M670.7,489.7h10.5c0-11.3-1.7-17-5.1-17
			c-3.1,0-4.8,4.2-5.2,12.6L670.7,489.7z"/>
	</g>
</g>
</svg>
