<?xml version="1.0" encoding="utf-8"?>
<!-- Generator: Adobe Illustrator 21.0.0, SVG Export Plug-In . SVG Version: 6.00 Build 0)  -->
<svg version="1.1" id="Capa_1" xmlns="http://www.w3.org/2000/svg" xmlns:xlink="http://www.w3.org/1999/xlink" x="0px" y="0px"
	 viewBox="0 0 299.3 299.3" style="enable-background:new 0 0 299.3 299.3;" xml:space="preserve">
<style type="text/css">
	.st0{fill:none;stroke:#FFFFFF;stroke-width:7;stroke-miterlimit:10;}
	.st1{fill:#FFFFFF;stroke:#FFFFFF;stroke-miterlimit:10;}
</style>
<image style="display:none;overflow:visible;" width="100" height="100" xlink:href="LGTST2.png"  transform="matrix(3.6999 0 0 3.6999 -43 -37.5335)">
</image>
<g>
	<path class="st0" d="M270.3,11.5c-2.5,10.2-11.8,17.9-22.8,17.9h-197c-11,0-20.3-7.6-22.8-17.9C17.3,13.9,9.5,23.2,9.5,34.3v232
		c0,11.2,8,20.7,18.6,23c2.3-10.5,11.7-18.5,22.9-18.5h197c11.1,0,20.5,7.8,22.9,18.2c10.1-2.6,17.6-11.9,17.6-22.7v-232
		C288.5,23.2,280.7,13.9,270.3,11.5z"/>
</g>
<g>
	<path class="st1" d="M204.8,137c-1.4,0-2.8,0.1-4.1,0.6s-2.3,1.7-2.2,3c-1.2-1.9-2.4-3.9-3.6-5.8c-1.5,0.5-2.9,1-4.4,1.5
		c-3.2-4.8-5.1-10.4-5.5-16.1c-4.5,0.9-7,6.4-4.6,10.1c0.1,0.1,0.1,0.1,0.1,0.2c-0.1-0.1-0.1-0.2-0.1-0.2c-0.4-0.3-1.2,0.1-1.6,0.6
		c-0.9,1.2-1.8,2.4-2.8,3.6c0.5,2.6,0.3,5.4-0.7,7.9c0.5-0.4,1-0.9,1.6-1.3c1.3,4.5,0.4,9.5-2.2,13.5c-1-2.9-2.1-5.8-3.1-8.7
		c-1.1,0.4-2.1,1.3-2.6,2.3c-0.2-8.3-0.5-16.9-4.5-24.3c-1.8,1.8-3.5,3.8-5.1,5.8c-0.1-0.4-0.2-0.9-0.3-1.3c-2,0.8-2.5,3.2-2.5,5.2
		s0.1,4.3-1.3,5.8c-1.1-2.5-2.1-5.1-3.1-7.7c-1,0.1-2-1-1.6-1.9c-1,0.8-2.4-0.5-2.8-1.7c-0.4-1.2-0.8-2.7-2.1-2.8
		c-0.9,5.1-2.8,10.1-5.6,14.6c-3.1-3.4-6.2-6.8-9.3-10.2c-0.3,5.7-1.2,11.4-2.7,17c-4.2-4.3-6.3-10.2-5.8-16c0.1-1,0.3-2.1-0.2-3.1
		c-0.5-1.2-1.8-1.9-2.9-2.8c-2.4-2-3.5-5.2-2.8-8.1c-1.8,3.1-2.7,6.7-1.7,10.1c0.3,0.9,0.6,1.7,0.7,2.6c0.5,3.7-3.3,7.2-2.2,10.8
		c-3.2,0.1-5.7-2.6-7.5-5.1c-1.8-2.5-3.8-5.4-7-5.9c0.3,1.5-1.7,2.3-3.3,2.4c-1.6,0.1-3.6,0.1-4.2,1.5c-0.2,0.5-0.2,1.1-0.3,1.6
		c-0.4,1.8-2.6,2.8-4.4,3.4c-0.6,0.2-1.3,0.4-1.9,0.1c-0.4-0.2-0.6-0.6-0.8-0.9c-0.9-1.5-0.8-2.7-1.7-4.2v64.4h136v-60.6
		C213.6,136.8,209.2,136.9,204.8,137z"/>
	<path class="st1" d="M86.4,135.7c0.3,0,0.5,0.1,0.8,0c0.2-0.1,0.3-0.3,0.4-0.4c1.4-1.9,2.8-3.8,4.1-5.8c-0.1,0.3,0.6,0.2,0.8-0.1
		c1.4-1.8,2.4-3.8,3.2-5.9c0.2,0.6,0.4,1.3,0.6,1.9c1.5-1.3,2.7-2.9,3.5-4.7c1,2.3,2.6,4.4,4.7,6c2.1-2.9,4.3-5.9,5-9.4
		c0.7-4-0.7-8.2,0.9-11.9c0.4,0.7,0.9,1.4,1.3,2.1c1.4-3.8,2.3-7.9,2.4-12c0.2-5.4-0.8-11.1,1.2-16.2c0.9,4.2,1.4,8.3,1.3,12.6
		c0,1.1-0.1,2.2,0.4,3.2c0.3,0.7,0.9,1.2,1.3,1.8c1.9,2.3,2.9,5.3,2.8,8.2c-0.1,2.6,3.5,3.4,5.9,4.6c2.4,1.3,4.9,3.3,4.7,5.8
		c-0.1,1.1-0.7,2.2-0.2,3.2c0.6,1,2,1.2,2.9,1.9c1.3,1,1.2,2.9,1.7,4.4c0.6,2.1,2.6,3.9,4.9,4.5c3-3.7,0.5-9.3,2.4-13.6
		c0.2,0.7,0.5,1.4,1,2c0-2.7,0.3-5.5,0.8-8.2c0.3,0.7,0.7,1.3,1,2c1.4-3.5,2.2-7.2,2.5-11c-0.2-0.1-0.2-0.5,0-0.3c0,0.1,0,0.2,0,0.3
		c0,0,0,0,0.1,0c0.3,0,0.3-0.3,0.4-0.6c0.9-6.7,1.7-13.5,2.6-20.2c0.5,4.5,1.1,9,1.6,13.5c0.8-0.9,1.4-1.9,1.8-2.9
		c0.2,6,1.5,12,3.8,17.6c0.6-1.1,1.4-2.1,2.4-2.9c-0.8,4-0.7,8.1,0.3,12c2.9-6.2,5.2-12.6,6.9-19.2c1.7,6.4,3,12.9,4,19.4
		c1.7,0.8,3,2.2,3.6,3.8c4.5-7.6,2.5-17.4,6.1-25.5c0.1,0.9,0.2,1.8,0.3,2.7c0.6-4.1,1.2-8.2,1.8-12.3c0.9,8.6,1.8,17.1,3,25.6
		c0.6-0.9,1.1-1.8,1.7-2.7c0.2,3.8,1.2,7.5,2.9,11c0.5-0.5,1-1,1.5-1.5c1.3,4.4,2.7,8.8,4,13.2c0.9-0.8,1.8-1.5,2.6-2.3
		c1.5,2.8,5.2,3.9,8.6,3.9c3,0,6-0.6,9-0.5V61.3H82v71.6C83,134.4,84.6,135.4,86.4,135.7z"/>
</g>
<g>
	<path class="st1" d="M236.8,280.3H60.2c-7.6,0-14.2,4.5-17.3,11h211.3C251.1,284.9,244.5,280.3,236.8,280.3z"/>
</g>
<g>
	<path class="st1" d="M61.2,19.3h176.7c7.6,0,14.2-4.5,17.3-11H43.9C46.9,14.8,53.5,19.3,61.2,19.3z"/>
</g>
<g>
	<path class="st1" d="M128.5,226c0,0.4,0,0.7,0,1c0,0.3-0.1,0.5-0.1,0.6c-0.1,0.2-0.1,0.3-0.2,0.3s-0.2,0.1-0.3,0.1
		c-0.2,0-0.4-0.1-0.8-0.3c-0.4-0.2-0.9-0.5-1.5-0.7s-1.3-0.5-2.2-0.7s-1.8-0.3-2.9-0.3c-1.2,0-2.3,0.2-3.2,0.6c-1,0.4-1.8,1-2.5,1.8
		c-0.7,0.8-1.2,1.7-1.6,2.7c-0.4,1.1-0.6,2.2-0.6,3.5c0,1.4,0.2,2.7,0.6,3.7s0.9,2,1.6,2.7c0.7,0.7,1.5,1.3,2.4,1.6s2,0.6,3.1,0.6
		c0.6,0,1.1-0.1,1.7-0.2c0.5-0.1,1.1-0.3,1.5-0.6v-5.7h-4.7c-0.2,0-0.4-0.1-0.5-0.4c-0.1-0.3-0.2-0.8-0.2-1.5c0-0.4,0-0.7,0-0.9
		s0.1-0.4,0.1-0.6c0.1-0.1,0.1-0.3,0.2-0.3c0.1-0.1,0.2-0.1,0.3-0.1h8.3c0.2,0,0.4,0,0.5,0.1c0.2,0.1,0.3,0.2,0.4,0.3
		c0.1,0.1,0.2,0.3,0.3,0.5c0.1,0.2,0.1,0.4,0.1,0.7v9.8c0,0.4-0.1,0.7-0.2,1c-0.1,0.3-0.4,0.5-0.8,0.7c-0.4,0.2-0.9,0.3-1.5,0.5
		c-0.6,0.2-1.2,0.3-1.9,0.5c-0.7,0.1-1.3,0.2-2,0.3c-0.7,0.1-1.3,0.1-2,0.1c-2,0-3.7-0.3-5.3-0.8c-1.6-0.6-2.9-1.4-4-2.5
		c-1.1-1.1-1.9-2.4-2.5-3.9c-0.6-1.5-0.9-3.3-0.9-5.2c0-2,0.3-3.8,0.9-5.4c0.6-1.6,1.5-3,2.6-4.1c1.1-1.1,2.5-2,4-2.6
		c1.6-0.6,3.3-0.9,5.3-0.9c1.1,0,2,0.1,2.9,0.2c0.9,0.1,1.6,0.3,2.3,0.5c0.7,0.2,1.2,0.4,1.6,0.7c0.4,0.2,0.7,0.5,0.9,0.6
		c0.2,0.2,0.3,0.4,0.4,0.8C128.4,224.9,128.5,225.4,128.5,226z"/>
	<path class="st1" d="M149.8,224.3c0,0.4,0,0.7,0,0.9c0,0.3-0.1,0.5-0.1,0.6c-0.1,0.2-0.1,0.3-0.2,0.4s-0.2,0.1-0.3,0.1h-6.2v19.9
		c0,0.1,0,0.2-0.1,0.3s-0.2,0.2-0.4,0.2c-0.2,0.1-0.4,0.1-0.8,0.2s-0.7,0.1-1.2,0.1s-0.9,0-1.2-0.1s-0.6-0.1-0.8-0.2
		c-0.2-0.1-0.3-0.1-0.4-0.2s-0.1-0.2-0.1-0.3v-19.9h-6.2c-0.1,0-0.2,0-0.3-0.1s-0.2-0.2-0.2-0.4c-0.1-0.2-0.1-0.4-0.1-0.6
		c0-0.3,0-0.6,0-0.9c0-0.4,0-0.7,0-1c0-0.3,0.1-0.5,0.1-0.6c0.1-0.2,0.1-0.3,0.2-0.3c0.1-0.1,0.2-0.1,0.3-0.1h17.4
		c0.1,0,0.2,0,0.3,0.1c0.1,0.1,0.2,0.2,0.2,0.3c0.1,0.2,0.1,0.4,0.1,0.6C149.8,223.6,149.8,223.9,149.8,224.3z"/>
	<path class="st1" d="M167.2,239.5c0,1.3-0.2,2.4-0.7,3.4c-0.5,1-1.1,1.8-2,2.4c-0.8,0.7-1.8,1.1-2.9,1.5c-1.1,0.3-2.3,0.5-3.5,0.5
		c-0.9,0-1.6-0.1-2.4-0.2c-0.7-0.1-1.4-0.3-1.9-0.5c-0.6-0.2-1-0.4-1.4-0.6c-0.4-0.2-0.6-0.4-0.8-0.6c-0.2-0.2-0.3-0.4-0.4-0.7
		c-0.1-0.3-0.1-0.8-0.1-1.3c0-0.4,0-0.7,0-1s0.1-0.5,0.1-0.6s0.1-0.3,0.2-0.4c0.1-0.1,0.2-0.1,0.3-0.1c0.2,0,0.4,0.1,0.8,0.3
		c0.3,0.2,0.7,0.4,1.2,0.7c0.5,0.3,1.1,0.5,1.8,0.7c0.7,0.2,1.5,0.3,2.4,0.3c0.6,0,1.2-0.1,1.6-0.2s0.9-0.4,1.2-0.6s0.6-0.6,0.8-1
		c0.2-0.4,0.3-0.8,0.3-1.3c0-0.6-0.2-1-0.5-1.4c-0.3-0.4-0.7-0.8-1.2-1.1c-0.5-0.3-1-0.6-1.7-0.9c-0.6-0.3-1.3-0.6-1.9-0.9
		c-0.7-0.3-1.3-0.7-1.9-1c-0.6-0.4-1.2-0.8-1.7-1.4s-0.9-1.2-1.2-1.9c-0.3-0.7-0.5-1.6-0.5-2.6c0-1.2,0.2-2.2,0.7-3.1
		c0.4-0.9,1-1.6,1.8-2.2c0.7-0.6,1.6-1,2.6-1.3s2.1-0.4,3.2-0.4c0.6,0,1.2,0,1.8,0.1c0.6,0.1,1.1,0.2,1.6,0.4s1,0.3,1.4,0.5
		s0.7,0.3,0.8,0.5s0.2,0.2,0.3,0.3c0,0.1,0.1,0.2,0.1,0.4c0,0.1,0.1,0.3,0.1,0.6c0,0.2,0,0.5,0,0.8c0,0.4,0,0.7,0,0.9
		s-0.1,0.5-0.1,0.6s-0.1,0.3-0.2,0.4s-0.2,0.1-0.3,0.1s-0.4-0.1-0.7-0.3s-0.7-0.4-1.1-0.6c-0.4-0.2-1-0.4-1.5-0.6
		c-0.6-0.2-1.2-0.3-1.9-0.3c-0.5,0-1,0.1-1.4,0.2c-0.4,0.1-0.7,0.3-1,0.6c-0.3,0.2-0.5,0.5-0.6,0.8s-0.2,0.7-0.2,1
		c0,0.5,0.1,1,0.4,1.4c0.3,0.4,0.7,0.8,1.2,1.1c0.5,0.3,1.1,0.6,1.7,0.9c0.6,0.3,1.3,0.6,1.9,0.9c0.7,0.3,1.3,0.7,1.9,1
		s1.2,0.9,1.7,1.4c0.5,0.5,0.9,1.2,1.2,1.9C167.1,237.6,167.2,238.5,167.2,239.5z"/>
	<path class="st1" d="M187.2,224.3c0,0.4,0,0.7,0,0.9c0,0.3-0.1,0.5-0.1,0.6c-0.1,0.2-0.1,0.3-0.2,0.4s-0.2,0.1-0.3,0.1h-6.2v19.9
		c0,0.1,0,0.2-0.1,0.3s-0.2,0.2-0.4,0.2c-0.2,0.1-0.4,0.1-0.8,0.2s-0.7,0.1-1.2,0.1s-0.9,0-1.2-0.1s-0.6-0.1-0.8-0.2
		c-0.2-0.1-0.3-0.1-0.4-0.2s-0.1-0.2-0.1-0.3v-19.9H169c-0.1,0-0.2,0-0.3-0.1s-0.2-0.2-0.2-0.4c-0.1-0.2-0.1-0.4-0.1-0.6
		c0-0.3,0-0.6,0-0.9c0-0.4,0-0.7,0-1c0-0.3,0.1-0.5,0.1-0.6c0.1-0.2,0.1-0.3,0.2-0.3c0.1-0.1,0.2-0.1,0.3-0.1h17.4
		c0.1,0,0.2,0,0.3,0.1c0.1,0.1,0.2,0.2,0.2,0.3c0.1,0.2,0.1,0.4,0.1,0.6C187.1,223.6,187.2,223.9,187.2,224.3z"/>
</g>
</svg>
