<?xml version="1.0" encoding="utf-8"?>
<!-- Generator: Adobe Illustrator 21.0.0, SVG Export Plug-In . SVG Version: 6.00 Build 0)  -->
<svg version="1.1" id="Capa_1" xmlns="http://www.w3.org/2000/svg" xmlns:xlink="http://www.w3.org/1999/xlink" x="0px" y="0px"
	 viewBox="0 0 1320.1 1320.1" style="enable-background:new 0 0 1320.1 1320.1;" xml:space="preserve">
<style type="text/css">
	.st0{fill:#0E578A;}
</style>
<g>
	<g>
		<path class="st0" d="M814.5,665.8H571.7L450.3,455.5l121.4-210.3h242.9l121.4,210.3L814.5,665.8z M582.2,647.6H804L915,455.5
			L804,263.3H582.2L471.2,455.5L582.2,647.6z"/>
	</g>
	<g>
		<g>
			<path class="st0" d="M437.5,1304.4H194.7L73.3,1094.1l121.4-210.3h242.9l121.4,210.3L437.5,1304.4z M205.2,1286.3H427L538,1094.1
				L427,902H205.2L94.2,1094.1L205.2,1286.3z"/>
		</g>
	</g>
	<g>
		<g>
			<path class="st0" d="M437.5,876.4H194.7L73.3,666.1l121.4-210.3h242.9l121.4,210.3L437.5,876.4z M205.2,858.3H427L538,666.1
				L427,474H205.2L94.2,666.1L205.2,858.3z"/>
		</g>
		<g>
			<g>
				<path class="st0" d="M441.5,443.5H198.7L77.3,233.2L198.7,22.9h242.9l121.4,210.3L441.5,443.5z M209.2,425.4H431L542,233.2
					L431,41.1H209.2L98.2,233.2L209.2,425.4z"/>
			</g>
		</g>
	</g>
	<g>
		<g>
			<path class="st0" d="M1194.5,881.4H951.7L830.3,671.1l121.4-210.3h242.9l121.4,210.3L1194.5,881.4z M962.2,863.3H1184L1295,671.1
				L1184,479H962.2L851.2,671.1L962.2,863.3z"/>
		</g>
	</g>
	<g>
		<g>
			<path class="st0" d="M814.5,1095.4H571.7L450.3,885.1l121.4-210.3h242.9l121.4,210.3L814.5,1095.4z M582.2,1077.3H804L915,885.1
				L804,693H582.2L471.2,885.1L582.2,1077.3z"/>
		</g>
	</g>
</g>
<g>
	<path class="st0" d="M833.3,425.5c-1-19.6-9.3-38-23.3-51.8c-14.2-14-32.7-21.7-52-21.7c-28.8,0-49.8,23-61.2,35.3
		c-2.4,2.6-5,5.5-6.5,6.6c-1.2-1.1-3.3-3.5-5.3-5.7c-11.1-12.7-31.8-36.2-62.6-36.2c-19.4,0-37.9,7.7-52,21.7
		c-14,13.8-22.3,32.2-23.3,51.8c-0.7,12.4,1.2,24,5.7,35.3l0.8,2.1l38.5,0h0.1c3.8,0,7.5,1.3,9.8,3.5l26.9,25.8l19.5-57.3
		c1.6-4.6,5.6-7.7,10.4-7.8l0.2,0c4.6,0,8.7,2.9,10.4,7.5l26.9,72.5l22.9-72c1.5-4.7,5.5-7.8,10.2-8c4.8-0.2,8.9,2.6,10.8,7.2
		l13.1,32.3l17.1-23.7c2.5-3.4,6.6-5.6,10.8-5.6h52.1l0.1-3C833.5,431.3,833.5,428.4,833.3,425.5z"/>
	<path class="st0" d="M760,493.3c-2.4,3.4-6.6,5.3-10.6,4.8c-4.1-0.5-7.6-3.2-9.2-7.1l-9.2-22.8l-23.3,73.3c-1.5,4.7-5.5,7.9-10.3,8
		l-0.3,0c-4.7,0-8.7-2.9-10.4-7.5l-27.3-73.4l-15.2,44.7c-1.3,3.8-4.3,6.6-8.1,7.6c-3.8,0.9-7.8-0.2-10.7-2.9l-35.8-34.3l-24.9,0.1
		l4.4,5.3c26,31.5,102.1,95.2,121.3,95.2c13.8,0,52.1-31,63.6-40.5c29-24,53.7-48.8,63.1-63.1c4-6.1,7.2-11.9,9.6-17.6l1.9-4.6
		h-43.4L760,493.3z"/>
</g>
<path class="st0" d="M427.2,643.5c-19.5-42.5-43.6-67.9-64.7-67.9c-4.2,0-8.1,1.1-11.6,3.2c-17.1,10.5-17.8,43.3-17.9,46.9
	c0,1.1-0.3,10.2-0.5,22.8l-6.9-2.5v-94.8c0-2.6-2.1-4.8-4.8-4.8h-9.7c-2.6,0-4.8,2.1-4.8,4.8v94.8l-6.9,2.5
	c-0.2-12.6-0.4-21.6-0.5-22.7c0-3.7-0.8-36.5-17.9-47c-3.4-2.1-7.3-3.2-11.6-3.2c-21.1,0-45.3,25.4-64.7,67.9
	c-25.8,56.3-3,133.1-2,136.3c0.6,2,2.5,3.4,4.6,3.4c0.4,0,0.7,0,1.1-0.1c0.8-0.2,20.9-5,41.8-12.6c29.8-10.9,45.2-21.6,47.2-32.7
	c2.4-13.7,2.4-51.3,2.1-79.2l13-4.8h6.7l13,4.8c-0.3,28-0.2,65.6,2.1,79.2c1.9,11.1,17.4,21.8,47.2,32.7
	c20.9,7.6,40.9,12.4,41.8,12.6c0.4,0.1,0.7,0.1,1.1,0.1c2.1,0,3.9-1.3,4.6-3.4C430.1,776.6,452.9,699.8,427.2,643.5z M285.9,664.9
	l-34,17.6v14.3l2.6,7.9l6.5,6.3c1.9,1.8,1.9,4.9,0.1,6.7c-0.9,1-2.2,1.5-3.4,1.5c-1.2,0-2.4-0.4-3.3-1.3l-7-6.8l-7.9,8.8
	c-0.9,1-2.2,1.6-3.5,1.6c-1.1,0-2.3-0.4-3.2-1.2c-2-1.8-2.1-4.8-0.3-6.7l10-11v-14.9l-18.7,9.7c-0.7,0.4-1.4,0.5-2.2,0.5
	c-1.7,0-3.4-0.9-4.2-2.6c-1.2-2.3-0.3-5.2,2-6.4l4.2-2.2l-7.5-6c-2.1-1.6-2.4-4.6-0.8-6.7c1.6-2.1,4.6-2.4,6.7-0.8l10.8,8.6
	l26.1-13.5l-22.4-17c-2.1-1.6-2.5-4.6-0.9-6.7c1.6-2.1,4.6-2.5,6.7-0.9l7.2,5.5l0.6-5.5c0.3-2.6,2.6-4.5,5.3-4.2
	c2.6,0.3,4.5,2.6,4.2,5.3l-1.2,11.2l9.9,7.5l13.3-6.9c2.3-1.2,5.2-0.3,6.4,2C289.2,660.8,288.3,663.7,285.9,664.9z M416.2,680.5
	l-7.5,6l4.2,2.2c2.3,1.2,3.3,4.1,2,6.4c-0.8,1.6-2.5,2.6-4.2,2.6c-0.7,0-1.5-0.2-2.2-0.5l-18.7-9.7v14.9l10,11c1.8,2,1.6,5-0.3,6.7
	c-0.9,0.8-2.1,1.2-3.2,1.2c-1.3,0-2.6-0.5-3.5-1.6l-7.9-8.8l-7,6.8c-0.9,0.9-2.1,1.3-3.3,1.3c-1.2,0-2.5-0.5-3.4-1.5
	c-1.8-1.9-1.8-4.9,0.1-6.7l6.5-6.3l2.6-7.9v-14.3l-34-17.6c-2.3-1.2-3.3-4.1-2-6.4s4.1-3.3,6.4-2l13.3,6.9l9.9-7.5l-1.2-11.2
	c-0.3-2.6,1.6-5,4.2-5.3c2.6-0.3,5,1.6,5.3,4.2l0.6,5.5l7.2-5.5c2.1-1.6,5.1-1.2,6.7,0.9c1.6,2.1,1.2,5.1-0.9,6.7l-22.4,17
	l26.1,13.5l10.8-8.6c2.1-1.6,5.1-1.3,6.7,0.8C418.6,675.9,418.2,678.9,416.2,680.5z"/>
<g>
	<g>
		<path class="st0" d="M278.6,1130l2.1-10.6c4-20.6,14.6-48.7,41.9-65.3l10.5-6.4l-64.7-39.6c-7.7-4.7-16.6-7.3-25.7-7.3
			c-17.3,0-33.1,8.8-42.1,23.6c-14.2,23.2-6.9,53.7,16.4,67.9L278.6,1130z M213.4,1032.2c6.3-10.3,17.2-16.4,29.3-16.4
			c6.3,0,12.5,1.7,17.9,5L305,1048c-21.4,17-31.7,40.3-36.6,58l-43.6-26.7C208.6,1069.5,203.5,1048.3,213.4,1032.2z"/>
		<path class="st0" d="M402.3,1092.3l-57.9-35.4l-1.1,0.5c-6.7,2.9-12.5,6.5-17.7,10.5l55.7,34c2.1,1.3,2.8,4,1.5,6.2
			c-0.8,1.4-2.3,2.1-3.8,2.1c-0.8,0-1.6-0.2-2.3-0.7c0,0-57.2-35.3-57.5-36.1c-20.4,20-26.2,47.2-27.7,60.2l-0.2,1.4l61.7,37.7
			c7.4,4.5,15.9,6.9,24.6,6.9c16.6,0,31.6-8.4,40.3-22.6C431.5,1134.9,424.5,1105.8,402.3,1092.3z"/>
	</g>
</g>
<path class="st0" d="M1185.6,587.7l-33.7-33.7c-3-3-7.9-3-10.9,0c-3,3-3,7.9,0,10.9l2.8,2.8l-31.9,31.9l-7.4-7.4
	c-1.4-1.4-3.4-2.3-5.5-2.3c-2,0-4,0.8-5.5,2.3l-98.5,98.5c-10,10-10,26.2,0,36.2l3.3,3.3l-37.3,37.3c-3,3-3,7.9,0,10.9
	c1.5,1.5,3.5,2.3,5.5,2.3s3.9-0.8,5.5-2.3l37.3-37.3l3.3,3.3c5,5,11.5,7.5,18.1,7.5c6.6,0,13.1-2.5,18.1-7.5l98.5-98.5
	c1.4-1.4,2.3-3.4,2.3-5.5c0-2-0.8-4-2.3-5.5l-7.4-7.4l31.9-31.9l2.8,2.8c1.5,1.5,3.5,2.3,5.5,2.3c2,0,3.9-0.8,5.5-2.3
	C1188.6,595.6,1188.6,590.7,1185.6,587.7z M1037.9,733.5c-4,4-10.4,4-14.4,0l-17.5-17.5c-4-4-4-10.4,0-14.4l9.2-9.2l8.3,8.3
	c1.1,1.1,2.4,1.6,3.8,1.6s2.8-0.5,3.8-1.6c2.1-2.1,2.1-5.5,0-7.6l-8.3-8.3l9.5-9.5l8.3,8.3c1.1,1.1,2.4,1.6,3.8,1.6
	c1.4,0,2.8-0.5,3.8-1.6c2.1-2.1,2.1-5.5,0-7.6l-8.3-8.3l9.5-9.5l8.3,8.3c1.1,1.1,2.4,1.6,3.8,1.6c1.4,0,2.8-0.5,3.8-1.6
	c2.1-2.1,2.1-5.5,0-7.6l-8.3-8.3l7.8-7.8l31.9,31.9L1037.9,733.5z M1107.7,663.7l-31.9-31.9l23.3-23.3l31.9,31.9L1107.7,663.7z
	 M1129.1,616.7l-6.2-6.2l31.9-31.9l6.2,6.2L1129.1,616.7z"/>
<g>
	<path class="st0" d="M810.7,806h-73v-17c0-10.8-8.8-19.6-19.6-19.6h-43c-10.8,0-19.6,8.8-19.6,19.6v17h-73c-6.6,0-12,5.4-12,12
		v153.6c0,6.6,5.4,12,12,12h228.2c6.6,0,12-5.4,12-12V818C822.7,811.4,817.3,806,810.7,806z M675.7,789.6h41.8V806h-41.8
		L675.7,789.6L675.7,789.6z M696.6,967.3c-40,0-72.5-32.5-72.5-72.5s32.5-72.5,72.5-72.5c40,0,72.5,32.5,72.5,72.5
		S736.7,967.3,696.6,967.3z"/>
	<path class="st0" d="M733.2,877.6h-19.5v-19.5c0-5.3-4.3-9.5-9.5-9.5H689c-5.3,0-9.5,4.3-9.5,9.5v19.5H660c-5.3,0-9.5,4.3-9.5,9.5
		v15.2c0,5.3,4.3,9.5,9.5,9.5h19.5v19.5c0,5.3,4.3,9.5,9.5,9.5h15.2c5.3,0,9.5-4.3,9.5-9.5v-19.5h19.5c5.3,0,9.5-4.3,9.5-9.5v-15.2
		C742.7,881.9,738.5,877.6,733.2,877.6z"/>
</g>
<g>
	<g>
		<path class="st0" d="M436,224.5c0-20.1-16.4-36.5-36.6-36.5c-20.1,0-36.6,16.4-36.6,36.5c0,18.1,13.2,33.1,30.4,36v38.4
			c0,29.9-24.3,54.2-54.2,54.2S285,328.7,285,298.8l-0.1-43.9c14.2-1.9,28-10.2,40.4-24.3c1.8-2.1,2.4-4.8,2-7.3
			c16.1-21.3,26.1-50.3,26.1-72.6c0-34.4-15.4-38-40.9-43.8l0-0.1c-1.6-3.2-4.7-5.4-8.6-5.4c-5.4,0-9.8,4.4-9.8,9.7
			c0,5.4,4.4,9.8,9.8,9.8c2.1,0,4.1-0.9,5.7-2.1l0.2,0.1c24.8,5.7,31.4,7.2,31.4,31.9c0,19.6-9.3,45.9-23.5,64.8
			c-2.3,0.1-4.7,1.2-6.4,3.1c-7.2,8.4-18.8,18.4-32.5,18.4c-13.7,0-25.2-9.9-32.5-18.3c-1.7-1.9-4.1-3-6.4-3.1
			c-14.2-19-23.5-45.3-23.5-64.9c0-24.7,6.6-26.3,31.5-32l0.1-0.1c1.7,1.3,3.6,2.2,5.8,2.2c5.4,0,9.8-4.4,9.8-9.8
			c0-5.3-4.4-9.7-9.8-9.7c-3.8,0-7,2.3-8.7,5.4l0,0c-25.5,5.9-41,9.4-41,43.9c0,22.3,10,51.4,26.3,72.7c-0.3,2.6,0.2,5.2,2.1,7.3
			c12.3,14.1,26,22.3,40.2,24.2l0,43.9c0,36.6,29.8,66.4,66.4,66.4s66.3-29.8,66.3-66.4v-38.4C422.7,257.6,436,242.6,436,224.5z
			 M399.4,248.9c-13.4,0-24.4-10.9-24.4-24.4c0-13.4,11-24.4,24.4-24.4c13.4,0,24.3,10.9,24.3,24.4
			C423.8,238,412.9,248.9,399.4,248.9z"/>
		<path class="st0" d="M399.4,206.3c-10.1,0-18.3,8.2-18.3,18.2c0,10.1,8.2,18.3,18.3,18.3c10.1,0,18.3-8.1,18.3-18.3
			C417.7,214.4,409.5,206.3,399.4,206.3z"/>
	</g>
</g>
</svg>
