<?xml version="1.0" encoding="utf-8"?>
<!-- Generator: Adobe Illustrator 21.0.0, SVG Export Plug-In . SVG Version: 6.00 Build 0)  -->
<svg version="1.1" xmlns="http://www.w3.org/2000/svg" xmlns:xlink="http://www.w3.org/1999/xlink" x="0px" y="0px"
	 viewBox="0 0 1396 458" style="enable-background:new 0 0 1396 458;" xml:space="preserve">
<style type="text/css">
	.st0{display:none;}
	.st1{fill:#F1C40F;}
	.st2{fill:none;}
	.st3{fill:none;stroke:#8CC63F;stroke-miterlimit:10;}
	.st4{fill:#8CC63F;}
	.st5{fill-rule:evenodd;clip-rule:evenodd;fill:#F1C40F;}
</style>
<g id="boceto" class="st0">
	
		<image style="display:inline;overflow:visible;opacity:0.5;" width="671" height="230" xlink:href="as.jpg"  transform="matrix(1.9881 0 0 1.9881 12 6.2295)">
	</image>
</g>
<g id="cup">
	<g>
		<path class="st1" d="M1339.2,377.6c0,0-0.6,0.5-1.7,1.5c-0.6,0.5-1.3,1.1-2.2,1.7c-0.9,0.6-1.9,1.4-3.1,2.1
			c-1.2,0.7-2.5,1.5-4,2.3c-0.8,0.4-1.5,0.8-2.3,1.2c-0.8,0.4-1.7,0.9-2.5,1.2c-3.6,1.6-7.6,3.2-12.2,4.7c-1.1,0.4-2.3,0.7-3.5,1.1
			c-1.2,0.3-2.4,0.7-3.7,1c-2.5,0.7-5.1,1.3-7.7,1.9c-1.3,0.3-2.7,0.6-4.1,0.9c-1.4,0.3-2.8,0.6-4.2,0.8c-1.4,0.2-2.8,0.5-4.3,0.7
			c-1.4,0.2-2.9,0.5-4.4,0.7c-1.5,0.2-3,0.4-4.5,0.6c-1.5,0.2-3,0.3-4.5,0.5c-1.5,0.2-3.1,0.3-4.6,0.5c-1.5,0.1-3.1,0.2-4.7,0.3
			c-1.6,0.1-3.1,0.2-4.7,0.3c-1.6,0.1-3.2,0.1-4.7,0.2c-3.2,0.1-6.3,0.1-9.5,0.2l-4.8-0.1c-1.6,0-3.1,0-4.7-0.1
			c-3.2-0.1-6.4-0.2-9.5-0.5c-1.6-0.1-3.1-0.2-4.7-0.3c-1.5-0.1-3.1-0.3-4.6-0.5c-3.1-0.3-6.1-0.7-9-1.1c-1.5-0.2-2.9-0.4-4.4-0.7
			c-1.4-0.2-2.9-0.5-4.3-0.7c-1.4-0.3-2.8-0.6-4.2-0.8c-1.4-0.3-2.7-0.5-4.1-0.9c-2.7-0.7-5.3-1.2-7.7-1.9c-1.2-0.3-2.5-0.7-3.7-1
			c-1.2-0.4-2.3-0.8-3.5-1.1c-4.6-1.5-8.6-3.1-12.2-4.7c-0.9-0.4-1.7-0.8-2.5-1.2c-0.8-0.4-1.6-0.8-2.3-1.2c-1.5-0.8-2.8-1.6-4-2.3
			c-1.2-0.7-2.2-1.5-3.1-2.1c-0.9-0.6-1.6-1.2-2.2-1.7c-1.1-0.9-1.7-1.5-1.7-1.5s0.7,0.4,2,1.1c1.2,0.8,3.2,1.6,5.7,2.7
			c1.3,0.5,2.7,1.1,4.2,1.6c1.6,0.5,3.2,1.1,5,1.7c3.6,1.1,7.7,2.2,12.3,3.2c1.1,0.2,2.3,0.5,3.5,0.8c1.2,0.2,2.4,0.4,3.6,0.7
			c2.5,0.5,5,0.9,7.7,1.3c2.6,0.4,5.4,0.7,8.1,1.1c2.8,0.3,5.6,0.7,8.5,0.9c2.9,0.2,5.8,0.5,8.8,0.7c1.5,0.1,3,0.2,4.5,0.3
			c1.5,0.1,3,0.2,4.6,0.2c3.1,0.2,6.1,0.2,9.2,0.3c3.1,0.1,6.3,0.1,9.3,0.1c3.1,0,6.2,0,9.3-0.1c3.1-0.1,6.2-0.1,9.2-0.3
			c1.5-0.1,3-0.1,4.6-0.2c1.5-0.1,3-0.2,4.5-0.3c3-0.2,5.9-0.5,8.8-0.7c1.5-0.1,2.9-0.3,4.3-0.4c1.4-0.2,2.8-0.3,4.2-0.5
			c2.8-0.4,5.5-0.7,8.1-1.1c2.6-0.4,5.2-0.8,7.7-1.3c1.2-0.2,2.4-0.4,3.6-0.7c1.2-0.3,2.3-0.5,3.5-0.8c4.6-1,8.7-2.1,12.3-3.2
			c1.8-0.5,3.5-1.2,5-1.7c1.5-0.6,2.9-1.1,4.2-1.6c2.5-1.1,4.5-2,5.7-2.8C1338.5,378,1339.2,377.6,1339.2,377.6z"/>
		<path class="st1" d="M1329.4,303.1c0,0,0,0.1-0.1,0.4c-0.1,0.2-0.3,0.6-0.9,1.1c-0.6,0.4-1.6,0.9-3.1,1.4c-1.4,0.5-3.3,1-5.5,1.5
			c-4.5,1-10.4,1.8-17.3,2.6c-3.5,0.4-7.2,0.7-11.2,1.1c-4,0.3-8.2,0.6-12.7,0.9c-4.4,0.3-9.1,0.5-14,0.7c-4.8,0.2-9.9,0.4-15,0.5
			c-2.6,0.1-5.2,0.1-7.9,0.1c-1.3,0-2.7,0-4,0c-1.4,0-2.7,0-4.1,0c-5.5,0-11,0-16.7-0.2c-11.4-0.3-23.1-0.8-34.9-1.9
			c-5.9-0.6-11.8-1.3-17.4-2.3c-2.8-0.5-5.7-1.2-8.2-2.1c-0.6-0.2-1.3-0.5-1.8-0.7c-0.3-0.1-0.6-0.3-0.8-0.4l-0.8-0.5
			c-0.2-0.2-0.4-0.3-0.6-0.5c-0.1-0.1-0.2-0.2-0.3-0.3l-0.2-0.3c-0.1-0.2-0.3-0.4-0.3-0.6l-0.1-0.3l0-0.1l0-0.1c0-0.1,0,0.1,0-0.2
			l0.1-0.4l0-0.1l0.1-0.2c0.1-0.1,0.1-0.2,0.2-0.3c0.1-0.1,0.2-0.2,0.2-0.3c0.1-0.1,0.2-0.2,0.3-0.3c0.2-0.2,0.4-0.3,0.6-0.5
			l0.8-0.5c0.2-0.2,0.6-0.3,0.8-0.4c0.6-0.3,1.2-0.5,1.8-0.7c2.5-0.9,5.4-1.5,8.2-2.1c5.7-1.1,11.6-1.8,17.4-2.3
			c11.8-1.1,23.5-1.6,34.9-1.9c11.4-0.2,22.4-0.2,32.7,0c5.2,0.1,10.2,0.3,15.1,0.5c4.8,0.2,9.5,0.4,14,0.7
			c4.4,0.3,8.7,0.6,12.7,0.9c4,0.3,7.8,0.7,11.2,1.1c7,0.8,12.9,1.6,17.3,2.6c2.2,0.5,4.1,1,5.5,1.5c1.4,0.5,2.4,1,3.1,1.4
			c0.6,0.4,0.8,0.8,0.9,1.1C1329.4,303,1329.4,303.1,1329.4,303.1z M1329.4,303.1c0,0,0-0.1-0.1-0.4c-0.1-0.2-0.3-0.6-0.9-1
			c-0.6-0.4-1.6-0.9-3.1-1.4c-1.4-0.5-3.3-1-5.6-1.4c-2.2-0.5-4.9-0.9-7.8-1.3c-2.9-0.4-6.2-0.8-9.7-1.1c-7-0.7-15.1-1.2-24-1.5
			c-4.4-0.2-9.1-0.3-13.9-0.4c-4.8-0.1-9.8-0.1-14.9-0.1c-10.2,0-21,0.3-32,0.8c-5.5,0.2-11.1,0.6-16.6,1
			c-5.6,0.4-11.1,0.9-16.6,1.4c-2.7,0.3-5.4,0.6-8,1c-2.6,0.4-5.2,0.8-7.5,1.2c-2.3,0.5-4.5,1-6.1,1.6c-0.4,0.1-0.8,0.3-1.1,0.4
			c-0.1,0.1-0.3,0.1-0.4,0.2c-0.1,0.1-0.2,0.1-0.4,0.2c-0.1,0.1-0.2,0.1-0.3,0.2l-0.1,0.1c0,0,0,0,0,0.1c0,0,0,0-0.1,0.1
			c0,0,0,0,0,0l0,0.1l-0.1,0.4c0-0.2,0-0.1,0-0.1l0,0l0,0l0,0.1c0,0.1,0.1,0.1,0.1,0.2l0.1,0.1c0,0,0.1,0.1,0.1,0.1
			c0.1,0.1,0.1,0.1,0.3,0.2c0.1,0.1,0.2,0.1,0.4,0.2c0.1,0.1,0.3,0.1,0.4,0.2c0.3,0.2,0.7,0.3,1.1,0.4c0.4,0.1,0.9,0.3,1.3,0.4
			c0.5,0.1,1,0.3,1.5,0.4c1,0.3,2.2,0.5,3.3,0.7c2.3,0.5,4.9,0.9,7.5,1.2c2.6,0.4,5.3,0.7,8,1c5.4,0.6,11,1.1,16.6,1.5
			c5.6,0.4,11.1,0.7,16.6,1c5.5,0.2,10.9,0.4,16.3,0.6c1.3,0,2.7,0.1,4,0.1c1.3,0,2.7,0,4,0.1c2.6,0,5.2,0.1,7.8,0.1
			c5.1,0,10.1,0,14.9-0.1c4.8-0.1,9.5-0.2,13.9-0.4c8.9-0.3,17-0.9,24-1.5c3.5-0.3,6.8-0.7,9.7-1.1c2.9-0.4,5.5-0.8,7.8-1.3
			c2.2-0.5,4.1-0.9,5.6-1.4c1.4-0.5,2.4-1,3.1-1.4c0.6-0.4,0.8-0.8,0.9-1C1329.4,303.2,1329.4,303.1,1329.4,303.1z"/>
		<path class="st1" d="M1151.1,305.9c-0.1,2.2,0,4.4,0.1,6.6c0.2,2.2,0.4,4.4,0.7,6.6c0.7,4.4,1.7,8.7,3,12.9
			c1.4,4.3,3.2,8.4,5.4,12.4c2.2,4,5,7.9,8.3,11.5c1.7,1.8,3.4,3.5,5.3,5.2c1.9,1.6,4,3.2,6.1,4.6c2.2,1.5,4.5,2.8,6.9,4
			c1.2,0.6,2.5,1.2,3.7,1.8c1.3,0.5,2.5,1.1,3.9,1.6c1.3,0.5,2.6,1,4,1.4c1.4,0.4,2.7,0.9,4.1,1.2c2.8,0.8,5.6,1.4,8.5,2
			c1.5,0.2,2.9,0.5,4.4,0.7l2.2,0.3l2.2,0.3c1.5,0.2,3,0.3,4.4,0.4c1.5,0.1,3,0.2,4.5,0.3l0.1,0l0.2,0c0.7,0.1,1.7,0.1,2.5,0.2
			c0.9,0.1,1.7,0.1,2.6,0.1c1.8,0.1,3.5,0.1,5.3,0.1c3.5,0,7.1-0.1,10.6-0.3c7-0.5,13.9-1.5,20.5-3.2c3.3-0.8,6.5-1.8,9.5-3
			c3-1.2,6-2.5,8.7-4c5.4-3,10.1-6.7,13.8-10.9c1.8-2.1,3.4-4.3,4.8-6.6c1.4-2.3,2.6-4.6,3.5-7c1-2.4,1.7-4.9,2.3-7.3
			c0.7-2.7,1.5-5.2,2.5-7.8c1-2.6,2.1-5.1,3.4-7.6c1.3-2.5,2.8-5,4.7-7.4c1.9-2.4,4-4.7,7-6.7c1.5-1,3.2-1.9,5.2-2.5
			c2-0.6,4.3-0.9,6.5-0.8l0.1,0l0.1,0c0.6,0.1,1,0.1,1.5,0.2c0.5,0.1,0.9,0.2,1.4,0.3c0.9,0.2,1.8,0.5,2.7,0.7
			c1.8,0.6,3.4,1.3,5,2.1c1.5,0.9,2.9,1.9,4.1,3c1.1,1.1,2,2.4,2.7,3.7c0.6,1.3,1,2.7,1.1,4c0.2,1.3,0.1,2.7-0.1,4
			c-0.4,2.6-1.4,5.1-2.6,7.5l0,0.1l0,0c-0.5,0.6-0.9,1.2-1.4,1.7c-0.5,0.5-1,1.1-1.6,1.6c-1.1,1-2.3,2-3.5,2.9
			c-0.6,0.5-1.3,0.9-1.9,1.3c-0.7,0.4-1.3,0.9-2,1.3c-0.7,0.4-1.4,0.8-2.1,1.2c-0.7,0.4-1.4,0.8-2.2,1.1c-0.7,0.4-1.5,0.7-2.3,1
			c-0.8,0.3-1.5,0.6-2.3,0.9c-0.8,0.3-1.6,0.6-2.4,0.8c-0.8,0.3-1.6,0.5-2.5,0.7c-1.7,0.5-3.3,0.9-5,1.2c-0.8,0.2-1.7,0.3-2.6,0.5
			c-0.9,0.1-1.7,0.3-2.6,0.4c0.8-0.2,1.7-0.4,2.5-0.6c0.8-0.2,1.7-0.4,2.5-0.6c1.6-0.4,3.2-0.9,4.8-1.5c0.8-0.3,1.6-0.6,2.3-0.9
			c0.8-0.3,1.5-0.6,2.3-0.9c0.7-0.3,1.5-0.7,2.2-1c0.7-0.4,1.4-0.7,2.1-1.1c0.7-0.4,1.4-0.8,2-1.2c0.6-0.4,1.3-0.8,1.9-1.2
			c0.6-0.4,1.2-0.9,1.8-1.3c0.6-0.4,1.2-0.9,1.7-1.4c1.1-0.9,2.2-1.9,3.1-2.9c0.5-0.5,0.9-1,1.4-1.5c0.4-0.5,0.8-1.1,1.1-1.6
			l-0.1,0.1c1-2.3,1.7-4.7,1.8-7.1c0.2-2.4-0.1-4.7-1.3-6.8c-1.1-2.1-3.1-3.9-5.7-5.2c-1.3-0.6-2.7-1.2-4.1-1.6
			c-0.7-0.2-1.5-0.4-2.3-0.5c-0.4-0.1-0.8-0.1-1.1-0.2c-0.4-0.1-0.8-0.1-1-0.1l0.2,0c-2.9-0.1-5.6,0.9-7.9,2.5
			c-2.3,1.6-4.2,3.7-5.7,5.9c-1.6,2.2-2.9,4.5-4,6.9c-1.1,2.4-2.1,4.8-3,7.3c-0.9,2.5-1.6,5-2.1,7.4c-0.6,2.6-1.3,5.3-2.3,7.9
			c-1,2.6-2.1,5.2-3.6,7.7c-1.4,2.5-3.2,4.9-5.2,7.3c-4,4.7-9.2,8.8-15.3,12.2c-3,1.7-6.3,3.2-9.6,4.5c-3.4,1.3-6.9,2.4-10.5,3.3
			c-7.2,1.8-14.7,2.9-22.2,3.3c-3.8,0.2-7.5,0.3-11.3,0.3c-1.9,0-3.8-0.1-5.7-0.2c-0.9,0-1.9-0.1-2.8-0.2c-1-0.1-1.9-0.2-2.9-0.3
			l0.3,0c-1.6-0.1-3.2-0.2-4.8-0.4c-1.6-0.2-3.2-0.3-4.7-0.5l-2.4-0.3l-2.3-0.4c-1.6-0.2-3.1-0.6-4.7-0.8c-3.1-0.6-6.1-1.4-9.1-2.2
			c-1.5-0.4-2.9-0.9-4.4-1.4c-1.4-0.5-2.9-1-4.3-1.6c-1.4-0.6-2.8-1.2-4.1-1.8c-1.3-0.7-2.7-1.3-3.9-2c-2.6-1.4-5-2.9-7.2-4.5
			c-2.3-1.6-4.4-3.3-6.3-5.1c-2-1.8-3.7-3.7-5.3-5.7c-3.2-3.9-5.8-8-7.9-12.3c-2.1-4.2-3.5-8.6-4.6-13c-0.5-2.2-0.9-4.4-1.2-6.6
			c-0.3-2.2-0.5-4.4-0.6-6.6c-0.1-2.2-0.1-4.4,0-6.6C1150.5,310.3,1150.7,308.1,1151.1,305.9z"/>
		<path class="st1" d="M1246.9,138.7c0,0,0.1,0,0.4,0.1c0.3,0.1,0.7,0.2,1.2,0.4c1,0.4,2.4,1.2,4,2.5c1.6,1.3,3.2,3.3,4.7,5.7
			c1.5,2.5,2.9,5.5,3.8,8.9c0.5,1.7,0.8,3.6,1,5.5c0.2,1.9,0.3,3.9,0.3,6c-0.1,4.1-0.8,8.4-2.1,12.7c-1.3,4.3-3.1,8.5-5.4,12.6
			c-1.2,2-2.4,4-3.8,5.9c-1.4,1.9-2.8,3.7-4.3,5.6c-0.4,0.4-0.8,0.9-1.1,1.3l-1,1.2c-0.6,0.8-1.3,1.7-1.9,2.5
			c-1.2,1.7-2.4,3.4-3.4,5.2c-2.1,3.5-3.6,7.2-4.5,10.9c-0.9,3.7-1,7.4-0.6,11c0.4,3.5,1.3,6.9,2.5,9.9c1.2,3,2.5,5.7,3.8,8
			c0.6,1.2,1.3,2.2,1.9,3.2c0.6,1,1.2,1.9,1.7,2.7c0.6,0.8,1,1.5,1.5,2.2c0.4,0.6,0.8,1.1,1.1,1.6c0.6,0.9,0.9,1.3,0.9,1.3
			s-0.4-0.4-1.2-1.1c-0.8-0.7-2-1.7-3.4-3.1c-0.7-0.7-1.5-1.5-2.3-2.4c-0.8-0.9-1.7-1.8-2.5-3c-1.8-2.2-3.6-4.7-5.3-7.8
			c-1.7-3.1-3.2-6.7-4.1-10.7c-0.4-2-0.7-4.2-0.8-6.4c-0.1-2.2,0.1-4.5,0.4-6.7c0.7-4.5,2.3-9,4.5-13.2c1.1-2.1,2.3-4.1,3.7-6
			c0.7-1,1.4-1.9,2.1-2.9l1.1-1.4c0.4-0.5,0.7-0.9,1.1-1.3c1.3-1.6,2.6-3.3,3.8-5.1c1.2-1.7,2.4-3.5,3.4-5.3c2.1-3.6,3.9-7.3,5.2-11
			c0.7-1.8,1.2-3.7,1.7-5.5c0.4-1.8,0.8-3.6,1-5.4c0.4-3.6,0.5-7,0.1-10.1c-0.3-3.1-1-6-1.9-8.4c-0.9-2.4-2-4.5-3.1-6
			c-1.1-1.5-2.2-2.6-3-3.3c-0.4-0.3-0.7-0.5-1-0.7C1247,138.8,1246.9,138.7,1246.9,138.7z"/>
		<path class="st1" d="M1254.9,199.9c0,0-0.3,0.4-0.7,1.1c-0.2,0.3-0.5,0.8-0.8,1.3c-0.3,0.5-0.7,1.1-1,1.8
			c-0.2,0.3-0.4,0.7-0.6,1.1c-0.2,0.4-0.4,0.8-0.5,1.2c-0.2,0.4-0.3,0.9-0.5,1.3c-0.2,0.5-0.3,0.9-0.5,1.4c-0.6,2-0.9,4.3-0.6,6.7
			c0.2,2.4,1.1,5,2.3,7.7c1.2,2.6,2.8,5.3,4.6,8.2c0.9,1.4,1.8,2.9,2.7,4.4c0.9,1.5,1.8,3,2.6,4.6c0.8,1.6,1.7,3.3,2.4,5l0.1,0.3
			l0.1,0.2l0.1,0.2l0.2,0.6c0.2,0.4,0.3,0.8,0.5,1.3l0.4,1.4l0.4,1.4c0.4,1.9,0.6,3.9,0.6,6c-0.1,2-0.5,4.1-1.2,6
			c-0.7,1.9-1.7,3.6-2.8,5.2c-1.1,1.5-2.3,2.9-3.6,4.2c-2.3,2.3-4.4,4.6-6.2,6.9c-1.8,2.3-3.1,4.7-4,7c-0.9,2.3-1.3,4.6-1.3,6.7
			c0,2,0.4,3.9,0.9,5.3c0.5,1.5,1,2.6,1.4,3.3c0.4,0.7,0.6,1.1,0.6,1.1s-0.3-0.3-0.9-1c-0.5-0.7-1.3-1.6-2.1-3
			c-0.8-1.4-1.6-3.3-2-5.5c-0.2-1.1-0.3-2.4-0.2-3.7c0.1-1.3,0.3-2.7,0.6-4.1c0.7-2.8,2-5.6,3.7-8.4c1.7-2.7,3.8-5.4,6.1-7.9
			c1-1.2,2-2.4,2.9-3.7c0.8-1.3,1.5-2.7,2-4.1c1-2.8,1-5.9,0.3-9l-0.3-1.2l-0.3-1.1c-0.1-0.4-0.3-0.8-0.4-1.2l-0.2-0.6l-0.1-0.2
			c0-0.1,0,0.1,0,0l0,0l0-0.1l-0.1-0.3c-0.6-1.6-1.3-3.1-2.1-4.6c-1.5-3-3.2-6-4.8-9c-1.6-3-3.1-6-4.2-9c-1.1-3-1.7-6.2-1.6-9.1
			c0-2.9,0.8-5.5,1.8-7.6c1-2.1,2.1-3.7,3.1-4.9c0.5-0.6,1-1.1,1.4-1.6c0.4-0.5,0.8-0.8,1.1-1.1
			C1254.6,200.2,1254.9,199.9,1254.9,199.9z"/>
		<g>
			<path class="st1" d="M1332.2,404.1"/>
		</g>
	</g>
</g>
<g id="text">
	<g>
		<path class="st2" d="M1223,213"/>
	</g>
	<path class="st3" d="M319.5,221.5"/>
	<g>
		<path class="st4" d="M1220,212.5c-0.1-14.4-1.4-28.7-3.4-42.9c-2-14.2-4.9-28.2-8.9-41.8c-4-13.6-9.2-26.8-16.2-38.8
			c-0.9-1.5-1.8-3-2.7-4.4c-0.9-1.5-1.9-3-2.8-4.5c-1.9-3-3.8-6-5.8-8.9c-3.9-5.9-7.8-11.7-12.1-17.1c-4.3-5.4-9-10.6-14.1-15.1
			c-5.1-4.6-10.6-8.6-16.6-12c-11.9-6.7-25.5-10.4-39.4-11.5c-7-0.5-14-0.5-21,0.1c-7,0.5-14.1,1.6-21,3c-1.7,0.3-3.5,0.7-5.2,1.1
			c-1.7,0.4-3.5,0.8-5.2,1.2c-3.5,0.9-6.9,1.8-10.3,2.8c-6.8,2-13.6,4.2-20.3,6.8c-6.7,2.5-13.3,5.2-19.9,8
			c-6.6,2.9-13.2,5.8-19.7,8.8c-13.1,5.9-26.1,12-39.1,18.3c-25.9,12.5-51.5,25.6-77.1,38.9c-25.6,13.2-51.1,26.6-76.9,39.6
			c-12.9,6.4-25.9,12.8-39.1,18.8c-13.2,6-26.5,11.8-40.1,17l-5.1,1.9l-5.1,1.9c-3.4,1.3-6.9,2.4-10.4,3.6c-1.7,0.6-3.5,1.1-5.2,1.7
			c-1.8,0.5-3.5,1.1-5.3,1.6c-3.5,1-7.1,2-10.6,2.9l-10.5,2.7c-3.5,0.9-7,1.7-10.5,2.6c-7,1.8-14.1,3.4-21.1,5
			c-7.1,1.6-14.1,3.1-21.2,4.7c-7.1,1.4-14.2,2.9-21.3,4.2l-10.7,2l-5.3,1l-5.4,0.9c-7.2,1.2-14.3,2.4-21.5,3.4
			c-28.7,4.3-57.6,7.4-86.5,9.2c-7.2,0.4-14.5,0.9-21.7,1.2l-10.9,0.4l-5.4,0.2l-5.4,0.1c-7.3,0.1-14.5,0.3-21.8,0.3l-21.7-0.2
			l-21.7-0.7l-5.4-0.2l-5.4-0.3l-10.8-0.5c-14.4-0.7-28.8-1.5-43.2-2.4c-28.8-1.7-57.5-3.9-86.3-6.2l-43.1-3.7l-43-4.2
			c-28.7-3-57.3-6-85.9-9.8l0.1-1c28.8,0.7,57.6,1.8,86.4,2.8l86.3,3.2l86.3,3.1c28.7,0.9,57.5,1.9,86.1,2.3
			c57.2,0.4,114.4-2.1,171.2-9c28.4-3.5,56.7-8,84.7-13.7c7-1.5,14-2.9,21-4.5c3.5-0.8,7-1.5,10.5-2.4l10.5-2.5
			c3.5-0.8,6.9-1.7,10.3-2.6c1.7-0.4,3.4-1,5.1-1.4c1.7-0.5,3.4-0.9,5.1-1.5c3.4-1.1,6.8-2.1,10.1-3.3l5-1.7l5-1.8
			c26.8-9.7,53-21.4,79.1-33.5c26-12.1,51.9-24.8,77.8-37.4c25.9-12.6,51.8-25.2,77.9-37.5c13.1-6.1,26.1-12.2,39.3-18
			c6.6-3,13.2-5.8,19.8-8.7c6.6-2.9,13.3-5.6,20.1-8.2c6.8-2.5,13.6-5,20.5-7.2c3.5-1.1,6.9-2.1,10.5-3.1c1.8-0.5,3.5-1,5.3-1.4
			c1.8-0.5,3.5-0.9,5.3-1.3c14.2-3.3,28.8-5.3,43.7-4.9c14.8,0.4,29.9,3.7,43.4,10.6c6.8,3.4,13.1,7.7,18.9,12.5
			c5.8,4.9,11,10.3,15.8,16c4.8,5.7,9.2,11.7,13.2,17.8c2,3.1,3.9,6.2,5.7,9.4c0.9,1.6,1.8,3.1,2.7,4.8c0.9,1.7,1.8,3.3,2.6,5
			c6.7,13.4,11.1,27.6,14.3,41.8c3.2,14.3,5,28.8,6,43.2c0.5,7.2,0.7,14.5,0.7,21.7c0,7.2-0.2,14.5-0.8,21.7L1220,212.5z"/>
	</g>
</g>
<g id="texto">
	<g>
		<path class="st1" d="M114.5,412.9c-9.3,0-17.7-1.6-25.2-4.8c-7.5-3.2-14-7.8-19.3-13.8c-5.3-6-9.5-13.3-12.4-21.9
			c-2.9-8.6-4.4-18.4-4.4-29.2c0-7,0.7-13.7,2.1-19.9c1.4-6.2,3.4-11.9,6-17.1c2.6-5.2,5.7-9.9,9.4-14c3.7-4.1,7.8-7.6,12.4-10.5
			c4.6-2.8,9.5-5,14.8-6.6c5.3-1.5,10.9-2.3,16.8-2.3c3.1,0,6.5,0.2,10.4,0.7c3.9,0.5,7.7,1.1,11.6,1.8c3.9,0.7,7.6,1.5,11,2.4
			c3.5,0.9,6.4,1.7,8.8,2.5v34.5h-8.2l-6-17.4c-0.4-1-0.9-1.9-1.6-2.5c-0.7-0.6-1.4-1.2-2.1-1.6c-3.5-2.1-7.1-3.8-10.8-5
			c-3.7-1.2-7.6-1.9-11.9-1.9c-5,0-9.6,1.1-13.8,3.4c-4.2,2.3-7.7,5.7-10.7,10.2c-2.9,4.5-5.2,10.1-6.8,16.8
			c-1.6,6.7-2.4,14.3-2.4,23c0,9.1,0.9,17.1,2.7,24.1c1.8,7,4.4,12.9,7.9,17.7c3.5,4.8,7.8,8.4,12.9,10.8c5.1,2.4,10.9,3.6,17.5,3.6
			c4.2,0,8-0.5,11.2-1.5c3.3-1,6.3-2.2,8.9-3.7c2.6-1.5,5-3.2,7-4.9c2-1.8,3.9-3.5,5.6-5h4.8v11.5c-2.4,2.3-5.3,4.7-8.7,7.1
			c-3.4,2.4-7.1,4.6-11.2,6.7c-4.1,2-8.3,3.7-12.8,5C123.7,412.2,119.1,412.9,114.5,412.9z"/>
		<path class="st1" d="M169.1,403.2l12.3-4.3c1.1-0.4,2-1,2.7-1.9c0.7-0.9,1.1-2,1.1-3.5V292c0-1.4-0.4-2.6-1.1-3.5
			c-0.7-0.9-1.6-1.5-2.7-1.8l-12.3-4.3v-6.8h103.2v36.1h-8.4l-6.4-19.9c-0.4-1-0.8-1.9-1.3-2.5c-0.5-0.6-1.3-1-2.3-1H212v45.4h25.2
			c1.2,0,2-0.3,2.5-0.8c0.5-0.5,0.9-1.3,1.3-2.4l5.4-15.6h7.3v50h-7.3l-5.4-15.4c-0.4-1-0.8-1.8-1.3-2.4c-0.5-0.7-1.3-1-2.5-1H212
			v51h49.1c1,0,1.8-0.3,2.4-1c0.6-0.6,1-1.5,1.3-2.6l6.1-22.4h8.4V410H169.1V403.2z"/>
		<path class="st1" d="M336.3,413c-3.5,0-7.1-0.2-10.7-0.7c-3.6-0.5-7.3-1.1-10.9-1.9c-3.6-0.8-7.2-1.7-10.8-2.7
			c-3.6-1-7-2.1-10.2-3.2l-1.5-38.6h8.3l6.8,18.8c0.2,0.4,0.4,0.9,0.8,1.3c0.3,0.4,0.7,0.9,1.1,1.4c0.4,0.5,0.8,0.9,1.2,1.3
			c0.4,0.4,0.7,0.7,1,0.9c1.9,1.3,4.1,2.6,6.6,3.8c2.5,1.2,5,2.2,7.6,3.1s5.1,1.6,7.5,2.1c2.4,0.5,4.6,0.8,6.5,0.8
			c3.5,0,6.7-0.5,9.6-1.6c2.9-1.1,5.3-2.6,7.3-4.5c2-1.9,3.6-4.2,4.7-6.7c1.1-2.6,1.6-5.3,1.6-8.4c0-2.6-0.3-4.8-1-6.8
			c-0.7-2-1.7-3.8-3.1-5.4c-1.4-1.6-3-3-5-4.3c-2-1.2-4.3-2.4-7-3.6c-2.4-1-4.7-1.8-7.1-2.6c-2.3-0.8-4.7-1.5-7-2.2
			c-2.3-0.7-4.6-1.4-6.9-2.2c-2.3-0.8-4.5-1.6-6.8-2.6c-3.6-1.6-6.9-3.6-9.7-6c-2.9-2.4-5.3-5.1-7.2-8.1c-2-3-3.5-6.4-4.5-10
			c-1.1-3.6-1.6-7.5-1.6-11.6c0-3.9,0.6-7.6,1.7-11.1c1.1-3.5,2.7-6.8,4.8-9.7c2-3,4.5-5.7,7.2-8.1c2.8-2.4,5.9-4.4,9.3-6.1
			c3.4-1.7,7.1-3,11-3.9c3.9-0.9,8-1.4,12.2-1.4c3.7,0,7.3,0.2,11,0.5c3.7,0.4,7.2,0.8,10.7,1.4c3.5,0.6,6.8,1.2,9.9,2
			c3.1,0.8,5.9,1.6,8.5,2.4v36.3h-8.2l-6.3-17.7c-0.3-0.9-0.8-1.7-1.6-2.5c-0.8-0.8-1.5-1.5-2.2-2c-1.2-1-2.8-1.9-4.7-2.7
			c-1.9-0.8-3.9-1.6-6-2.2c-2.1-0.6-4.3-1.1-6.4-1.4c-2.1-0.3-4-0.5-5.6-0.5c-3.2,0-6.1,0.5-8.6,1.5c-2.5,1-4.7,2.3-6.4,4
			c-1.7,1.7-3.1,3.6-4,5.7c-0.9,2.1-1.3,4.3-1.3,6.6c0,2.4,0.3,4.6,0.8,6.7c0.5,2.1,1.5,4,2.8,5.7c1.3,1.7,3,3.3,5.2,4.8
			c2.1,1.4,4.8,2.7,7.9,3.9c2.2,0.8,4.4,1.6,6.6,2.3c2.2,0.7,4.4,1.4,6.6,2.2c2.2,0.7,4.5,1.5,6.8,2.4c2.3,0.8,4.7,1.8,7.3,2.9
			c3,1.3,6,3,8.9,5.1c2.9,2,5.5,4.5,7.7,7.4c2.3,2.9,4.1,6.2,5.4,10c1.4,3.8,2,8.1,2,12.9c0,5.4-1,10.6-3.1,15.8
			c-2,5.2-5.2,9.7-9.5,13.8c-4.3,4-9.7,7.3-16.4,9.7C353.3,411.8,345.4,413,336.3,413z"/>
		<path class="st1" d="M537.9,403.2l12.3-4.3c1.1-0.4,2-1,2.7-1.9c0.7-0.9,1.1-2,1.1-3.5V292c0-1.4-0.4-2.6-1.2-3.5
			c-0.8-0.9-1.7-1.5-2.7-1.8l-12.3-4.3v-6.8h57.6c6.5,0,12.1,0.5,17,1.4c4.9,0.9,9.1,2.2,12.6,3.8c3.5,1.6,6.4,3.5,8.8,5.6
			c2.3,2.1,4.1,4.5,5.5,7c1.4,2.5,2.3,5.1,2.8,7.8s0.8,5.4,0.8,8.1c0,5.4-0.8,10.1-2.5,14.1c-1.7,4-3.8,7.4-6.4,10.2
			c-2.5,2.8-5.3,5.2-8.4,7c-3.1,1.8-5.9,3.2-8.7,4.2l29.8,47.3c0.5,0.7,1,1.4,1.7,2.2c0.7,0.8,1.4,1.5,2.1,2.2
			c0.8,0.7,1.6,1.3,2.4,1.8c0.8,0.5,1.6,0.9,2.3,1.1l12.3,3.8v6.8h-30c-2.8,0-5.1-0.2-6.8-0.7c-1.8-0.4-3.3-1.2-4.6-2.2
			c-1.3-1-2.5-2.3-3.6-3.8c-1.1-1.6-2.3-3.5-3.6-5.7l-26.2-44.1l-11.9-3.5v43.4c0,1.5,0.3,2.6,1,3.5c0.7,0.9,1.6,1.5,2.7,1.9
			l13.4,4.3v6.8h-60.1V403.2z M593.1,340.5c3.6,0,6.8-0.8,9.4-2.3c2.7-1.5,4.9-3.5,6.6-6c1.7-2.5,3.1-5.3,3.9-8.5
			c0.9-3.2,1.3-6.5,1.3-9.8c0-9-2-15.5-5.9-19.6c-3.9-4.1-9.6-6.1-16.9-6.1h-10.7v51.3c0.5,0.1,1.3,0.2,2.4,0.3
			c1.1,0.1,2.2,0.2,3.5,0.3c1.2,0.1,2.4,0.2,3.6,0.3C591.5,340.4,592.4,340.5,593.1,340.5z"/>
		<path class="st1" d="M725.9,412.9c-9.3,0-17.7-1.6-25.2-4.8c-7.5-3.2-14-7.8-19.3-13.8c-5.3-6-9.5-13.3-12.4-21.9
			c-2.9-8.6-4.4-18.4-4.4-29.2c0-7,0.7-13.7,2.1-19.9c1.4-6.2,3.4-11.9,6-17.1c2.6-5.2,5.7-9.9,9.4-14c3.7-4.1,7.8-7.6,12.4-10.5
			c4.6-2.8,9.5-5,14.8-6.6c5.3-1.5,10.9-2.3,16.8-2.3c3.1,0,6.5,0.2,10.4,0.7c3.9,0.5,7.7,1.1,11.6,1.8c3.9,0.7,7.6,1.5,11,2.4
			c3.5,0.9,6.4,1.7,8.8,2.5v34.5h-8.2l-6-17.4c-0.4-1-0.9-1.9-1.6-2.5c-0.7-0.6-1.4-1.2-2.1-1.6c-3.5-2.1-7.1-3.8-10.8-5
			c-3.7-1.2-7.6-1.9-11.9-1.9c-5,0-9.6,1.1-13.8,3.4c-4.2,2.3-7.7,5.7-10.7,10.2c-2.9,4.5-5.2,10.1-6.8,16.8
			c-1.6,6.7-2.4,14.3-2.4,23c0,9.1,0.9,17.1,2.7,24.1c1.8,7,4.4,12.9,7.9,17.7s7.8,8.4,12.9,10.8c5.1,2.4,10.9,3.6,17.5,3.6
			c4.2,0,8-0.5,11.2-1.5c3.3-1,6.3-2.2,8.9-3.7c2.6-1.5,5-3.2,7-4.9c2-1.8,3.9-3.5,5.6-5h4.8v11.5c-2.4,2.3-5.3,4.7-8.7,7.1
			c-3.4,2.4-7.1,4.6-11.2,6.7c-4.1,2-8.3,3.7-12.8,5C735.1,412.2,730.6,412.9,725.9,412.9z"/>
		<path class="st1" d="M770.7,403.2l8.5-3.8c2.4-1,4-2.8,5-5.5l35.6-97.9l10.8-22.4h14.7l43.6,120.4c0.5,1.2,1.2,2.3,2,3.4
			c0.9,1,1.8,1.8,2.8,2.2l8.7,3.6v6.8h-55.2v-6.8l15.3-4.7l-12.5-34h-41.4l-12,33.5l15.1,5.2v6.8h-41V403.2z M845.4,351.9
			l-11.8-32.5l-4.1-13h-0.6l-15.7,45.5H845.4z"/>
		<path class="st1" d="M903.1,403.2l12.3-4.3c1.1-0.4,2-1,2.7-1.9c0.7-0.9,1.1-2,1.1-3.5V292c0-1.4-0.4-2.6-1.1-3.5
			c-0.7-0.9-1.6-1.5-2.7-1.8l-12.3-4.3v-6.8h103v35.9h-8.4l-6.3-19.7c-0.3-1-0.7-1.9-1.3-2.5c-0.6-0.6-1.4-1-2.4-1H946v46.9h26
			c1.2,0,2.1-0.3,2.6-0.9c0.5-0.6,0.9-1.4,1.2-2.4l5.5-15.9h7.1V367h-7.1l-5.5-15.7c-0.4-1.2-0.8-2-1.2-2.6
			c-0.5-0.6-1.3-0.9-2.6-0.9h-26v45.7c0,1.5,0.4,2.6,1.2,3.5c0.8,0.9,1.7,1.5,2.8,1.9l13.4,4.3v6.8h-60.4V403.2z"/>
		<path class="st1" d="M1014,403.2l12.3-4.3c1.1-0.4,2-1,2.7-1.9c0.7-0.9,1.1-2,1.1-3.5V292c0-1.4-0.4-2.6-1.1-3.5
			c-0.7-0.9-1.6-1.5-2.7-1.8l-12.3-4.3v-6.8h103.2v36.1h-8.4l-6.4-19.9c-0.4-1-0.8-1.9-1.3-2.5c-0.5-0.6-1.3-1-2.3-1H1057v45.4h25.2
			c1.2,0,2-0.3,2.5-0.8c0.5-0.5,0.9-1.3,1.3-2.4l5.4-15.6h7.3v50h-7.3l-5.4-15.4c-0.4-1-0.8-1.8-1.3-2.4c-0.5-0.7-1.3-1-2.5-1H1057
			v51h49.1c1,0,1.8-0.3,2.4-1c0.6-0.6,1-1.5,1.3-2.6l6.1-22.4h8.4V410H1014V403.2z"/>
	</g>
</g>
<g id="USCO">
	<path class="st5" d="M459.1,264c12.3-0.2,21.6,1.5,30.1,5.6c2,1,4.4,3.3,6.5,4.1c2.8,0,5.6,0,8.3,0c8.1,0,17.2-0.5,24.5,0.5
		c0.6,0.9,1.2,1.7,1.9,2.6c1.9,2.8,1.7,16,0,18.9c-1.1,1.9-4.7,2.8-5.6,4.6c0,31.1,0,62.3,0,93.4c-2.6,4.1-2.8,7.9-6.5,10.7
		c-20.2,15.7-63.7,21.2-91.6,8.7c-7.3-3.3-16.3-6.1-20.4-12.8c-4-6.5-2.8-20-2.8-30.6c0-23.3,0-46.6,0-70c-2.7-0.7-5.3-3.3-6-6.1
		c-1.4-5.4-0.2-17.7,2.8-18.9c5.1-4.1,25.6,1.6,32.9-1c4.3-1.6,9-5.4,13.9-7.1C451.1,265.7,455.1,264.9,459.1,264z M460.1,265
		c-2.6,1.7-9.3,1.4-12.5,2.6c-3.5,1.5-7.1,3.1-10.6,4.6c-1,0.6-2.2,2.2-3.2,2.6c-3.2,0-6.5,0-9.7,0c-7.9,0-17.6-0.6-24.1,1
		c-1.3,3.1-2.9,14.5-0.9,18.9c1.3,2.8,5.7,3,6,6.6c0,31,0,62,0,92.9c1.9,2.7,2.2,6.1,4.6,8.2c20,16.4,61.7,22,90.7,10.2
		c8-3.2,17.5-6.6,21.8-13.8c3.4-5.9,1.9-20,1.9-29.1c0-23.5,0-47,0-70.5c2-0.5,4.6-2.4,5.6-4.1c2.4-4.1,1.5-17.3-1.4-19.4
		c-5-4-25.6,1.5-32.9-1c-2.4-0.9-5.1-3.5-7.4-4.6C479.9,266.4,471.2,265.1,460.1,265z M440.2,293.6c0-4.1,0-8.2,0-12.3
		c-0.7-1.9-1.5-1.6-1.4-4.1c10.2-6.6,29.9-8.9,43-3.6c3.5,1.4,8,1.2,8.8,5.6c-2.5,2.5-2,8.5-1.9,13.8c2.6,1.2,3.4,1.8,3.2,6.1
		c-1.9,3.2-1.3,6.1-4.2,8.2c2.6,4.6,8.3,17.9,6.5,26.6c-0.9,4.3-3.6,5.1-3.7,10.2c0.2,9.5,0.3,19.1,0.5,28.6
		c0.6,2.2,1.4,3.2,0.9,6.1c-9.7,6.3-28.1,8.2-41.2,4.6c-4.5-1.2-11.8-0.8-13.4-5.1c-0.1-0.1,0.9-18,0.9-23.5c0-4.8,0-9.5,0-14.3
		c-0.2-0.3-1.6-0.6-1.9-1c-0.8-1.4-1.5-4-1.9-5.6c-2.2-10.4,4.8-20,6-27.1c-2.7-2-3.7-6.8-3.7-11.7c0.8-0.5,0.8-0.6,1.9-1
		C439.3,293.8,439.2,293.8,440.2,293.6z M461,271.7c-5.1,3.2-19.7,1.3-21.3,7.7c1,0.8,1.2,1.9,2.3,2.6c1-0.9,10.1-4.1,12-3.6
		c2.2,0.7,5,2.8,7.9,3.6c5.9,1.5,9.6-2.6,13-3.6c3.9-1.1,9.7,2.7,13,3.6c0.6-1.9,1.1-1.6,1.4-4.1C481,274.2,472.8,271.8,461,271.7z
		 M441.5,282.9c0,3.4,0,6.8,0,10.2c0.2,0,0.3,0,0.5,0c0-0.2,0-0.3,0-0.5c0.4-0.7,0.7-2.8,0.9-3.6c5.1-0.6,9.8-2.8,15.3-3.6
		c0-0.5,0-1,0-1.5c4,0,8,0,12,0c0,0.5,0,1,0,1.5c5.9,0.6,11.1,2.7,16.2,4.1c0,1,0,2,0,3.1c0.5,0,0.9,0,1.4,0c0-3.1,0-6.1,0-9.2
		c-0.2,0-0.3,0-0.5,0c0-0.2,0-0.3,0-0.5c-3.9-1.2-7.7-2.4-11.6-3.6c0,0-7.1,3.5-7.4,3.6c-6.8,1.9-11.3-2.4-14.8-3.6
		C449.6,280.5,445.6,281.7,441.5,282.9z M405.4,281.4c10.2,0,20.4,0,30.5,0c0.7,2.4,0.5,6.5,0.5,9.7c-1.8,1.1-4.8,2.3-5.6,4.6
		c-1.5,2.7-0.5,17-0.5,21.4c0,14.8,0,29.6,0,44.4c0,6.7-0.9,15.9,0.9,20.9c12.6,8.2,35.9,11.4,53.2,5.6c4.6-1.6,10.5-2.3,13-6.1
		c2-2.9,0.9-17.2,0.9-22.5c0-14.3,0-28.6,0-42.9c0-7.1,0.6-15.7-0.5-22c-5.2-1.6-5.8-5-5.6-12.8c6.1-2.2,23.7-0.5,31.5-0.5
		c0.7,2.4,0.5,6.5,0.5,9.7c-2.5,1.5-4.5,3.1-6.5,5.1c0,23.3,0,46.6,0,70c0,5.3,1.3,23.3-0.5,26.6c-1.9,6.2-12.8,10.2-18.5,12.8
		c-26.9,12-71.9,6.7-87.9-11.7c0-21.8,0-43.6,0-65.4c0-10.8,1.2-23.9-0.5-33.7c-4.4-2.2-6.3-3.5-6-11.2
		C404.9,282.9,405.2,282,405.4,281.4z M469.8,286.5c0-0.5,0-1,0-1.5c-7.1-0.2-22.4,2-25.9,5.1c-0.4,0.6,0,2.2-0.5,3.1
		c-1.1,1.9-1.7-0.5-1.9,3.6c0.3,0,0.6,0,0.9,0c0.6-2.8,1.8-4.2,3.7-5.6c9.1-6.7,10.8,4.3,18.5,4.1c4.9-0.1,5.9-4.1,9.3-5.6
		c6.8-3.1,11.2,3,13,7.7c0.2,0,0.3,0,0.5,0c0-0.9,0-1.7,0-2.6c0,0-1.8-4.3-2.3-4.6C482,287.4,474.7,286.5,469.8,286.5z M444.3,340.6
		c-0.8-10.7,1.8-11.8,4.2-18.9c-0.8-0.6-1.3-1.1-1.9-2c0.3,0,0.6,0,0.9,0c0.7,1.2,0.7,1.2,2.3,1.5c2-3.2,5.5-2.8,8.3-5.1
		c-4.5-1.6-10.5-2.2-13-6.1c0.3,0,0.6,0,0.9,0c3.7,5.1,17.7,7.7,26.4,5.1c2.3-0.7,4.4-2.1,6.9-2.6c0,0.2,0,0.3,0,0.5
		c-0.3,0-0.6,0-0.9,0c-3,2.9-8.8,1.3-12,3.6c0.2,0,0.3,0,0.5,0c1.7,1.2,12.3,0,17.1,0c0.4-0.9,0.6-0.9,0.9-2
		c1.9-2.6,0.7-5.1,0.5-7.7c-0.1-1.3,0.7-4.5,0.9-6.1c0.8-5.1-3.9-8-6-10.2c-3.1-0.2-4.3-0.1-6.9,0.5c0,0.9,0,1.7,0,2.6
		c1.2,0.8,2.5,2.2,4.2,2.6c1.6,0.4,1.9-0.8,3.2,0c-1.9,0.2-3.7,0.9-5.6,0c-1.8-0.9-2-3.4-3.7-3.1c-0.6,0.7-2,2.1-1.4,2.6
		c1.8,1.9,4.1,2.3,4.6,5.6c-0.5,0.2-0.9,0.3-1.4,0.5c-1.1,1-2,0.3-3.7,1c-0.8,0.3-1.8,1.7-2.8,2c-4.8,1.5-9.3-2.1-13-3.1
		c-0.3-0.9-0.1-0.5-0.5-1c0.2-0.5,0.3-1,0.5-1.5c1.4-1,4-2.6,5.1-4.1c-1-0.7-1.7-1.5-2.3-2.6c-0.2,0-0.3,0-0.5,0c0,0.2,0,0.3,0,0.5
		c-2,2.2-2.8,3.5-6.9,3.6c-0.4-0.3-1-0.7-1.4-1c2.8,0.2,3.6,0.1,6-0.5c0.5-0.9,1.2-1.8,1.9-2.6c0-0.3,0-0.7,0-1c-0.2,0-0.3,0-0.5,0
		c0-0.2,0-0.3,0-0.5c-2.5-0.5-4.8-1.7-6.9,0c-7.3,2-6.4,13.7-3.2,18.9c-0.3,0-0.6,0-0.9,0c-0.5-0.9-1-1.4-1.9-2c0,1.2,0,2.4,0,3.6
		c1.2,1.7,2.6,5.2,3.2,7.1c-0.2,0-0.3,0-0.5,0c0-0.2,0-0.3,0-0.5c-0.2,0-0.3,0-0.5,0c-0.8-1.4-1.5-2.7-2.3-4.1
		c-0.6-1.8-0.1-4.2-0.9-5.6c0,0.2,0,0.3,0,0.5c-4.9,5.3-6.6,19.5-4.6,29.1c1,0.7,1.1,1.1,2.3,1.5
		C440.4,340.6,442.1,340.7,444.3,340.6z M482.7,293.6c0.3,0.4,0.7,0,0.5,1c-0.2,0-0.3,0-0.5,0c-0.6,0.6-0.8,0.7-1.9,1
		c0-0.2,0-0.3,0-0.5c0.2,0,0.3,0,0.5,0C481.8,294.6,482.3,294.3,482.7,293.6z M442,305.9c0.1-4.5-0.7-7.8-1.9-11.2
		c-0.6,0.3-1.4,0.6-1.9,1c-0.3,0.5-0.3,0.5-0.5,1.5c1.2,2,1.8,6.5,2.8,8.7C441.1,305.9,441.5,305.9,442,305.9z M446.6,294.7
		c0.5,0.2,0.9,0.3,1.4,0.5c0,0.2,0,0.3,0,0.5C446.9,295.2,447.3,295.5,446.6,294.7z M459.6,294.7c0.2,0.8,0.3,0.9,0.5,2
		c-2.4,0.6-4,2.1-5.1,4.1c4.9,0.2,6.9,4.3,11.1,3.1c1.7-0.5,2.8-2.5,4.2-3.1c2.1-0.9,1.9,1.2,3.2-1c-1-0.7-3.8-2-4.6-3.1
		c-1.3-1.6,1.3-1.2-0.5-2C466.2,296.6,462,295.3,459.6,294.7z M486.9,305.9c0.5,0,0.9,0,1.4,0c1.5-2.8,2.6-5.8,2.8-10.2
		c-0.9-0.4-1.2-0.7-2.3-1C488.3,299,487,300.9,486.9,305.9z M454,306.4c6.6,0,13.8,0,20.4,0c0.9,1.5,1.3,1.5,1.4,4.1
		c-0.4,0.5-0.2,0.1-0.5,1c-5.4,2-14.9,0.6-21.3,0.5c-0.7-1.3-1.1-1.6-1.4-3.6C453.2,307.9,453.6,307.1,454,306.4z M454.5,307.4
		c-0.1,1.3,0.1,1.1,1.9,1.5c0-0.3,0-0.7,0-1c-0.2,0-0.3,0-0.5,0c0-0.2,0-0.3,0-0.5C455.4,307.4,455,307.4,454.5,307.4z M456.8,307.4
		c0.1,1.3,0.2,1.7,0.5,2.6c0.2,0,0.3,0,0.5,0c0-0.2,0-0.3,0-0.5c0.3-0.5,0.3-0.5,0.5-1.5C457.7,307.8,457.3,307.6,456.8,307.4z
		 M471.2,307.4c-0.5,0.8-0.5,0.4-0.9,1.5c0.2,0,0.3,0,0.5,0c0.6,1.3-0.2,0.3,0.9,1C471.6,308.7,471.6,308.1,471.2,307.4z
		 M472.6,307.4c0.2,1.1,0.1,1,0.5,1.5c0.4-0.3,1-0.7,1.4-1c-0.2,0-0.3,0-0.5,0c0-0.2,0-0.3,0-0.5C473.5,307.4,473,307.4,472.6,307.4
		z M459.1,307.9c0.1,1.4,0.4,1.1,2.8,1c1.9,1.4,5.5,0.1,7.9,0c0-0.2,0-0.3,0-0.5C467.2,307.5,462.5,307.9,459.1,307.9z M484.1,308.4
		c0.3,0,0.6,0,0.9,0c-0.2,0.3-0.3,0.7-0.5,1c-1.4,0.9-2.3,2-4.2,2.6c0-0.2,0-0.3,0-0.5c0.2,0,0.3,0,0.5,0
		C481.9,310.3,483.2,309.8,484.1,308.4z M454,308.9c0,1.6,0.1,2,2.8,2c0-0.3,0-0.7,0-1C455.9,309.6,455,309.3,454,308.9z
		 M473.9,308.9c-0.5,0.4-0.8,0.4-1.9,0.5c0,0.3,0,0.7,0,1c-0.2,0-0.3,0-0.5,0c0,0.2,0,0.3,0,0.5c0.9,0,1.9,0,2.8,0
		C474.4,309.2,475.1,310.1,473.9,308.9z M485.1,340.6c2.6,0,3.7-0.5,5.6-1c5.7-9.6-0.4-21.5-2.8-30.6c-0.3,0-0.6,0-0.9,0
		c-0.1,3.3-1.3,5-1.9,7.1C485.1,324.3,485.1,332.4,485.1,340.6z M469.8,309.5c-2.1,1.5-8.5,0.6-11.6,0.5c0,0.3,0,0.7,0,1
		c4.2,0,8.3,0,12.5,0c0-0.2,0-0.3,0-0.5C470.3,310.1,470.2,309.8,469.8,309.5z M479.5,312c0.3,0,0.6,0,0.9,0c0,0.2,0,0.3,0,0.5
		C479.6,312.2,480,312.4,479.5,312z M445.2,356.4c0,8.2,0,16.3,0,24.5c4.6,0,9.3,0,13.9,0c0.4-1.7-0.2-0.8,0.9-1.5
		c2.5,2.6,8.6,2.3,12,1c6.3-2.4,14.6-10.1,11.6-22c-2.1-8.2-9.2-9.9-13-15.8c3.2-1.2,8.9-0.6,13-0.5c0-8.2,0-16.3,0-24.5
		c-4.5,0-8.9,0-13.4,0c-0.9,0.4,0.1,1.8-1.9,1.5c-0.3,0-1.9-1.4-2.3-1.5c-3.9-1.4-9.7-0.3-12.5,1.5c-15.3,10-7.3,29.6,4.6,36.3
		c0,0.3,0,0.7,0,1C453.9,356.4,449.6,356.4,445.2,356.4z M472.6,320.7c2.8,0,5.6,0,8.3,0c1.4,4.6,0.5,12.8,0.5,18.4
		c-4.3,0-8.6,0-13,0c-2.3-1.1-2.4-3.6-6-4.1c-0.5,0.8-0.5,0.4-0.9,1.5c-1.2,3.1,3.7,5.1,5.6,6.6c4.2,3.4,11.1,8.4,13.4,13.8
		c4.3,9.7-3.4,19.6-9.7,21.4c-6.1,1.8-11.4-3.9-13.4-3.1c-1.2,0.7-0.8,0.6-0.9,2.6c-2.9,0-5.9,0-8.8,0c0-6.1,0-12.3,0-18.4
		c9-0.2,13.3-0.5,17.6,4.6c0.8-0.3,0.4-0.1,0.9-0.5c1.3-0.6,0.9-0.1,1.4-1.5c0.3-0.5,0.3-0.5,0.5-1.5c-4.5-3.1-18.4-15-19.9-20.4
		c-2.7-10,6.1-23.3,16.7-19.9c2.8,0.9,4,3.1,7.4,3.6c0-0.2,0-0.3,0-0.5c0.2,0,0.3,0,0.5,0C472.6,322.4,472.6,321.5,472.6,320.7z
		 M442.9,341.6c-0.8,0.6-2.7,0.8-3.7,1c0,2.6,0,5.1,0,7.7c0.2,0,0.3,0,0.5,0c0,0.2,0,0.3,0,0.5c4.6,0.3,7.9,1.9,13,2
		c0-0.2,0-0.3,0-0.5C449.5,350.2,445.1,342,442.9,341.6z M485.1,341.6c-0.2,1.1-0.1,1-0.5,1.5c-2,1.4-8.1,0.6-11.1,0.5
		c0,0.2,0,0.3,0,0.5c0.2,0,0.3,0,0.5,0c1.6,1.9,7.6,8,10.2,8.2c1.2-0.9,3.8-1.3,5.6-1.5c0-2.7,0-5.4,0-8.2c-0.2,0-0.3,0-0.5,0
		c0-0.2,0-0.3,0-0.5C487.8,342,486.4,341.8,485.1,341.6z M439.2,351.3c0,1,0,2,0,3.1c4.8,0.4,10.3,1,16.2,1c0-0.2,0-0.3,0-0.5
		c-1.3-0.8-2.3-1-4.6-1C446.9,353,443.1,352.2,439.2,351.3z M482.7,352.9c0.2,0.9,0.3,1.7,0.5,2.6c0.8,0,1.5,0,2.3,0
		c1-0.7,2.8-0.8,3.7-1.5c0.4-0.6,0.4-0.9,0.5-2C487.4,352.2,485.1,352.5,482.7,352.9z M443.9,355.9c-1.5-0.3-3.1-0.7-4.6-1
		c0,6,0,11.9,0,17.9c1.5,0.5,3.1,1,4.6,1.5C443.9,368.2,443.9,362,443.9,355.9z M484.1,355.9c0.7,8.9,0.8,12.9-2.8,19.4
		c0.6,0,1.2,0,1.9,0c1.5-1.3,4.4-2,6.5-2.6c0-6,0-11.9,0-17.9c-0.3,0-0.6,0-0.9,0C487.7,355.7,485.9,355.9,484.1,355.9z
		 M438.8,373.3c-0.6,1.4-0.9,2.2-0.9,4.6c1.8,1.2,3.8,2.1,6,3.1c0-1.9,0-3.7,0-5.6C442.2,374.6,440.5,374,438.8,373.3z M489.7,373.3
		c-2.5,2.1-6.2,1.3-9.3,3.1c-0.6,0.9-1.2,1.7-1.9,2.6c-2.6,2.1-6.5,3.3-10.2,4.1c-4.2,0.9-14.3-3.8-19-0.5c11.2,0.9,22.1,2.2,32.4-1
		C484.7,380.5,496.3,378.8,489.7,373.3z"/>
</g>
<g id="leaf">
	<path class="st4" d="M1060.9,258.2c0,0,42-15.6,57.8-52.7c0,0-16.2,27.9-42.7,41.8c0,0-8.4-23,4-33.8
		c12.4-10.7,46.9-17.8,51.6-39.8c0,0,13.7,78-52.5,78.3c0,0-12.3,8-17.8,10C1061.3,262,1058,260.5,1060.9,258.2z"/>
</g>
</svg>
