<?xml version="1.0" encoding="utf-8"?>
<!-- Generator: Adobe Illustrator 21.0.0, SVG Export Plug-In . SVG Version: 6.00 Build 0)  -->
<svg version="1.1" id="Layer_1" xmlns="http://www.w3.org/2000/svg" xmlns:xlink="http://www.w3.org/1999/xlink" x="0px" y="0px"
	 viewBox="0 0 424.7 424.7" style="enable-background:new 0 0 424.7 424.7;" xml:space="preserve">
<style type="text/css">
	.st0{fill:#EDEDED;}
	.st1{fill:#332928;}
	.st2{fill:#C6C6C6;}
	.st3{fill:#282828;}
	.st4{fill:#CE4545;}
	.st5{fill:#D83A3A;}
	.st6{fill:#ECE9D5;}
</style>
<rect x="-2064.8" y="-209.1" class="st0" width="1606.9" height="869.7"/>
<rect x="-1304.1" y="-209.1" class="st1" width="846.1" height="869.7"/>
<image style="overflow:visible;" width="212" height="35" xlink:href="F8089194.png"  transform="matrix(1 0 0 1 -2044.3438 -190.0954)">
</image>
<g>
	<path class="st2" d="M-1804.9-36.9l-6.4-35.6h5.6l4.5,27.7l4.5-27.7h5.6l-6.5,35.6H-1804.9z"/>
	<path class="st2" d="M-1786.5-36.9v-35.6h15.3v5.4h-9.9v9.7h7.2v5.4h-7.2v9.7h9.9v5.4H-1786.5z"/>
	<path class="st2" d="M-1759-36.4c-2.4,0-4.4-0.8-6-2.5c-1.7-1.7-2.5-3.7-2.5-6v-19.4c0-2.4,0.8-4.4,2.5-6c1.7-1.7,3.7-2.5,6-2.5
		c2.4,0,4.4,0.8,6,2.5c1.6,1.7,2.5,3.7,2.5,6v4.1h-5.6v-4.2c0-0.9-0.3-1.6-0.9-2.2c-0.6-0.6-1.3-0.9-2.2-0.9c-0.9,0-1.6,0.3-2.2,0.9
		c-0.6,0.6-0.9,1.3-0.9,2.2V-45c0,0.9,0.3,1.6,0.9,2.2c0.6,0.6,1.3,0.9,2.2,0.9c0.9,0,1.6-0.3,2.2-0.9c0.6-0.6,0.9-1.3,0.9-2.2v-4.9
		h5.6v5c0,2.4-0.8,4.4-2.5,6C-1754.7-37.3-1756.7-36.4-1759-36.4z"/>
	<path class="st2" d="M-1741.1-67.1h-5.7v-5.4h16.8v5.4h-5.7v30.2h-5.4V-67.1z"/>
	<path class="st2" d="M-1717.9-73c2.4,0,4.4,0.8,6,2.5c1.7,1.7,2.5,3.7,2.5,6V-45c0,2.4-0.8,4.4-2.5,6c-1.7,1.7-3.7,2.5-6,2.5
		c-2.4,0-4.4-0.8-6-2.5c-1.6-1.7-2.5-3.7-2.5-6v-19.4c0-2.4,0.8-4.4,2.5-6C-1722.2-72.1-1720.2-73-1717.9-73z M-1715-64.5
		c0-0.9-0.3-1.6-0.9-2.2s-1.3-0.9-2.2-0.9c-0.9,0-1.6,0.3-2.2,0.9c-0.6,0.6-0.9,1.3-0.9,2.2v19.5c0,0.9,0.3,1.6,0.9,2.2
		c0.6,0.6,1.3,0.9,2.2,0.9c0.9,0,1.6-0.3,2.2-0.9c0.6-0.6,0.9-1.3,0.9-2.2V-64.5z"/>
	<path class="st2" d="M-1696.2-72.5c3,0,5.2,0.8,6.6,2.5c1.2,1.4,1.8,3.4,1.8,6v5.2c0,2.5-1,4.6-2.9,6.4l4,15.5h-5.8l-3.3-13.4
		c-0.2,0-0.3,0-0.5,0h-3.1v13.4h-5.4v-35.6H-1696.2z M-1692.9-63.9c0-2.1-1-3.1-3.1-3.1h-3.2v11.4h3.2c0.9,0,1.6-0.3,2.2-0.9
		c0.6-0.6,0.9-1.3,0.9-2.2V-63.9z"/>
	<path class="st2" d="M-1673.9-36.9h-5.4v-35.6h15.3v5.4h-9.9v9.7h7.2v5.4h-7.2V-36.9z"/>
	<path class="st2" d="M-1651.8-72.5c3,0,5.2,0.8,6.6,2.5c1.2,1.4,1.8,3.4,1.8,6v5.2c0,2.5-1,4.6-2.9,6.4l4,15.5h-5.8l-3.3-13.4
		c-0.2,0-0.3,0-0.5,0h-3.1v13.4h-5.4v-35.6H-1651.8z M-1648.6-63.9c0-2.1-1-3.1-3.1-3.1h-3.2v11.4h3.2c0.9,0,1.6-0.3,2.2-0.9
		c0.6-0.6,0.9-1.3,0.9-2.2V-63.9z"/>
	<path class="st2" d="M-1637.6-36.9v-35.6h15.3v5.4h-9.9v9.7h7.2v5.4h-7.2v9.7h9.9v5.4H-1637.6z"/>
	<path class="st2" d="M-1618.7-36.9v-35.6h15.3v5.4h-9.9v9.7h7.2v5.4h-7.2v9.7h9.9v5.4H-1618.7z"/>
	<path class="st2" d="M-1599.7-36.9v-35.6h8c2.1,0,4,0.6,5.7,1.7c1.5,0.9,2.5,2.4,3.1,4.4c0.3,1.1,0.5,2.3,0.5,3.8
		c0,2.4-0.6,4.3-1.9,5.7c-0.5,0.6-1.2,1.1-1.9,1.4c1.2,0.5,2.2,1.4,3,2.7c0.5,0.9,1,2.1,1.2,3.5c0.1,0.7,0.2,1.6,0.2,2.5
		c0,2.3-0.4,4.2-1.3,5.7c-0.7,1.2-1.6,2.2-2.8,3c-1.4,0.8-2.7,1.3-4.1,1.3H-1599.7z M-1593.9-58h2.2c1.7,0,2.8-0.8,3.4-2.4
		c0.2-0.6,0.3-1.4,0.3-2.2c0-1.5-0.4-2.6-1.1-3.4c-0.7-0.7-1.5-1.1-2.6-1.1h-2.2V-58z M-1593.9-42.2h2.2c1.8,0,3.1-0.9,3.8-2.8
		c0.2-0.6,0.4-1.4,0.4-2.2c0-2-0.4-3.4-1.1-4.3c-0.7-0.8-1.7-1.3-3-1.3h-2.2V-42.2z"/>
	<path class="st2" d="M-1571.6-36.9h-5.4v-35.6h5.4V-36.9z"/>
	<path class="st2" d="M-1566.8-36.9v-35.6h15.3v5.4h-9.9v9.7h7.2v5.4h-7.2v9.7h9.9v5.4H-1566.8z"/>
</g>
<g>
	<path class="st3" d="M-1786.5,156.8c-4.9,0-9-1.7-12.4-5.1c-3.4-3.4-5.1-7.5-5.1-12.3V99.6c0-4.9,1.7-9,5.1-12.4
		c3.4-3.4,7.5-5.1,12.3-5.1c4.9,0,9,1.7,12.3,5.1c3.4,3.4,5.1,7.5,5.1,12.3v8.3h-11.4v-8.6c0-1.7-0.6-3.2-1.9-4.5
		c-1.2-1.2-2.7-1.9-4.5-1.9c-1.7,0-3.2,0.6-4.5,1.9c-1.2,1.2-1.8,2.7-1.8,4.5v40c0,1.7,0.6,3.2,1.8,4.5c1.2,1.2,2.7,1.8,4.5,1.8
		c1.7,0,3.2-0.6,4.5-1.8c1.2-1.2,1.9-2.7,1.9-4.5v-10.1h11.4v10.2c0,4.9-1.7,9-5.1,12.3C-1777.7,155.1-1781.8,156.8-1786.5,156.8z"
		/>
	<path class="st3" d="M-1742.9,82c4.9,0,9,1.7,12.4,5.1c3.4,3.4,5.1,7.5,5.1,12.3v39.8c0,4.9-1.7,9-5.1,12.4
		c-3.4,3.4-7.5,5.1-12.3,5.1c-4.9,0-9-1.7-12.3-5.1c-3.4-3.4-5.1-7.5-5.1-12.3V99.4c0-4.9,1.7-9,5.1-12.4
		C-1751.7,83.7-1747.6,82-1742.9,82z M-1736.9,99.2c0-1.7-0.6-3.2-1.8-4.5c-1.2-1.2-2.7-1.8-4.5-1.8c-1.7,0-3.2,0.6-4.5,1.8
		c-1.2,1.2-1.9,2.7-1.9,4.5v40c0,1.7,0.6,3.2,1.9,4.5c1.2,1.2,2.7,1.8,4.5,1.8c1.7,0,3.2-0.6,4.5-1.8c1.2-1.2,1.8-2.7,1.8-4.5V99.2z
		"/>
	<path class="st3" d="M-1704.7,155.9h-11v-73h31.3v11.1h-20.3v19.9h14.9v11.1h-14.9V155.9z"/>
	<path class="st3" d="M-1665.8,155.9h-11v-73h31.3v11.1h-20.3v19.9h14.9v11.1h-14.9V155.9z"/>
	<path class="st3" d="M-1637.9,155.9v-73h31.3v11.1h-20.3v19.9h14.9v11.1h-14.9v19.9h20.3v11.1H-1637.9z"/>
	<path class="st3" d="M-1599,155.9v-73h31.3v11.1h-20.3v19.9h14.9v11.1h-14.9v19.9h20.3v11.1H-1599z"/>
	<path class="st3" d="M-1792.6,254.3v-73h16.5c4.3,0,8.3,1.1,11.8,3.4c3,1.9,5.1,5,6.4,9c0.7,2.2,1,4.8,1,7.7
		c0,4.9-1.3,8.8-3.9,11.8c-1.1,1.2-2.4,2.2-3.8,2.9c2.4,0.9,4.5,2.8,6.2,5.5c1.1,1.9,2,4.3,2.5,7.2c0.3,1.5,0.4,3.2,0.4,5.1
		c0,4.6-0.9,8.5-2.6,11.8c-1.4,2.5-3.3,4.5-5.8,6.1c-2.8,1.7-5.6,2.6-8.3,2.6H-1792.6z M-1780.7,211.1h4.6c3.4,0,5.7-1.7,6.9-5
		c0.4-1.2,0.6-2.8,0.6-4.6c0-3-0.7-5.3-2.2-6.9c-1.4-1.4-3.1-2.2-5.3-2.2h-4.6V211.1z M-1780.7,243.4h4.6c3.7,0,6.3-1.9,7.7-5.8
		c0.5-1.3,0.8-2.8,0.8-4.5c0-4.1-0.8-7-2.3-8.9c-1.4-1.7-3.5-2.6-6.2-2.6h-4.6V243.4z"/>
	<path class="st3" d="M-1733.8,237.5l-2.7,16.8h-11.5l12.4-73h15.1l12.2,73h-11.6l-2.6-16.8H-1733.8z M-1728,198l-4.1,28.8h8.2
		L-1728,198z"/>
	<path class="st3" d="M-1664.3,236.8c0,4.8-1.7,8.9-5.1,12.3c-3.4,3.4-7.5,5.1-12.2,5.1h-17.3v-73h17.3c4.8,0,8.9,1.7,12.3,5.1
		c3.4,3.4,5,7.5,5,12.3V236.8z M-1687.9,243.4h6.6c1.7,0,3.2-0.6,4.4-1.9c1.2-1.3,1.8-2.7,1.8-4.5v-38.2c0-1.7-0.6-3.2-1.8-4.5
		c-1.2-1.2-2.7-1.9-4.4-1.9h-6.6V243.4z"/>
	<path class="st3" d="M-1637.4,255.2c-4.9,0-9-1.7-12.4-5.1c-3.4-3.4-5.1-7.5-5.1-12.3V198c0-4.9,1.7-9,5.1-12.4
		c3.4-3.4,7.5-5.1,12.3-5.1c4.9,0,9,1.7,12.3,5.1c3.4,3.4,5.1,7.5,5.1,12.3v8.3h-11.4v-8.6c0-1.7-0.6-3.2-1.9-4.5
		c-1.2-1.2-2.7-1.9-4.5-1.9s-3.2,0.6-4.5,1.9c-1.2,1.2-1.8,2.7-1.8,4.5v40c0,1.7,0.6,3.2,1.8,4.5c1.2,1.2,2.7,1.8,4.5,1.8
		s3.2-0.6,4.5-1.8c1.2-1.2,1.9-2.7,1.9-4.4v-14.3h-6.1v-11.1h17.5v25.5c0,4.9-1.7,9-5.1,12.3
		C-1628.5,253.5-1632.6,255.2-1637.4,255.2z"/>
	<path class="st3" d="M-1610.4,254.3v-73h31.3v11.1h-20.3v19.9h14.9v11.1h-14.9v19.9h20.3v11.1H-1610.4z"/>
</g>
<g>
	<path class="st3" d="M-1444.4-150.1l-1.8,11h9l-1.3,8.8h-9.1l-2.3,13.7h-8.7l2.3-13.7h-7.6l-2.3,13.7h-8.7l2.3-13.7h-8.6l1.3-8.8
		h8.7l1.8-11h-8.6l1.3-8.8h8.7l2.6-15.7h8.7l-2.6,15.7h7.6l2.6-15.7h8.7l-2.6,15.7h9l-1.3,8.8H-1444.4z M-1453.1-150.1h-7.5l-1.8,11
		h7.5L-1453.1-150.1z"/>
	<path class="st3" d="M-1427.9-137.9l15.4-36.7h8.7v36.7h5.6v8.8h-5.6v12.5h-8.7v-12.5h-15.4V-137.9z M-1412.5-137.9V-156l-7.2,18.1
		H-1412.5z"/>
	<path class="st3" d="M-1363.3-129.8c0,3.8-1.4,7.1-4.1,9.8c-2.7,2.7-6,4-9.7,4c-3.8,0-7.1-1.3-9.8-4c-2.7-2.7-4-5.9-4-9.8v-31.6
		c0-3.8,1.4-7.1,4.1-9.8c2.7-2.7,6-4,9.8-4c3.8,0,7.1,1.4,9.8,4.1c2.7,2.7,4,6,4,9.8V-129.8z M-1372.4-161.6c0-1.4-0.5-2.6-1.5-3.6
		c-1-1-2.2-1.5-3.6-1.5c-1.4,0-2.6,0.5-3.5,1.5c-1,1-1.5,2.2-1.5,3.6v31.6c0,1.4,0.5,2.6,1.5,3.6c1,1,2.1,1.5,3.5,1.5
		c1.4,0,2.6-0.5,3.6-1.5c1-1,1.5-2.2,1.5-3.6V-161.6z"/>
	<path class="st3" d="M-1338.5-160.2v-1.4c0-1.4-0.4-2.6-1.1-3.6c-0.8-1-1.8-1.5-3.2-1.5c-1.4,0-2.5,0.5-3.2,1.5
		c-0.8,1-1.1,2.2-1.1,3.6v11.5c2-1.8,4.2-2.7,6.6-2.7c3.8,0,6.7,1.3,8.6,4c1.7,2.3,2.5,5.6,2.5,9.7v9.9h0c-0.2,3.7-1.5,6.8-4,9.3
		c-2.5,2.5-5.5,3.7-9.1,3.7c-3.8,0-7-1.4-9.5-4.1c-2.4-2.6-3.6-5.9-3.6-9.7v-31.6c0-2.8,0.7-5.4,2.1-7.7c1.4-2.3,3.3-4,5.8-5.1
		c1.6-0.7,3.4-1.1,5.3-1.1c3.8,0,7,1.4,9.5,4.2c2.4,2.6,3.6,5.9,3.6,9.7v1.2H-1338.5z M-1347.2-130c0,1.4,0.4,2.6,1.1,3.5
		c0.8,1,1.9,1.5,3.2,1.5s2.5-0.5,3.2-1.5c0.7-0.9,1.1-2.1,1.1-3.5v-10.7c0-1.7-0.6-3-1.9-4.2c-0.6-0.5-1.4-0.8-2.5-0.8
		c-1.5,0-2.7,0.6-3.4,1.8c-0.6,1-0.9,2.1-0.9,3.3V-130z"/>
</g>
<g>
	<path class="st3" d="M-2019,639.9c-2.4,0-4.4-0.8-6-2.5c-1.7-1.7-2.5-3.7-2.5-6V612c0-2.4,0.8-4.4,2.5-6c1.7-1.7,3.7-2.5,6-2.5
		c2.4,0,4.4,0.8,6,2.5c1.6,1.7,2.5,3.7,2.5,6v4.1h-5.6v-4.2c0-0.9-0.3-1.6-0.9-2.2c-0.6-0.6-1.3-0.9-2.2-0.9c-0.9,0-1.6,0.3-2.2,0.9
		c-0.6,0.6-0.9,1.3-0.9,2.2v19.5c0,0.9,0.3,1.6,0.9,2.2c0.6,0.6,1.3,0.9,2.2,0.9c0.9,0,1.6-0.3,2.2-0.9c0.6-0.6,0.9-1.3,0.9-2.2v-7
		h-3V619h8.6v12.4c0,2.4-0.8,4.4-2.5,6C-2014.7,639.1-2016.7,639.9-2019,639.9z"/>
	<path class="st3" d="M-1997.4,603.4c2.4,0,4.4,0.8,6,2.5c1.7,1.7,2.5,3.7,2.5,6v19.4c0,2.4-0.8,4.4-2.5,6c-1.7,1.7-3.7,2.5-6,2.5
		c-2.4,0-4.4-0.8-6-2.5c-1.6-1.7-2.5-3.7-2.5-6V612c0-2.4,0.8-4.4,2.5-6C-2001.8,604.3-1999.8,603.4-1997.4,603.4z M-1994.5,611.8
		c0-0.9-0.3-1.6-0.9-2.2c-0.6-0.6-1.3-0.9-2.2-0.9c-0.9,0-1.6,0.3-2.2,0.9c-0.6,0.6-0.9,1.3-0.9,2.2v19.5c0,0.9,0.3,1.6,0.9,2.2
		c0.6,0.6,1.3,0.9,2.2,0.9c0.9,0,1.6-0.3,2.2-0.9c0.6-0.6,0.9-1.3,0.9-2.2V611.8z"/>
	<path class="st3" d="M-1975.8,609.3h-5.7v-5.4h16.8v5.4h-5.7v30.2h-5.4V609.3z"/>
	<path class="st3" d="M-1952.6,603.4c2.4,0,4.4,0.8,6,2.5c1.7,1.7,2.5,3.7,2.5,6v19.4c0,2.4-0.8,4.4-2.5,6c-1.7,1.7-3.7,2.5-6,2.5
		c-2.4,0-4.4-0.8-6-2.5c-1.6-1.7-2.5-3.7-2.5-6V612c0-2.4,0.8-4.4,2.5-6C-1956.9,604.3-1954.9,603.4-1952.6,603.4z M-1949.6,611.8
		c0-0.9-0.3-1.6-0.9-2.2c-0.6-0.6-1.3-0.9-2.2-0.9c-0.9,0-1.6,0.3-2.2,0.9c-0.6,0.6-0.9,1.3-0.9,2.2v19.5c0,0.9,0.3,1.6,0.9,2.2
		c0.6,0.6,1.3,0.9,2.2,0.9c0.9,0,1.6-0.3,2.2-0.9c0.6-0.6,0.9-1.3,0.9-2.2V611.8z"/>
	<path class="st4" d="M-1928.2,603.9c2.6,0,4.7,0.8,6.3,2.5c1.4,1.6,2.2,3.6,2.2,6v5.2c0,2.3-0.8,4.4-2.5,6s-3.6,2.5-6,2.5h-3.1
		v13.4h-5.4v-35.6H-1928.2z M-1925,612.5c0-0.9-0.3-1.7-0.8-2.2c-0.6-0.6-1.3-0.9-2.2-0.9h-3.2v11.4h3.2c0.9,0,1.6-0.3,2.2-0.9
		c0.6-0.6,0.9-1.3,0.9-2.2V612.5z"/>
	<path class="st4" d="M-1910.1,639.5h-5.4v-35.6h5.4V639.5z"/>
	<path class="st4" d="M-1885.9,639.5h-5.8l-4.1-11.3l-4.2,11.3h-5.8l7-17.9l-7-17.7h5.9l4,11l3.9-11h5.9l-7,17.7L-1885.9,639.5z"/>
	<path class="st4" d="M-1881.4,639.5v-35.6h15.3v5.4h-9.9v9.7h7.2v5.4h-7.2v9.7h9.9v5.4H-1881.4z"/>
	<path class="st4" d="M-1847.8,639.5h-14.6v-35.6h5.4v30.3h9.3V639.5z"/>
	<path class="st4" d="M-1831.2,603.8v5.4l-7.5,30.2h-5.3l7.5-30.2h-10.9v-5.4H-1831.2z"/>
	<path class="st4" d="M-1811.4,603.8v5.4l-7.5,30.2h-5.3l7.5-30.2h-10.9v-5.4H-1811.4z"/>
	<path class="st4" d="M-1807.7,634.1h5.4v5.4h-5.4V634.1z"/>
	<path class="st4" d="M-1790.1,639.9c-2.4,0-4.4-0.8-6-2.5c-1.7-1.7-2.5-3.7-2.5-6V612c0-2.4,0.8-4.4,2.5-6c1.7-1.7,3.7-2.5,6-2.5
		c2.4,0,4.4,0.8,6,2.5c1.6,1.7,2.5,3.7,2.5,6v4.1h-5.6v-4.2c0-0.9-0.3-1.6-0.9-2.2c-0.6-0.6-1.3-0.9-2.2-0.9c-0.9,0-1.6,0.3-2.2,0.9
		c-0.6,0.6-0.9,1.3-0.9,2.2v19.5c0,0.9,0.3,1.6,0.9,2.2c0.6,0.6,1.3,0.9,2.2,0.9c0.9,0,1.6-0.3,2.2-0.9c0.6-0.6,0.9-1.3,0.9-2.2
		v-4.9h5.6v5c0,2.4-0.8,4.4-2.5,6C-1785.8,639.1-1787.8,639.9-1790.1,639.9z"/>
	<path class="st4" d="M-1768.8,603.4c2.4,0,4.4,0.8,6,2.5c1.7,1.7,2.5,3.7,2.5,6v19.4c0,2.4-0.8,4.4-2.5,6c-1.7,1.7-3.7,2.5-6,2.5
		c-2.4,0-4.4-0.8-6-2.5c-1.6-1.7-2.5-3.7-2.5-6V612c0-2.4,0.8-4.4,2.5-6C-1773.2,604.3-1771.2,603.4-1768.8,603.4z M-1765.9,611.8
		c0-0.9-0.3-1.6-0.9-2.2c-0.6-0.6-1.3-0.9-2.2-0.9c-0.9,0-1.6,0.3-2.2,0.9c-0.6,0.6-0.9,1.3-0.9,2.2v19.5c0,0.9,0.3,1.6,0.9,2.2
		c0.6,0.6,1.3,0.9,2.2,0.9c0.9,0,1.6-0.3,2.2-0.9c0.6-0.6,0.9-1.3,0.9-2.2V611.8z"/>
	<path class="st4" d="M-1750.2,639.5h-5.4v-35.6h7.7l5,25.6l4.8-25.6h7.4v35.6h-5.4v-22.4l-4.7,22.4h-4.3l-5.2-22.3V639.5z"/>
	<path class="st3" d="M-1716.4,631.3l-1.3,8.2h-5.6l6.1-35.6h7.4l6,35.6h-5.6l-1.3-8.2H-1716.4z M-1713.6,612l-2,14h4L-1713.6,612z"
		/>
	<path class="st3" d="M-1693.3,603.9l7.1,23.9v-23.9h5.4v35.6h-5.8l-7.4-22.8v22.8h-5.4v-35.6H-1693.3z"/>
	<path class="st3" d="M-1659.2,631c0,2.3-0.8,4.4-2.5,6c-1.6,1.7-3.6,2.5-6,2.5h-8.4v-35.6h8.4c2.3,0,4.3,0.8,6,2.5
		c1.6,1.7,2.5,3.7,2.5,6V631z M-1670.7,634.2h3.2c0.9,0,1.6-0.3,2.2-0.9c0.6-0.6,0.9-1.3,0.9-2.2v-18.6c0-0.9-0.3-1.6-0.9-2.2
		c-0.6-0.6-1.3-0.9-2.1-0.9h-3.2V634.2z"/>
	<path class="st3" d="M-1634,630.6c0,2.5-0.6,4.6-1.9,6.4c-0.9,1.2-2.1,2-3.7,2.5c-0.9,0.3-1.8,0.4-3,0.4c-2.1,0-3.8-0.5-5.2-1.6
		c-1.2-0.9-2.1-2-2.7-3.5c-0.7-1.5-1.1-3.1-1.2-5l5.1-0.4c0.2,2.1,0.8,3.6,1.6,4.5c0.6,0.7,1.4,1,2.2,1c1.2,0,2.1-0.6,2.8-1.7
		c0.4-0.5,0.5-1.3,0.5-2.4c0-1.5-0.7-2.9-2-4.4c-1.1-1-2.7-2.5-4.8-4.5c-1.8-1.7-3-3.3-3.8-4.6c-0.8-1.5-1.2-3.2-1.2-5
		c0-3.2,1.1-5.7,3.3-7.4c1.3-1,3-1.5,5-1.5c1.9,0,3.6,0.4,4.9,1.3c1.1,0.7,1.9,1.6,2.6,2.8c0.7,1.2,1,2.6,1.2,4.1l-5.1,0.9
		c-0.2-1.5-0.6-2.6-1.3-3.4c-0.5-0.6-1.2-0.9-2.1-0.9c-1,0-1.7,0.4-2.2,1.3c-0.4,0.7-0.6,1.6-0.6,2.6c0,1.6,0.7,3.3,2.1,5
		c0.5,0.6,1.3,1.4,2.4,2.3c1.3,1,2.1,1.8,2.5,2.2c1.3,1.3,2.3,2.6,3.1,3.9c0.3,0.6,0.6,1.2,0.8,1.7
		C-1634.3,628.5-1634,629.6-1634,630.6z"/>
	<path class="st3" d="M-1621.1,639.9c-2.4,0-4.4-0.8-6-2.5c-1.6-1.6-2.5-3.6-2.5-6v-27.5h5.3v27.5c0,0.9,0.3,1.6,0.9,2.2
		c0.6,0.6,1.3,0.9,2.2,0.9c0.9,0,1.6-0.3,2.2-0.9c0.6-0.6,0.9-1.3,0.9-2.2v-27.5h5.6v27.5c0,2.4-0.8,4.4-2.5,6
		C-1616.7,639.1-1618.8,639.9-1621.1,639.9z"/>
	<path class="st3" d="M-1607.8,639.5v-35.6h8c2.1,0,4,0.6,5.7,1.7c1.5,0.9,2.5,2.4,3.1,4.4c0.3,1.1,0.5,2.3,0.5,3.8
		c0,2.4-0.6,4.3-1.9,5.7c-0.5,0.6-1.2,1.1-1.9,1.4c1.2,0.5,2.2,1.4,3,2.7c0.5,0.9,1,2.1,1.2,3.5c0.1,0.7,0.2,1.6,0.2,2.5
		c0,2.3-0.4,4.2-1.3,5.7c-0.7,1.2-1.6,2.2-2.8,3c-1.4,0.8-2.7,1.3-4.1,1.3H-1607.8z M-1602,618.4h2.2c1.7,0,2.8-0.8,3.4-2.4
		c0.2-0.6,0.3-1.4,0.3-2.2c0-1.5-0.4-2.6-1.1-3.4c-0.7-0.7-1.5-1.1-2.6-1.1h-2.2V618.4z M-1602,634.2h2.2c1.8,0,3.1-0.9,3.8-2.8
		c0.2-0.6,0.4-1.4,0.4-2.2c0-2-0.4-3.4-1.1-4.3c-0.7-0.8-1.7-1.3-3-1.3h-2.2V634.2z"/>
	<path class="st3" d="M-1567.6,630.6c0,2.5-0.6,4.6-1.9,6.4c-0.9,1.2-2.1,2-3.7,2.5c-0.9,0.3-1.8,0.4-3,0.4c-2.1,0-3.8-0.5-5.2-1.6
		c-1.2-0.9-2.1-2-2.7-3.5c-0.7-1.5-1.1-3.1-1.2-5l5.1-0.4c0.2,2.1,0.8,3.6,1.6,4.5c0.6,0.7,1.4,1,2.2,1c1.2,0,2.1-0.6,2.8-1.7
		c0.4-0.5,0.5-1.3,0.5-2.4c0-1.5-0.7-2.9-2-4.4c-1.1-1-2.7-2.5-4.8-4.5c-1.8-1.7-3-3.3-3.8-4.6c-0.8-1.5-1.2-3.2-1.2-5
		c0-3.2,1.1-5.7,3.3-7.4c1.3-1,3-1.5,5-1.5c1.9,0,3.6,0.4,4.9,1.3c1.1,0.7,1.9,1.6,2.6,2.8c0.7,1.2,1,2.6,1.2,4.1l-5.1,0.9
		c-0.2-1.5-0.6-2.6-1.3-3.4c-0.5-0.6-1.2-0.9-2.1-0.9c-1,0-1.7,0.4-2.2,1.3c-0.4,0.7-0.6,1.6-0.6,2.6c0,1.6,0.7,3.3,2.1,5
		c0.5,0.6,1.3,1.4,2.4,2.3c1.3,1,2.1,1.8,2.5,2.2c1.3,1.3,2.3,2.6,3.1,3.9c0.3,0.6,0.6,1.2,0.8,1.7
		C-1567.9,628.5-1567.7,629.6-1567.6,630.6z"/>
	<path class="st3" d="M-1554.7,639.9c-2.4,0-4.4-0.8-6-2.5c-1.7-1.7-2.5-3.7-2.5-6V612c0-2.4,0.8-4.4,2.5-6c1.7-1.7,3.7-2.5,6-2.5
		c2.4,0,4.4,0.8,6,2.5c1.6,1.7,2.5,3.7,2.5,6v4.1h-5.6v-4.2c0-0.9-0.3-1.6-0.9-2.2c-0.6-0.6-1.3-0.9-2.2-0.9c-0.9,0-1.6,0.3-2.2,0.9
		c-0.6,0.6-0.9,1.3-0.9,2.2v19.5c0,0.9,0.3,1.6,0.9,2.2c0.6,0.6,1.3,0.9,2.2,0.9c0.9,0,1.6-0.3,2.2-0.9c0.6-0.6,0.9-1.3,0.9-2.2
		v-4.9h5.6v5c0,2.4-0.8,4.4-2.5,6C-1550.4,639.1-1552.4,639.9-1554.7,639.9z"/>
	<path class="st3" d="M-1533.4,603.9c3,0,5.2,0.8,6.6,2.5c1.2,1.4,1.8,3.4,1.8,6v5.2c0,2.5-1,4.6-2.9,6.4l4,15.5h-5.8l-3.3-13.4
		c-0.2,0-0.3,0-0.5,0h-3.1v13.4h-5.4v-35.6H-1533.4z M-1530.2,612.5c0-2.1-1-3.1-3.1-3.1h-3.2v11.4h3.2c0.9,0,1.6-0.3,2.2-0.9
		c0.6-0.6,0.9-1.3,0.9-2.2V612.5z"/>
	<path class="st3" d="M-1513.9,639.5h-5.4v-35.6h5.4V639.5z"/>
	<path class="st3" d="M-1509.1,639.5v-35.6h8c2.1,0,4,0.6,5.7,1.7c1.5,0.9,2.5,2.4,3.1,4.4c0.3,1.1,0.5,2.3,0.5,3.8
		c0,2.4-0.6,4.3-1.9,5.7c-0.5,0.6-1.2,1.1-1.9,1.4c1.2,0.5,2.2,1.4,3,2.7c0.5,0.9,1,2.1,1.2,3.5c0.1,0.7,0.2,1.6,0.2,2.5
		c0,2.3-0.4,4.2-1.3,5.7c-0.7,1.2-1.6,2.2-2.8,3c-1.4,0.8-2.7,1.3-4.1,1.3H-1509.1z M-1503.3,618.4h2.2c1.7,0,2.8-0.8,3.4-2.4
		c0.2-0.6,0.3-1.4,0.3-2.2c0-1.5-0.4-2.6-1.1-3.4c-0.7-0.7-1.5-1.1-2.6-1.1h-2.2V618.4z M-1503.3,634.2h2.2c1.8,0,3.1-0.9,3.8-2.8
		c0.2-0.6,0.4-1.4,0.4-2.2c0-2-0.4-3.4-1.1-4.3c-0.7-0.8-1.7-1.3-3-1.3h-2.2V634.2z"/>
	<path class="st3" d="M-1486.3,639.5v-35.6h15.3v5.4h-9.9v9.7h7.2v5.4h-7.2v9.7h9.9v5.4H-1486.3z"/>
	<path class="st3" d="M-1458,609.3h-5.7v-5.4h16.8v5.4h-5.7v30.2h-5.4V609.3z"/>
	<path class="st3" d="M-1434.7,603.4c2.4,0,4.4,0.8,6,2.5c1.7,1.7,2.5,3.7,2.5,6v19.4c0,2.4-0.8,4.4-2.5,6c-1.7,1.7-3.7,2.5-6,2.5
		c-2.4,0-4.4-0.8-6-2.5c-1.6-1.7-2.5-3.7-2.5-6V612c0-2.4,0.8-4.4,2.5-6C-1439,604.3-1437,603.4-1434.7,603.4z M-1431.8,611.8
		c0-0.9-0.3-1.6-0.9-2.2c-0.6-0.6-1.3-0.9-2.2-0.9c-0.9,0-1.6,0.3-2.2,0.9c-0.6,0.6-0.9,1.3-0.9,2.2v19.5c0,0.9,0.3,1.6,0.9,2.2
		c0.6,0.6,1.3,0.9,2.2,0.9c0.9,0,1.6-0.3,2.2-0.9c0.6-0.6,0.9-1.3,0.9-2.2V611.8z"/>
	<path class="st5" d="M-1410.3,603.9c3,0,5.2,0.8,6.6,2.5c1.2,1.4,1.8,3.4,1.8,6v5.2c0,2.5-1,4.6-2.9,6.4l4,15.5h-5.8l-3.3-13.4
		c-0.2,0-0.3,0-0.5,0h-3.1v13.4h-5.4v-35.6H-1410.3z M-1407.1,612.5c0-2.1-1-3.1-3.1-3.1h-3.2v11.4h3.2c0.9,0,1.6-0.3,2.2-0.9
		c0.6-0.6,0.9-1.3,0.9-2.2V612.5z"/>
	<path class="st5" d="M-1380.3,630.6c0,2.5-0.6,4.6-1.9,6.4c-0.9,1.2-2.1,2-3.7,2.5c-0.9,0.3-1.8,0.4-3,0.4c-2.1,0-3.8-0.5-5.2-1.6
		c-1.2-0.9-2.1-2-2.7-3.5c-0.7-1.5-1.1-3.1-1.2-5l5.1-0.4c0.2,2.1,0.8,3.6,1.6,4.5c0.6,0.7,1.4,1,2.2,1c1.2,0,2.1-0.6,2.8-1.7
		c0.4-0.5,0.5-1.3,0.5-2.4c0-1.5-0.7-2.9-2-4.4c-1.1-1-2.7-2.5-4.8-4.5c-1.8-1.7-3-3.3-3.8-4.6c-0.8-1.5-1.2-3.2-1.2-5
		c0-3.2,1.1-5.7,3.3-7.4c1.3-1,3-1.5,5-1.5c1.9,0,3.6,0.4,4.9,1.3c1.1,0.7,1.9,1.6,2.6,2.8c0.7,1.2,1,2.6,1.2,4.1l-5.1,0.9
		c-0.2-1.5-0.6-2.6-1.3-3.4c-0.5-0.6-1.2-0.9-2.1-0.9c-1,0-1.7,0.4-2.2,1.3c-0.4,0.7-0.6,1.6-0.6,2.6c0,1.6,0.7,3.3,2.1,5
		c0.5,0.6,1.3,1.4,2.4,2.3c1.3,1,2.1,1.8,2.5,2.2c1.3,1.3,2.3,2.6,3.1,3.9c0.3,0.6,0.6,1.2,0.8,1.7
		C-1380.5,628.5-1380.3,629.6-1380.3,630.6z"/>
	<path class="st5" d="M-1358.8,630.6c0,2.5-0.6,4.6-1.9,6.4c-0.9,1.2-2.1,2-3.7,2.5c-0.9,0.3-1.8,0.4-3,0.4c-2.1,0-3.8-0.5-5.2-1.6
		c-1.2-0.9-2.1-2-2.7-3.5c-0.7-1.5-1.1-3.1-1.2-5l5.1-0.4c0.2,2.1,0.8,3.6,1.6,4.5c0.6,0.7,1.4,1,2.2,1c1.2,0,2.1-0.6,2.8-1.7
		c0.4-0.5,0.5-1.3,0.5-2.4c0-1.5-0.7-2.9-2-4.4c-1.1-1-2.7-2.5-4.8-4.5c-1.8-1.7-3-3.3-3.8-4.6c-0.8-1.5-1.2-3.2-1.2-5
		c0-3.2,1.1-5.7,3.3-7.4c1.3-1,3-1.5,5-1.5c1.9,0,3.6,0.4,4.9,1.3c1.1,0.7,1.9,1.6,2.6,2.8c0.7,1.2,1,2.6,1.2,4.1l-5.1,0.9
		c-0.2-1.5-0.6-2.6-1.3-3.4c-0.5-0.6-1.2-0.9-2.1-0.9c-1,0-1.7,0.4-2.2,1.3c-0.4,0.7-0.6,1.6-0.6,2.6c0,1.6,0.7,3.3,2.1,5
		c0.5,0.6,1.3,1.4,2.4,2.3c1.3,1,2.1,1.8,2.5,2.2c1.3,1.3,2.3,2.6,3.1,3.9c0.3,0.6,0.6,1.2,0.8,1.7
		C-1359.1,628.5-1358.8,629.6-1358.8,630.6z"/>
	<path class="st5" d="M-1355.1,634.1h5.4v5.4h-5.4V634.1z"/>
</g>
<g>
	<path d="M-1889.1,574.4v-15.7h5.9c1.2,0,2.2,0.2,2.9,0.5c0.7,0.3,1.3,0.8,1.7,1.5c0.4,0.7,0.6,1.4,0.6,2.1c0,0.7-0.2,1.3-0.5,1.9
		c-0.4,0.6-0.9,1.1-1.7,1.4c1,0.3,1.7,0.8,2.2,1.4c0.5,0.7,0.8,1.5,0.8,2.4c0,0.7-0.2,1.4-0.5,2.1c-0.3,0.6-0.7,1.1-1.2,1.5
		c-0.5,0.3-1,0.6-1.7,0.8c-0.7,0.2-1.5,0.3-2.5,0.3H-1889.1z M-1887,565.3h3.4c0.9,0,1.6-0.1,2-0.2c0.5-0.2,0.9-0.4,1.2-0.8
		c0.3-0.4,0.4-0.8,0.4-1.4c0-0.5-0.1-1-0.4-1.4c-0.3-0.4-0.6-0.7-1.1-0.8c-0.5-0.1-1.3-0.2-2.4-0.2h-3.1V565.3z M-1887,572.6h3.9
		c0.7,0,1.1,0,1.4-0.1c0.5-0.1,0.9-0.2,1.2-0.4c0.3-0.2,0.6-0.5,0.8-0.9c0.2-0.4,0.3-0.8,0.3-1.3c0-0.6-0.2-1.1-0.5-1.5
		c-0.3-0.4-0.7-0.7-1.3-0.9c-0.5-0.2-1.3-0.3-2.3-0.3h-3.6V572.6z"/>
	<path d="M-1866.8,570.8l2,0.2c-0.3,1.2-0.9,2.1-1.8,2.7c-0.9,0.6-1.9,1-3.3,1c-1.7,0-3-0.5-4-1.5c-1-1-1.5-2.5-1.5-4.3
		c0-1.9,0.5-3.4,1.5-4.5c1-1.1,2.3-1.6,3.8-1.6c1.5,0,2.8,0.5,3.7,1.6c1,1,1.5,2.5,1.5,4.4c0,0.1,0,0.3,0,0.5h-8.5
		c0.1,1.3,0.4,2.2,1.1,2.9c0.6,0.7,1.4,1,2.4,1c0.7,0,1.3-0.2,1.8-0.6C-1867.5,572.2-1867.1,571.6-1866.8,570.8z M-1873.1,567.6h6.4
		c-0.1-1-0.3-1.7-0.7-2.2c-0.6-0.7-1.4-1.1-2.4-1.1c-0.9,0-1.6,0.3-2.2,0.9C-1872.7,565.9-1873.1,566.6-1873.1,567.6z"/>
	<path d="M-1852,572.7l0.3,1.7c-0.5,0.1-1,0.2-1.5,0.2c-0.7,0-1.2-0.1-1.6-0.3c-0.4-0.2-0.7-0.5-0.8-0.9c-0.2-0.4-0.2-1.1-0.2-2.3
		v-6.6h-1.4V563h1.4v-2.8l1.9-1.2v4h1.9v1.5h-1.9v6.7c0,0.6,0,0.9,0.1,1.1c0.1,0.2,0.2,0.3,0.3,0.4c0.2,0.1,0.4,0.1,0.7,0.1
		C-1852.7,572.8-1852.4,572.8-1852,572.7z"/>
	<path d="M-1850.1,574.4v-15.7h1.9v5.7c0.9-1,2-1.6,3.4-1.6c0.8,0,1.6,0.2,2.2,0.5c0.6,0.3,1.1,0.8,1.3,1.4c0.3,0.6,0.4,1.4,0.4,2.6
		v7.2h-1.9v-7.2c0-1-0.2-1.7-0.6-2.1c-0.4-0.4-1-0.7-1.8-0.7c-0.6,0-1.1,0.1-1.6,0.4c-0.5,0.3-0.9,0.7-1.1,1.2
		c-0.2,0.5-0.3,1.2-0.3,2.1v6.2H-1850.1z"/>
	<path d="M-1830.1,570.8l2,0.2c-0.3,1.2-0.9,2.1-1.8,2.7c-0.9,0.6-1.9,1-3.3,1c-1.7,0-3-0.5-4-1.5c-1-1-1.5-2.5-1.5-4.3
		c0-1.9,0.5-3.4,1.5-4.5c1-1.1,2.3-1.6,3.8-1.6c1.5,0,2.8,0.5,3.7,1.6c1,1,1.5,2.5,1.5,4.4c0,0.1,0,0.3,0,0.5h-8.5
		c0.1,1.3,0.4,2.2,1.1,2.9c0.6,0.7,1.4,1,2.4,1c0.7,0,1.3-0.2,1.8-0.6C-1830.8,572.2-1830.4,571.6-1830.1,570.8z M-1836.5,567.6h6.4
		c-0.1-1-0.3-1.7-0.7-2.2c-0.6-0.7-1.4-1.1-2.4-1.1c-0.9,0-1.6,0.3-2.2,0.9C-1836.1,565.9-1836.4,566.6-1836.5,567.6z"/>
	<path d="M-1819.1,574.4v-9.9h-1.7V563h1.7v-1.2c0-0.8,0.1-1.3,0.2-1.7c0.2-0.5,0.5-0.9,1-1.2c0.5-0.3,1.1-0.5,2-0.5
		c0.5,0,1.1,0.1,1.8,0.2l-0.3,1.7c-0.4-0.1-0.8-0.1-1.1-0.1c-0.6,0-1,0.1-1.2,0.4c-0.2,0.3-0.4,0.7-0.4,1.4v1.1h2.2v1.5h-2.2v9.9
		H-1819.1z"/>
	<path d="M-1813.4,560.9v-2.2h1.9v2.2H-1813.4z M-1813.4,574.4V563h1.9v11.4H-1813.4z"/>
	<path d="M-1808.6,574.4V563h1.7v1.7c0.4-0.8,0.9-1.3,1.2-1.6c0.4-0.3,0.8-0.4,1.2-0.4c0.7,0,1.3,0.2,2,0.6l-0.7,1.8
		c-0.5-0.3-0.9-0.4-1.4-0.4c-0.4,0-0.8,0.1-1.1,0.4c-0.3,0.3-0.6,0.6-0.7,1.1c-0.2,0.7-0.3,1.4-0.3,2.3v6H-1808.6z"/>
	<path d="M-1802,571l1.9-0.3c0.1,0.8,0.4,1.4,0.9,1.8c0.5,0.4,1.2,0.6,2.1,0.6c0.9,0,1.5-0.2,2-0.5c0.4-0.4,0.6-0.8,0.6-1.3
		c0-0.4-0.2-0.8-0.6-1c-0.3-0.2-0.9-0.4-2-0.7c-1.4-0.4-2.4-0.7-2.9-0.9c-0.5-0.3-1-0.6-1.2-1.1c-0.3-0.5-0.4-1-0.4-1.5
		c0-0.5,0.1-1,0.3-1.4c0.2-0.4,0.5-0.8,1-1.1c0.3-0.2,0.7-0.4,1.2-0.6c0.5-0.2,1.1-0.2,1.7-0.2c0.9,0,1.7,0.1,2.4,0.4
		c0.7,0.3,1.2,0.6,1.5,1c0.3,0.4,0.5,1,0.7,1.8l-1.9,0.3c-0.1-0.6-0.3-1-0.7-1.4c-0.4-0.3-1-0.5-1.7-0.5c-0.9,0-1.5,0.1-1.9,0.4
		c-0.4,0.3-0.6,0.6-0.6,1c0,0.3,0.1,0.5,0.2,0.7c0.2,0.2,0.4,0.4,0.7,0.5c0.2,0.1,0.8,0.2,1.7,0.5c1.4,0.4,2.3,0.7,2.9,0.9
		c0.5,0.2,1,0.6,1.3,1c0.3,0.4,0.5,1,0.5,1.7c0,0.6-0.2,1.3-0.6,1.8c-0.4,0.6-0.9,1-1.6,1.3c-0.7,0.3-1.5,0.5-2.4,0.5
		c-1.5,0-2.6-0.3-3.4-0.9C-1801.3,573.2-1801.8,572.2-1802,571z"/>
	<path d="M-1786,572.7l0.3,1.7c-0.5,0.1-1,0.2-1.5,0.2c-0.7,0-1.2-0.1-1.6-0.3c-0.4-0.2-0.7-0.5-0.8-0.9c-0.2-0.4-0.2-1.1-0.2-2.3
		v-6.6h-1.4V563h1.4v-2.8l1.9-1.2v4h1.9v1.5h-1.9v6.7c0,0.6,0,0.9,0.1,1.1c0.1,0.2,0.2,0.3,0.3,0.4c0.2,0.1,0.4,0.1,0.7,0.1
		C-1786.7,572.8-1786.4,572.8-1786,572.7z"/>
	<path d="M-1773.8,572.7l0.3,1.7c-0.5,0.1-1,0.2-1.5,0.2c-0.7,0-1.2-0.1-1.6-0.3c-0.4-0.2-0.7-0.5-0.8-0.9c-0.2-0.4-0.2-1.1-0.2-2.3
		v-6.6h-1.4V563h1.4v-2.8l1.9-1.2v4h1.9v1.5h-1.9v6.7c0,0.6,0,0.9,0.1,1.1c0.1,0.2,0.2,0.3,0.3,0.4c0.2,0.1,0.4,0.1,0.7,0.1
		C-1774.4,572.8-1774.1,572.8-1773.8,572.7z"/>
	<path d="M-1772.6,568.7c0-2.1,0.6-3.7,1.8-4.7c1-0.8,2.2-1.3,3.6-1.3c1.6,0,2.9,0.5,3.8,1.5c1,1,1.5,2.4,1.5,4.3
		c0,1.5-0.2,2.6-0.7,3.5c-0.4,0.8-1.1,1.5-1.9,2c-0.8,0.5-1.8,0.7-2.8,0.7c-1.6,0-2.9-0.5-3.9-1.5
		C-1772.1,572.1-1772.6,570.7-1772.6,568.7z M-1770.6,568.7c0,1.5,0.3,2.6,1,3.3c0.6,0.7,1.4,1.1,2.4,1.1c1,0,1.8-0.4,2.4-1.1
		c0.6-0.7,1-1.8,1-3.3c0-1.4-0.3-2.5-1-3.2c-0.6-0.7-1.4-1.1-2.4-1.1c-1,0-1.8,0.4-2.4,1.1C-1770.3,566.2-1770.6,567.3-1770.6,568.7
		z"/>
	<path d="M-1746.2,574.4V573c-0.7,1.1-1.8,1.7-3.2,1.7c-0.9,0-1.7-0.3-2.5-0.8c-0.8-0.5-1.4-1.2-1.8-2.1c-0.4-0.9-0.6-1.9-0.6-3.1
		c0-1.1,0.2-2.2,0.6-3.1c0.4-0.9,0.9-1.6,1.7-2.1c0.8-0.5,1.6-0.7,2.5-0.7c0.7,0,1.3,0.1,1.8,0.4c0.5,0.3,1,0.7,1.3,1.1v-5.7h1.9
		v15.7H-1746.2z M-1752.3,568.7c0,1.5,0.3,2.6,0.9,3.3c0.6,0.7,1.3,1.1,2.2,1.1c0.8,0,1.6-0.3,2.2-1c0.6-0.7,0.9-1.7,0.9-3.2
		c0-1.6-0.3-2.7-0.9-3.4c-0.6-0.7-1.3-1.1-2.2-1.1c-0.9,0-1.6,0.4-2.2,1.1C-1752,566.1-1752.3,567.2-1752.3,568.7z"/>
	<path d="M-1742,568.7c0-2.1,0.6-3.7,1.8-4.7c1-0.8,2.2-1.3,3.6-1.3c1.6,0,2.9,0.5,3.8,1.5c1,1,1.5,2.4,1.5,4.3
		c0,1.5-0.2,2.6-0.7,3.5c-0.4,0.8-1.1,1.5-1.9,2c-0.8,0.5-1.8,0.7-2.8,0.7c-1.6,0-2.9-0.5-3.9-1.5
		C-1741.5,572.1-1742,570.7-1742,568.7z M-1740.1,568.7c0,1.5,0.3,2.6,1,3.3c0.6,0.7,1.4,1.1,2.4,1.1c1,0,1.8-0.4,2.4-1.1
		c0.6-0.7,1-1.8,1-3.3c0-1.4-0.3-2.5-1-3.2c-0.6-0.7-1.4-1.1-2.4-1.1c-1,0-1.8,0.4-2.4,1.1C-1739.7,566.2-1740.1,567.3-1740.1,568.7
		z"/>
	<path d="M-1727,574.4l-3.5-11.4h2l1.8,6.6l0.7,2.4c0-0.1,0.2-0.9,0.6-2.4l1.8-6.7h2l1.7,6.6l0.6,2.2l0.7-2.2l2-6.6h1.9l-3.6,11.4
		h-2l-1.8-6.8l-0.4-1.9l-2.3,8.8H-1727z"/>
	<path d="M-1713.2,574.4V563h1.7v1.6c0.8-1.3,2-1.9,3.6-1.9c0.7,0,1.3,0.1,1.9,0.4c0.6,0.2,1,0.6,1.3,1c0.3,0.4,0.5,0.9,0.6,1.4
		c0.1,0.4,0.1,1,0.1,1.9v7h-1.9v-6.9c0-0.8-0.1-1.4-0.2-1.8c-0.2-0.4-0.4-0.7-0.8-0.9c-0.4-0.2-0.8-0.3-1.3-0.3
		c-0.8,0-1.5,0.3-2.1,0.8c-0.6,0.5-0.9,1.5-0.9,3v6.2H-1713.2z"/>
	<path d="M-1701,574.4v-15.7h1.9v15.7H-1701z"/>
	<path d="M-1696.8,568.7c0-2.1,0.6-3.7,1.8-4.7c1-0.8,2.2-1.3,3.6-1.3c1.6,0,2.9,0.5,3.8,1.5c1,1,1.5,2.4,1.5,4.3
		c0,1.5-0.2,2.6-0.7,3.5c-0.4,0.8-1.1,1.5-1.9,2c-0.8,0.5-1.8,0.7-2.8,0.7c-1.6,0-2.9-0.5-3.9-1.5
		C-1696.3,572.1-1696.8,570.7-1696.8,568.7z M-1694.8,568.7c0,1.5,0.3,2.6,1,3.3c0.6,0.7,1.4,1.1,2.4,1.1c1,0,1.8-0.4,2.4-1.1
		c0.6-0.7,1-1.8,1-3.3c0-1.4-0.3-2.5-1-3.2c-0.6-0.7-1.4-1.1-2.4-1.1c-1,0-1.8,0.4-2.4,1.1C-1694.5,566.2-1694.8,567.3-1694.8,568.7
		z"/>
	<path d="M-1676.4,573c-0.7,0.6-1.4,1-2.1,1.3c-0.7,0.3-1.4,0.4-2.1,0.4c-1.3,0-2.2-0.3-2.9-0.9c-0.7-0.6-1-1.4-1-2.3
		c0-0.6,0.1-1.1,0.4-1.5c0.3-0.5,0.6-0.8,1-1.1c0.4-0.3,0.9-0.5,1.4-0.6c0.4-0.1,1-0.2,1.7-0.3c1.6-0.2,2.7-0.4,3.4-0.7
		c0-0.3,0-0.4,0-0.5c0-0.8-0.2-1.3-0.5-1.7c-0.5-0.4-1.2-0.7-2.2-0.7c-0.9,0-1.6,0.2-2,0.5c-0.4,0.3-0.8,0.9-1,1.7l-1.9-0.3
		c0.2-0.8,0.5-1.5,0.8-2c0.4-0.5,1-0.9,1.7-1.1c0.7-0.3,1.6-0.4,2.6-0.4c1,0,1.8,0.1,2.4,0.3c0.6,0.2,1.1,0.5,1.3,0.9
		c0.3,0.3,0.5,0.8,0.6,1.3c0.1,0.3,0.1,0.9,0.1,1.8v2.6c0,1.8,0,2.9,0.1,3.4c0.1,0.5,0.2,0.9,0.5,1.4h-2
		C-1676.2,574-1676.3,573.6-1676.4,573z M-1676.6,568.7c-0.7,0.3-1.8,0.5-3.2,0.7c-0.8,0.1-1.4,0.2-1.7,0.4
		c-0.3,0.1-0.6,0.4-0.8,0.6c-0.2,0.3-0.3,0.6-0.3,0.9c0,0.5,0.2,0.9,0.6,1.3c0.4,0.3,1,0.5,1.7,0.5c0.7,0,1.4-0.2,2-0.5
		c0.6-0.3,1-0.8,1.3-1.3c0.2-0.4,0.3-1.1,0.3-1.9V568.7z"/>
	<path d="M-1664.2,574.4V573c-0.7,1.1-1.8,1.7-3.2,1.7c-0.9,0-1.7-0.3-2.5-0.8c-0.8-0.5-1.4-1.2-1.8-2.1c-0.4-0.9-0.6-1.9-0.6-3.1
		c0-1.1,0.2-2.2,0.6-3.1c0.4-0.9,0.9-1.6,1.7-2.1c0.8-0.5,1.6-0.7,2.5-0.7c0.7,0,1.3,0.1,1.8,0.4c0.5,0.3,1,0.7,1.3,1.1v-5.7h1.9
		v15.7H-1664.2z M-1670.3,568.7c0,1.5,0.3,2.6,0.9,3.3c0.6,0.7,1.3,1.1,2.2,1.1c0.8,0,1.6-0.3,2.2-1c0.6-0.7,0.9-1.7,0.9-3.2
		c0-1.6-0.3-2.7-0.9-3.4c-0.6-0.7-1.3-1.1-2.2-1.1c-0.9,0-1.6,0.4-2.2,1.1C-1670,566.1-1670.3,567.2-1670.3,568.7z"/>
	<path d="M-1652.8,574.4v-9.9h-1.7V563h1.7v-1.2c0-0.8,0.1-1.3,0.2-1.7c0.2-0.5,0.5-0.9,1-1.2c0.5-0.3,1.1-0.5,2-0.5
		c0.5,0,1.1,0.1,1.8,0.2l-0.3,1.7c-0.4-0.1-0.8-0.1-1.1-0.1c-0.6,0-1,0.1-1.2,0.4c-0.2,0.3-0.4,0.7-0.4,1.4v1.1h2.2v1.5h-2.2v9.9
		H-1652.8z"/>
	<path d="M-1639.7,574.4v-1.7c-0.9,1.3-2.1,1.9-3.6,1.9c-0.7,0-1.3-0.1-1.9-0.4c-0.6-0.3-1-0.6-1.3-1c-0.3-0.4-0.5-0.9-0.6-1.4
		c-0.1-0.4-0.1-1-0.1-1.8V563h1.9v6.3c0,1,0,1.7,0.1,2c0.1,0.5,0.4,0.9,0.8,1.2c0.4,0.3,0.9,0.4,1.5,0.4c0.6,0,1.1-0.1,1.6-0.4
		c0.5-0.3,0.9-0.7,1.1-1.2c0.2-0.5,0.3-1.3,0.3-2.2V563h1.9v11.4H-1639.7z"/>
	<path d="M-1630.7,572.7l0.3,1.7c-0.5,0.1-1,0.2-1.5,0.2c-0.7,0-1.2-0.1-1.6-0.3c-0.4-0.2-0.7-0.5-0.8-0.9c-0.2-0.4-0.2-1.1-0.2-2.3
		v-6.6h-1.4V563h1.4v-2.8l1.9-1.2v4h1.9v1.5h-1.9v6.7c0,0.6,0,0.9,0.1,1.1c0.1,0.2,0.2,0.3,0.3,0.4c0.2,0.1,0.4,0.1,0.7,0.1
		C-1631.3,572.8-1631,572.8-1630.7,572.7z"/>
	<path d="M-1621.3,574.4v-1.7c-0.9,1.3-2.1,1.9-3.6,1.9c-0.7,0-1.3-0.1-1.9-0.4c-0.6-0.3-1-0.6-1.3-1c-0.3-0.4-0.5-0.9-0.6-1.4
		c-0.1-0.4-0.1-1-0.1-1.8V563h1.9v6.3c0,1,0,1.7,0.1,2c0.1,0.5,0.4,0.9,0.8,1.2c0.4,0.3,0.9,0.4,1.5,0.4c0.6,0,1.1-0.1,1.6-0.4
		c0.5-0.3,0.9-0.7,1.1-1.2c0.2-0.5,0.3-1.3,0.3-2.2V563h1.9v11.4H-1621.3z"/>
	<path d="M-1616.6,574.4V563h1.7v1.7c0.4-0.8,0.9-1.3,1.2-1.6c0.4-0.3,0.8-0.4,1.2-0.4c0.7,0,1.3,0.2,2,0.6l-0.7,1.8
		c-0.5-0.3-0.9-0.4-1.4-0.4c-0.4,0-0.8,0.1-1.1,0.4c-0.3,0.3-0.6,0.6-0.7,1.1c-0.2,0.7-0.3,1.4-0.3,2.3v6H-1616.6z"/>
	<path d="M-1601.4,570.8l2,0.2c-0.3,1.2-0.9,2.1-1.8,2.7c-0.9,0.6-1.9,1-3.3,1c-1.7,0-3-0.5-4-1.5c-1-1-1.5-2.5-1.5-4.3
		c0-1.9,0.5-3.4,1.5-4.5c1-1.1,2.3-1.6,3.8-1.6c1.5,0,2.8,0.5,3.7,1.6c1,1,1.5,2.5,1.5,4.4c0,0.1,0,0.3,0,0.5h-8.5
		c0.1,1.3,0.4,2.2,1.1,2.9c0.6,0.7,1.4,1,2.4,1c0.7,0,1.3-0.2,1.8-0.6C-1602.1,572.2-1601.7,571.6-1601.4,570.8z M-1607.8,567.6h6.4
		c-0.1-1-0.3-1.7-0.7-2.2c-0.6-0.7-1.4-1.1-2.4-1.1c-0.9,0-1.6,0.3-2.2,0.9C-1607.4,565.9-1607.7,566.6-1607.8,567.6z"/>
	<path d="M-1590.4,574.4v-9.9h-1.7V563h1.7v-1.2c0-0.8,0.1-1.3,0.2-1.7c0.2-0.5,0.5-0.9,1-1.2c0.5-0.3,1.1-0.5,2-0.5
		c0.5,0,1.1,0.1,1.8,0.2l-0.3,1.7c-0.4-0.1-0.8-0.1-1.1-0.1c-0.6,0-1,0.1-1.2,0.4c-0.2,0.3-0.4,0.7-0.4,1.4v1.1h2.2v1.5h-2.2v9.9
		H-1590.4z"/>
	<path d="M-1584.8,574.4V563h1.7v1.7c0.4-0.8,0.9-1.3,1.2-1.6c0.4-0.3,0.8-0.4,1.2-0.4c0.7,0,1.3,0.2,2,0.6l-0.7,1.8
		c-0.5-0.3-0.9-0.4-1.4-0.4c-0.4,0-0.8,0.1-1.1,0.4c-0.3,0.3-0.6,0.6-0.7,1.1c-0.2,0.7-0.3,1.4-0.3,2.3v6H-1584.8z"/>
	<path d="M-1569.6,570.8l2,0.2c-0.3,1.2-0.9,2.1-1.8,2.7c-0.9,0.6-1.9,1-3.3,1c-1.7,0-3-0.5-4-1.5c-1-1-1.5-2.5-1.5-4.3
		c0-1.9,0.5-3.4,1.5-4.5c1-1.1,2.3-1.6,3.8-1.6c1.5,0,2.8,0.5,3.7,1.6c1,1,1.5,2.5,1.5,4.4c0,0.1,0,0.3,0,0.5h-8.5
		c0.1,1.3,0.4,2.2,1.1,2.9c0.6,0.7,1.4,1,2.4,1c0.7,0,1.3-0.2,1.8-0.6C-1570.3,572.2-1569.9,571.6-1569.6,570.8z M-1576,567.6h6.4
		c-0.1-1-0.3-1.7-0.7-2.2c-0.6-0.7-1.4-1.1-2.4-1.1c-0.9,0-1.6,0.3-2.2,0.9C-1575.6,565.9-1575.9,566.6-1576,567.6z"/>
	<path d="M-1557.4,570.8l2,0.2c-0.3,1.2-0.9,2.1-1.8,2.7c-0.9,0.6-1.9,1-3.3,1c-1.7,0-3-0.5-4-1.5c-1-1-1.5-2.5-1.5-4.3
		c0-1.9,0.5-3.4,1.5-4.5c1-1.1,2.3-1.6,3.8-1.6c1.5,0,2.8,0.5,3.7,1.6c1,1,1.5,2.5,1.5,4.4c0,0.1,0,0.3,0,0.5h-8.5
		c0.1,1.3,0.4,2.2,1.1,2.9c0.6,0.7,1.4,1,2.4,1c0.7,0,1.3-0.2,1.8-0.6C-1558.1,572.2-1557.7,571.6-1557.4,570.8z M-1563.8,567.6h6.4
		c-0.1-1-0.3-1.7-0.7-2.2c-0.6-0.7-1.4-1.1-2.4-1.1c-0.9,0-1.6,0.3-2.2,0.9C-1563.4,565.9-1563.7,566.6-1563.8,567.6z"/>
	<path d="M-1551.2,574.4h-1.8v-15.7h1.9v5.6c0.8-1,1.9-1.5,3.1-1.5c0.7,0,1.4,0.1,2,0.4c0.6,0.3,1.1,0.7,1.5,1.2
		c0.4,0.5,0.7,1.1,1,1.9c0.2,0.7,0.3,1.5,0.3,2.3c0,2-0.5,3.5-1.5,4.5c-1,1.1-2.1,1.6-3.5,1.6c-1.3,0-2.4-0.6-3.2-1.7V574.4z
		 M-1551.2,568.7c0,1.4,0.2,2.4,0.6,3c0.6,1,1.4,1.5,2.5,1.5c0.8,0,1.6-0.4,2.2-1.1c0.6-0.7,0.9-1.8,0.9-3.3c0-1.5-0.3-2.6-0.9-3.3
		c-0.6-0.7-1.3-1.1-2.1-1.1c-0.8,0-1.6,0.4-2.2,1.1C-1550.9,566.2-1551.2,567.3-1551.2,568.7z"/>
	<path d="M-1540.7,560.9v-2.2h1.9v2.2H-1540.7z M-1540.7,574.4V563h1.9v11.4H-1540.7z"/>
	<path d="M-1528,570.8l2,0.2c-0.3,1.2-0.9,2.1-1.8,2.7c-0.9,0.6-1.9,1-3.3,1c-1.7,0-3-0.5-4-1.5c-1-1-1.5-2.5-1.5-4.3
		c0-1.9,0.5-3.4,1.5-4.5c1-1.1,2.3-1.6,3.8-1.6c1.5,0,2.8,0.5,3.7,1.6c1,1,1.5,2.5,1.5,4.4c0,0.1,0,0.3,0,0.5h-8.5
		c0.1,1.3,0.4,2.2,1.1,2.9c0.6,0.7,1.4,1,2.4,1c0.7,0,1.3-0.2,1.8-0.6C-1528.7,572.2-1528.3,571.6-1528,570.8z M-1534.4,567.6h6.4
		c-0.1-1-0.3-1.7-0.7-2.2c-0.6-0.7-1.4-1.1-2.4-1.1c-0.9,0-1.6,0.3-2.2,0.9C-1534,565.9-1534.3,566.6-1534.4,567.6z"/>
	<path d="M-1524.4,571l1.9-0.3c0.1,0.8,0.4,1.4,0.9,1.8c0.5,0.4,1.2,0.6,2.1,0.6c0.9,0,1.5-0.2,2-0.5c0.4-0.4,0.6-0.8,0.6-1.3
		c0-0.4-0.2-0.8-0.6-1c-0.3-0.2-0.9-0.4-2-0.7c-1.4-0.4-2.4-0.7-2.9-0.9c-0.5-0.3-1-0.6-1.2-1.1c-0.3-0.5-0.4-1-0.4-1.5
		c0-0.5,0.1-1,0.3-1.4c0.2-0.4,0.5-0.8,1-1.1c0.3-0.2,0.7-0.4,1.2-0.6c0.5-0.2,1.1-0.2,1.7-0.2c0.9,0,1.7,0.1,2.4,0.4
		c0.7,0.3,1.2,0.6,1.5,1c0.3,0.4,0.5,1,0.7,1.8l-1.9,0.3c-0.1-0.6-0.3-1-0.7-1.4c-0.4-0.3-1-0.5-1.7-0.5c-0.9,0-1.5,0.1-1.9,0.4
		c-0.4,0.3-0.6,0.6-0.6,1c0,0.3,0.1,0.5,0.2,0.7c0.2,0.2,0.4,0.4,0.7,0.5c0.2,0.1,0.8,0.2,1.7,0.5c1.4,0.4,2.3,0.7,2.9,0.9
		c0.5,0.2,1,0.6,1.3,1c0.3,0.4,0.5,1,0.5,1.7c0,0.6-0.2,1.3-0.6,1.8c-0.4,0.6-0.9,1-1.6,1.3c-0.7,0.3-1.5,0.5-2.4,0.5
		c-1.5,0-2.6-0.3-3.4-0.9C-1523.7,573.2-1524.2,572.2-1524.4,571z"/>
	<path d="M-1511.6,570.5l-0.6-8.3v-3.5h2.4v3.5l-0.6,8.3H-1511.6z M-1512.1,574.4v-2.2h2.2v2.2H-1512.1z"/>
</g>
<g>
	<circle class="st6" cx="212.3" cy="212.3" r="212.3"/>
	<g>
		<path class="st1" d="M212.3,405.8c-1.2,0-2.4,0-3.6,0c-0.6,0-1-0.5-1-1.1c0-0.6,0.5-1,1-1c0,0,0,0,0,0c1.2,0,2.4,0,3.5,0l2.2,0
			c0,0,0,0,0,0c0.6,0,1,0.5,1,1c0,0.6-0.5,1.1-1,1.1L212.3,405.8L212.3,405.8z M220.3,405.7c-0.6,0-1-0.4-1-1c0-0.6,0.4-1.1,1-1.1
			c1.9-0.1,3.8-0.2,5.7-0.3c0.5,0,1.1,0.4,1.1,1c0,0.6-0.4,1.1-1,1.1C224.2,405.5,222.3,405.6,220.3,405.7
			C220.3,405.7,220.3,405.7,220.3,405.7L220.3,405.7z M203,405.6C203,405.6,203,405.6,203,405.6c-2-0.1-3.9-0.2-5.8-0.4
			c-0.6,0-1-0.5-1-1.1c0-0.6,0.6-1.1,1.1-1c1.9,0.1,3.8,0.3,5.7,0.4c0.6,0,1,0.5,1,1.1C204,405.2,203.6,405.6,203,405.6L203,405.6z
			 M231.8,404.9c-0.5,0-1-0.4-1-0.9c-0.1-0.6,0.4-1.1,0.9-1.1c1.9-0.2,3.8-0.4,5.7-0.7c0.6-0.1,1.1,0.3,1.2,0.9
			c0.1,0.6-0.3,1.1-0.9,1.2c-1.9,0.3-3.8,0.5-5.8,0.7C231.9,404.9,231.9,404.9,231.8,404.9L231.8,404.9z M191.5,404.7
			c0,0-0.1,0-0.1,0c-1.9-0.2-3.8-0.4-5.8-0.7c-0.6-0.1-1-0.6-0.9-1.2c0.1-0.6,0.6-1,1.2-0.9c1.9,0.3,3.8,0.5,5.7,0.7
			c0.6,0.1,1,0.6,0.9,1.2C192.5,404.3,192,404.7,191.5,404.7L191.5,404.7z M243.3,403.4c-0.5,0-1-0.4-1-0.9
			c-0.1-0.6,0.3-1.1,0.9-1.2c1.9-0.3,3.8-0.6,5.7-1c0.6-0.1,1.1,0.3,1.2,0.8c0.1,0.6-0.3,1.1-0.8,1.2c-1.9,0.4-3.8,0.7-5.7,1
			C243.4,403.4,243.3,403.4,243.3,403.4L243.3,403.4z M180.1,403.2c-0.1,0-0.1,0-0.2,0c-1.9-0.3-3.8-0.7-5.7-1.1
			c-0.6-0.1-0.9-0.7-0.8-1.2c0.1-0.6,0.7-0.9,1.2-0.8c1.9,0.4,3.8,0.7,5.6,1c0.6,0.1,1,0.6,0.9,1.2
			C181,402.8,180.6,403.2,180.1,403.2L180.1,403.2z M254.6,401.2c-0.5,0-0.9-0.3-1-0.8c-0.1-0.6,0.2-1.1,0.8-1.3
			c1.9-0.4,3.7-0.9,5.6-1.3c0.6-0.2,1.1,0.2,1.3,0.8c0.1,0.6-0.2,1.1-0.8,1.3c-1.9,0.5-3.8,0.9-5.6,1.4
			C254.8,401.2,254.7,401.2,254.6,401.2L254.6,401.2z M168.7,400.9c-0.1,0-0.2,0-0.2,0c-1.9-0.4-3.8-0.9-5.6-1.4
			c-0.6-0.2-0.9-0.7-0.7-1.3c0.2-0.6,0.7-0.9,1.3-0.7c1.8,0.5,3.7,0.9,5.6,1.4c0.6,0.1,0.9,0.7,0.8,1.3
			C169.7,400.6,169.2,400.9,168.7,400.9L168.7,400.9z M265.8,398.3c-0.5,0-0.9-0.3-1-0.8c-0.2-0.6,0.2-1.1,0.7-1.3
			c1.8-0.5,3.7-1.1,5.5-1.7c0.6-0.2,1.1,0.1,1.3,0.7c0.2,0.6-0.1,1.1-0.7,1.3c-1.8,0.6-3.7,1.2-5.6,1.7
			C266,398.3,265.9,398.3,265.8,398.3L265.8,398.3z M157.6,397.9c-0.1,0-0.2,0-0.3,0c-1.9-0.5-3.7-1.1-5.5-1.7
			c-0.5-0.2-0.8-0.8-0.7-1.3c0.2-0.5,0.8-0.8,1.3-0.7c1.8,0.6,3.6,1.2,5.5,1.7c0.6,0.2,0.9,0.7,0.7,1.3
			C158.5,397.7,158,397.9,157.6,397.9L157.6,397.9z M276.8,394.8c-0.4,0-0.8-0.3-1-0.7c-0.2-0.5,0.1-1.1,0.6-1.3
			c1.8-0.6,3.6-1.3,5.4-2c0.5-0.2,1.1,0.1,1.4,0.6c0.2,0.5-0.1,1.1-0.6,1.4c-1.8,0.7-3.6,1.4-5.4,2
			C277,394.8,276.9,394.8,276.8,394.8L276.8,394.8z M146.6,394.3c-0.1,0-0.2,0-0.4-0.1c-1.8-0.7-3.6-1.4-5.4-2.1
			c-0.5-0.2-0.8-0.8-0.6-1.4c0.2-0.5,0.8-0.8,1.4-0.6c1.8,0.7,3.6,1.4,5.4,2c0.5,0.2,0.8,0.8,0.6,1.3
			C147.4,394.1,147,394.3,146.6,394.3L146.6,394.3z M287.5,390.6c-0.4,0-0.8-0.2-1-0.6c-0.2-0.5,0-1.2,0.6-1.4
			c1.8-0.7,3.5-1.5,5.2-2.3c0.5-0.2,1.2,0,1.4,0.5c0.2,0.5,0,1.2-0.5,1.4c-1.8,0.8-3.5,1.6-5.3,2.3
			C287.8,390.6,287.6,390.6,287.5,390.6L287.5,390.6z M135.8,390.1c-0.1,0-0.3,0-0.4-0.1c-1.8-0.8-3.5-1.6-5.3-2.4
			c-0.5-0.2-0.7-0.9-0.5-1.4c0.2-0.5,0.9-0.8,1.4-0.5c1.7,0.8,3.5,1.6,5.2,2.4c0.5,0.2,0.8,0.8,0.5,1.4
			C136.6,389.8,136.3,390.1,135.8,390.1L135.8,390.1z M298,385.8c-0.4,0-0.8-0.2-0.9-0.6c-0.3-0.5,0-1.1,0.5-1.4
			c1.7-0.8,3.4-1.7,5.1-2.6c0.5-0.3,1.1-0.1,1.4,0.4c0.3,0.5,0.1,1.1-0.4,1.4c-1.7,0.9-3.4,1.8-5.1,2.7
			C298.3,385.8,298.1,385.8,298,385.8L298,385.8z M125.4,385.1c-0.2,0-0.3,0-0.5-0.1c-1.7-0.9-3.4-1.8-5.1-2.7
			c-0.5-0.3-0.7-0.9-0.4-1.4c0.3-0.5,0.9-0.7,1.4-0.4c1.7,0.9,3.4,1.8,5.1,2.7c0.5,0.3,0.7,0.9,0.5,1.4
			C126.1,384.9,125.8,385.1,125.4,385.1L125.4,385.1z M308.1,380.4c-0.4,0-0.7-0.2-0.9-0.5c-0.3-0.5-0.1-1.1,0.4-1.4
			c1.7-1,3.3-1.9,4.9-2.9c0.5-0.3,1.1-0.2,1.4,0.3c0.3,0.5,0.2,1.1-0.3,1.4c-1.6,1-3.3,2-5,3C308.5,380.3,308.3,380.4,308.1,380.4
			L308.1,380.4z M115.2,379.6c-0.2,0-0.4,0-0.5-0.1c-1.7-1-3.3-2-5-3c-0.5-0.3-0.6-1-0.3-1.4c0.3-0.5,0.9-0.6,1.4-0.3
			c1.6,1,3.3,2,4.9,3c0.5,0.3,0.7,0.9,0.4,1.4C115.9,379.4,115.6,379.6,115.2,379.6L115.2,379.6z M317.9,374.3
			c-0.3,0-0.7-0.2-0.9-0.5c-0.3-0.5-0.2-1.1,0.3-1.5c1.6-1,3.2-2.1,4.7-3.2c0.5-0.3,1.1-0.2,1.5,0.3c0.3,0.5,0.2,1.1-0.3,1.5
			c-1.6,1.1-3.2,2.2-4.8,3.3C318.3,374.3,318.1,374.3,317.9,374.3L317.9,374.3z M105.4,373.5c-0.2,0-0.4-0.1-0.6-0.2
			c-1.6-1.1-3.2-2.2-4.8-3.3c-0.5-0.3-0.6-1-0.2-1.5c0.3-0.5,1-0.6,1.5-0.2c1.6,1.1,3.1,2.2,4.7,3.3c0.5,0.3,0.6,1,0.3,1.5
			C106.1,373.3,105.8,373.5,105.4,373.5L105.4,373.5z M327.4,367.7c-0.3,0-0.6-0.1-0.8-0.4c-0.3-0.5-0.3-1.1,0.2-1.5
			c1.5-1.1,3-2.3,4.5-3.5c0.5-0.4,1.1-0.3,1.5,0.2c0.4,0.5,0.3,1.1-0.2,1.5c-1.5,1.2-3,2.4-4.6,3.5
			C327.8,367.6,327.6,367.7,327.4,367.7L327.4,367.7z M96,366.7c-0.2,0-0.4-0.1-0.6-0.2c-1.5-1.2-3.1-2.4-4.6-3.6
			c-0.5-0.4-0.5-1-0.2-1.5c0.4-0.5,1-0.5,1.5-0.2c1.5,1.2,3,2.4,4.5,3.5c0.5,0.3,0.6,1,0.2,1.5C96.7,366.6,96.3,366.7,96,366.7
			L96,366.7z M336.4,360.5c-0.3,0-0.6-0.1-0.8-0.4c-0.4-0.4-0.3-1.1,0.1-1.5c1.5-1.2,2.9-2.5,4.3-3.8c0.4-0.4,1.1-0.3,1.5,0.1
			c0.4,0.4,0.3,1.1-0.1,1.5c-1.4,1.3-2.9,2.6-4.4,3.8C336.9,360.4,336.6,360.5,336.4,360.5L336.4,360.5z M87,359.5
			c-0.2,0-0.5-0.1-0.7-0.3c-1.5-1.3-2.9-2.5-4.3-3.8c-0.4-0.4-0.5-1.1-0.1-1.5c0.4-0.4,1.1-0.5,1.5-0.1c1.4,1.3,2.8,2.6,4.3,3.8
			c0.4,0.4,0.5,1,0.1,1.5C87.6,359.4,87.3,359.5,87,359.5L87,359.5z M345,352.8c-0.3,0-0.6-0.1-0.8-0.3c-0.4-0.4-0.4-1.1,0-1.5
			c1.4-1.3,2.8-2.7,4.1-4c0.4-0.4,1.1-0.4,1.5,0c0.4,0.4,0.4,1.1,0,1.5c-1.4,1.4-2.7,2.7-4.1,4.1C345.5,352.7,345.2,352.8,345,352.8
			L345,352.8z M78.5,351.7c-0.3,0-0.5-0.1-0.7-0.3c-1.4-1.3-2.8-2.7-4.1-4.1c-0.4-0.4-0.4-1.1,0-1.5c0.4-0.4,1.1-0.4,1.5,0
			c1.3,1.4,2.7,2.7,4.1,4.1c0.4,0.4,0.4,1.1,0,1.5C79.1,351.6,78.8,351.7,78.5,351.7L78.5,351.7z M353.1,344.6
			c-0.3,0-0.5-0.1-0.7-0.3c-0.4-0.4-0.4-1.1,0-1.5c1.3-1.4,2.6-2.8,3.9-4.3c0.4-0.4,1-0.5,1.5-0.1c0.4,0.4,0.5,1,0.1,1.5
			c-1.3,1.5-2.6,2.9-3.9,4.3C353.7,344.5,353.4,344.6,353.1,344.6L353.1,344.6z M70.5,343.4c-0.3,0-0.6-0.1-0.8-0.3
			c-1.3-1.4-2.6-2.9-3.9-4.3c-0.4-0.4-0.3-1.1,0.1-1.5c0.4-0.4,1.1-0.3,1.5,0.1c1.3,1.4,2.5,2.9,3.8,4.3c0.4,0.4,0.4,1.1-0.1,1.5
			C71,343.4,70.7,343.4,70.5,343.4L70.5,343.4z M360.7,335.9c-0.2,0-0.5-0.1-0.7-0.2c-0.4-0.4-0.5-1-0.1-1.5c1.2-1.5,2.4-3,3.6-4.5
			c0.4-0.5,1-0.5,1.5-0.2c0.5,0.4,0.5,1,0.2,1.5c-1.2,1.5-2.4,3-3.6,4.5C361.3,335.8,361,335.9,360.7,335.9L360.7,335.9z
			 M62.9,334.7c-0.3,0-0.6-0.1-0.8-0.4c-1.2-1.5-2.4-3-3.6-4.6c-0.4-0.5-0.3-1.1,0.2-1.5c0.5-0.4,1.1-0.3,1.5,0.2
			c1.2,1.5,2.3,3,3.6,4.5c0.4,0.4,0.3,1.1-0.2,1.5C63.4,334.6,63.2,334.7,62.9,334.7L62.9,334.7z M367.8,326.8
			c-0.2,0-0.4-0.1-0.6-0.2c-0.5-0.3-0.6-1-0.2-1.5c1.1-1.5,2.2-3.1,3.3-4.7c0.3-0.5,1-0.6,1.5-0.3c0.5,0.3,0.6,1,0.3,1.5
			c-1.1,1.6-2.2,3.2-3.4,4.7C368.5,326.7,368.1,326.8,367.8,326.8L367.8,326.8z M55.9,325.6c-0.3,0-0.6-0.2-0.9-0.4
			c-1.1-1.6-2.2-3.2-3.3-4.8c-0.3-0.5-0.2-1.1,0.3-1.5c0.5-0.3,1.1-0.2,1.5,0.3c1.1,1.6,2.2,3.2,3.3,4.7c0.3,0.5,0.2,1.1-0.2,1.5
			C56.3,325.5,56.1,325.6,55.9,325.6L55.9,325.6z M374.3,317.3c-0.2,0-0.4-0.1-0.6-0.2c-0.5-0.3-0.6-1-0.3-1.4c1-1.6,2-3.2,3-4.9
			c0.3-0.5,0.9-0.7,1.4-0.4c0.5,0.3,0.7,0.9,0.4,1.4c-1,1.7-2,3.3-3.1,4.9C375,317.1,374.7,317.3,374.3,317.3L374.3,317.3z
			 M49.5,316c-0.3,0-0.7-0.2-0.9-0.5c-1-1.6-2-3.3-3-4.9c-0.3-0.5-0.1-1.1,0.4-1.4c0.5-0.3,1.1-0.1,1.4,0.4c1,1.6,2,3.3,3,4.9
			c0.3,0.5,0.2,1.1-0.3,1.4C49.9,315.9,49.7,316,49.5,316L49.5,316z M380.3,307.4c-0.2,0-0.3,0-0.5-0.1c-0.5-0.3-0.7-0.9-0.4-1.4
			c0.9-1.7,1.8-3.4,2.7-5.1c0.3-0.5,0.9-0.7,1.4-0.4c0.5,0.3,0.7,0.9,0.4,1.4c-0.9,1.7-1.8,3.4-2.8,5.1
			C381,307.2,380.7,307.4,380.3,307.4L380.3,307.4z M43.6,306.1c-0.4,0-0.7-0.2-0.9-0.5c-0.9-1.7-1.8-3.4-2.7-5.1
			c-0.3-0.5-0.1-1.1,0.5-1.4c0.5-0.3,1.1-0.1,1.4,0.5c0.9,1.7,1.8,3.4,2.7,5.1c0.3,0.5,0.1,1.1-0.4,1.4
			C44,306,43.8,306.1,43.6,306.1L43.6,306.1z M385.7,297.1c-0.2,0-0.3,0-0.5-0.1c-0.5-0.3-0.7-0.9-0.5-1.4c0.8-1.7,1.6-3.5,2.4-5.2
			c0.2-0.5,0.9-0.8,1.4-0.5c0.5,0.2,0.8,0.9,0.5,1.4c-0.8,1.8-1.6,3.5-2.5,5.3C386.4,296.9,386,297.1,385.7,297.1L385.7,297.1z
			 M38.4,295.8c-0.4,0-0.8-0.2-0.9-0.6c-0.8-1.7-1.6-3.5-2.4-5.3c-0.2-0.5,0-1.1,0.5-1.4c0.5-0.2,1.1,0,1.4,0.5
			c0.8,1.8,1.6,3.5,2.4,5.2c0.2,0.5,0,1.1-0.5,1.4C38.7,295.8,38.5,295.8,38.4,295.8L38.4,295.8z M390.4,286.6c-0.1,0-0.3,0-0.4-0.1
			c-0.5-0.2-0.8-0.8-0.6-1.4c0.7-1.8,1.4-3.6,2.1-5.4c0.2-0.5,0.8-0.8,1.3-0.6c0.5,0.2,0.8,0.8,0.6,1.4c-0.7,1.8-1.4,3.6-2.1,5.4
			C391.2,286.3,390.8,286.6,390.4,286.6L390.4,286.6z M33.7,285.3c-0.4,0-0.8-0.2-1-0.7c-0.7-1.8-1.4-3.6-2.1-5.4
			c-0.2-0.5,0.1-1.1,0.6-1.3c0.5-0.2,1.1,0.1,1.3,0.6c0.7,1.8,1.4,3.6,2.1,5.4c0.2,0.5,0,1.1-0.6,1.4
			C34,285.3,33.9,285.3,33.7,285.3L33.7,285.3z M394.5,275.7c-0.1,0-0.2,0-0.3-0.1c-0.5-0.2-0.8-0.8-0.6-1.3
			c0.6-1.8,1.2-3.6,1.8-5.5c0.2-0.6,0.8-0.9,1.3-0.7c0.6,0.2,0.9,0.8,0.7,1.3c-0.6,1.9-1.2,3.7-1.8,5.5
			C395.3,275.5,394.9,275.7,394.5,275.7L394.5,275.7z M29.8,274.5c-0.4,0-0.8-0.3-1-0.7c-0.6-1.8-1.2-3.7-1.8-5.5
			c-0.2-0.6,0.1-1.1,0.7-1.3c0.6-0.2,1.1,0.1,1.3,0.7c0.6,1.8,1.1,3.7,1.7,5.5c0.2,0.5-0.1,1.1-0.7,1.3
			C30,274.4,29.9,274.5,29.8,274.5L29.8,274.5z M397.9,264.7c-0.1,0-0.2,0-0.3,0c-0.6-0.2-0.9-0.7-0.7-1.3c0.5-1.8,1-3.7,1.4-5.6
			c0.1-0.6,0.7-0.9,1.3-0.8c0.6,0.1,0.9,0.7,0.8,1.3c-0.5,1.9-0.9,3.8-1.5,5.6C398.8,264.4,398.3,264.7,397.9,264.7L397.9,264.7z
			 M26.4,263.4c-0.5,0-0.9-0.3-1-0.8c-0.5-1.9-1-3.7-1.4-5.6c-0.1-0.6,0.2-1.1,0.8-1.3c0.6-0.1,1.1,0.2,1.3,0.8
			c0.4,1.9,0.9,3.7,1.4,5.6c0.2,0.6-0.2,1.1-0.7,1.3C26.6,263.4,26.5,263.4,26.4,263.4L26.4,263.4z M400.6,253.5c-0.1,0-0.1,0-0.2,0
			c-0.6-0.1-0.9-0.7-0.8-1.2c0.4-1.9,0.8-3.7,1.1-5.6c0.1-0.6,0.7-0.9,1.2-0.8c0.6,0.1,0.9,0.6,0.8,1.2c-0.3,1.9-0.7,3.8-1.1,5.7
			C401.5,253.2,401.1,253.5,400.6,253.5L400.6,253.5z M23.8,252.2c-0.5,0-0.9-0.3-1-0.8c-0.4-1.9-0.7-3.8-1.1-5.7
			c-0.1-0.6,0.3-1.1,0.9-1.2c0.6-0.1,1.1,0.3,1.2,0.9c0.3,1.9,0.7,3.8,1.1,5.6c0.1,0.6-0.2,1.1-0.8,1.2
			C23.9,252.2,23.8,252.2,23.8,252.2L23.8,252.2z M402.7,242.1c-0.1,0-0.1,0-0.2,0c-0.6-0.1-1-0.6-0.9-1.2c0.3-1.9,0.5-3.8,0.8-5.7
			c0.1-0.6,0.6-1,1.2-0.9c0.6,0.1,1,0.6,0.9,1.2c-0.2,1.9-0.5,3.8-0.8,5.8C403.6,241.8,403.2,242.1,402.7,242.1L402.7,242.1z
			 M21.8,240.8c-0.5,0-1-0.4-1-0.9c-0.3-1.9-0.5-3.8-0.7-5.8c-0.1-0.6,0.3-1.1,0.9-1.2c0.6-0.1,1.1,0.4,1.2,0.9
			c0.2,1.9,0.5,3.8,0.7,5.7c0.1,0.6-0.3,1.1-0.9,1.2C21.9,240.8,21.9,240.8,21.8,240.8L21.8,240.8z M404,230.7
			C404,230.7,404,230.7,404,230.7c-0.7-0.1-1.1-0.6-1-1.1c0.2-1.9,0.3-3.8,0.4-5.7c0-0.6,0.5-1,1.1-1c0.6,0,1,0.5,1,1.1
			c-0.1,1.9-0.3,3.9-0.4,5.8C405,230.3,404.6,230.7,404,230.7L404,230.7z M20.5,229.3c-0.5,0-1-0.4-1-1c-0.2-1.9-0.3-3.9-0.4-5.8
			c0-0.6,0.4-1.1,1-1.1c0.6-0.1,1.1,0.4,1.1,1c0.1,1.9,0.2,3.8,0.4,5.7C21.6,228.8,21.2,229.3,20.5,229.3
			C20.6,229.3,20.5,229.3,20.5,229.3L20.5,229.3z M404.7,219.1C404.7,219.1,404.7,219.1,404.7,219.1c-0.6,0-1.1-0.5-1-1.1
			c0.1-1.9,0.1-3.8,0.1-5.7c0-0.6,0.5-1,1-1c0.6,0,1,0.5,1,1c0,1.9,0,3.9-0.1,5.8C405.7,218.7,405.3,219.1,404.7,219.1L404.7,219.1z
			 M19.9,217.8c-0.6,0-1-0.5-1-1c0-1.5,0-3,0-4.5l0-1.4c0-0.6,0.5-1.1,1.1-1c0.6,0,1,0.5,1,1.1l0,1.3c0,1.5,0,2.9,0,4.4
			C21,217.3,20.5,217.8,19.9,217.8C19.9,217.8,19.9,217.8,19.9,217.8L19.9,217.8z M404.8,210.3c-0.6,0-1-0.5-1-1
			c0-1.9-0.1-3.8-0.2-5.7c0-0.6,0.4-1.1,1-1.1c0.6,0,1.1,0.4,1.1,1c0.1,1.9,0.1,3.9,0.2,5.8C405.8,209.8,405.4,210.3,404.8,210.3
			C404.8,210.3,404.8,210.3,404.8,210.3L404.8,210.3z M20,206.3C20,206.3,20,206.3,20,206.3c-0.6,0-1.1-0.5-1-1.1
			c0.1-1.9,0.2-3.9,0.3-5.8c0-0.6,0.6-1,1.1-1c0.6,0,1,0.5,1,1.1c-0.1,1.9-0.2,3.8-0.3,5.7C21,205.8,20.6,206.3,20,206.3L20,206.3z
			 M404.2,198.8c-0.5,0-1-0.4-1-1c-0.1-1.9-0.3-3.8-0.5-5.7c-0.1-0.6,0.4-1.1,0.9-1.2c0.6-0.1,1.1,0.4,1.2,0.9
			c0.2,1.9,0.4,3.8,0.5,5.8C405.3,198.2,404.9,198.7,404.2,198.8C404.3,198.8,404.3,198.8,404.2,198.8L404.2,198.8z M20.8,194.7
			c0,0-0.1,0-0.1,0c-0.6-0.1-1-0.6-0.9-1.1c0.2-1.9,0.4-3.9,0.6-5.8c0.1-0.6,0.6-1,1.2-0.9c0.6,0.1,1,0.6,0.9,1.2
			c-0.2,1.9-0.5,3.8-0.6,5.7C21.7,194.3,21.3,194.7,20.8,194.7L20.8,194.7z M403,187.3c-0.5,0-1-0.4-1-0.9c-0.3-1.9-0.5-3.8-0.9-5.7
			c-0.1-0.6,0.3-1.1,0.9-1.2c0.6-0.1,1.1,0.3,1.2,0.9c0.3,1.9,0.6,3.8,0.9,5.7c0.1,0.6-0.3,1.1-0.9,1.2
			C403.1,187.3,403.1,187.3,403,187.3L403,187.3z M22.2,183.3c-0.1,0-0.1,0-0.2,0c-0.6-0.1-1-0.6-0.9-1.2c0.3-1.9,0.6-3.8,1-5.7
			c0.1-0.6,0.7-0.9,1.2-0.8c0.6,0.1,0.9,0.7,0.8,1.2c-0.4,1.9-0.7,3.8-1,5.7C23.2,182.9,22.7,183.3,22.2,183.3L22.2,183.3z
			 M401.1,175.9c-0.5,0-0.9-0.3-1-0.8c-0.4-1.9-0.8-3.8-1.2-5.6c-0.1-0.6,0.2-1.1,0.8-1.3c0.6-0.1,1.1,0.2,1.3,0.8
			c0.4,1.9,0.8,3.8,1.2,5.7c0.1,0.6-0.3,1.1-0.8,1.2C401.3,175.9,401.2,175.9,401.1,175.9L401.1,175.9z M24.3,172
			c-0.1,0-0.2,0-0.2,0c-0.6-0.1-0.9-0.7-0.8-1.2c0.4-1.9,0.9-3.8,1.3-5.6c0.1-0.6,0.7-0.9,1.3-0.8c0.6,0.1,0.9,0.7,0.8,1.3
			c-0.5,1.9-0.9,3.7-1.3,5.6C25.2,171.6,24.8,172,24.3,172L24.3,172z M398.6,164.7c-0.5,0-0.9-0.3-1-0.8c-0.5-1.9-1-3.7-1.5-5.5
			c-0.2-0.6,0.2-1.1,0.7-1.3c0.6-0.2,1.1,0.2,1.3,0.7c0.5,1.9,1.1,3.7,1.5,5.6c0.1,0.6-0.2,1.1-0.7,1.3
			C398.7,164.6,398.7,164.7,398.6,164.7L398.6,164.7z M27.1,160.8c-0.1,0-0.2,0-0.3,0c-0.6-0.2-0.9-0.7-0.7-1.3
			c0.5-1.9,1.1-3.7,1.7-5.6c0.2-0.6,0.8-0.9,1.3-0.7c0.6,0.2,0.9,0.8,0.7,1.3c-0.6,1.8-1.1,3.7-1.6,5.5
			C28,160.5,27.6,160.8,27.1,160.8L27.1,160.8z M395.3,153.6c-0.4,0-0.9-0.3-1-0.7c-0.6-1.8-1.2-3.6-1.9-5.4
			c-0.2-0.5,0.1-1.1,0.6-1.3c0.5-0.2,1.1,0.1,1.3,0.6c0.7,1.8,1.3,3.6,1.9,5.5c0.2,0.6-0.1,1.1-0.7,1.3
			C395.5,153.6,395.4,153.6,395.3,153.6L395.3,153.6z M30.6,149.7c-0.1,0-0.2,0-0.3-0.1c-0.5-0.2-0.8-0.8-0.6-1.3
			c0.6-1.8,1.3-3.7,2-5.5c0.2-0.5,0.8-0.8,1.4-0.6c0.5,0.2,0.8,0.8,0.6,1.4c-0.7,1.8-1.3,3.6-2,5.4
			C31.5,149.5,31.1,149.7,30.6,149.7L30.6,149.7z M391.4,142.7c-0.4,0-0.8-0.3-1-0.7c-0.7-1.8-1.4-3.5-2.2-5.3
			c-0.2-0.5,0-1.1,0.5-1.4c0.5-0.2,1.2,0,1.4,0.5c0.8,1.8,1.5,3.6,2.2,5.3c0.2,0.5-0.1,1.1-0.6,1.4
			C391.7,142.7,391.5,142.7,391.4,142.7L391.4,142.7z M34.8,138.9c-0.1,0-0.3,0-0.4-0.1c-0.5-0.2-0.8-0.8-0.6-1.4
			c0.8-1.8,1.5-3.6,2.3-5.3c0.2-0.5,0.9-0.8,1.4-0.5c0.5,0.2,0.8,0.9,0.5,1.4c-0.8,1.7-1.6,3.5-2.3,5.3
			C35.6,138.7,35.2,138.9,34.8,138.9L34.8,138.9z M386.9,132.1c-0.4,0-0.8-0.2-1-0.6c-0.8-1.7-1.6-3.4-2.5-5.2
			c-0.3-0.5-0.1-1.1,0.5-1.4c0.5-0.3,1.1-0.1,1.4,0.5c0.9,1.7,1.7,3.5,2.5,5.2c0.2,0.5,0,1.1-0.5,1.4
			C387.2,132.1,387,132.1,386.9,132.1L386.9,132.1z M39.6,128.4c-0.2,0-0.3,0-0.5-0.1c-0.5-0.3-0.7-0.9-0.5-1.4
			c0.9-1.7,1.7-3.5,2.6-5.2c0.3-0.5,0.9-0.7,1.4-0.4c0.5,0.3,0.7,0.9,0.4,1.4c-0.9,1.7-1.8,3.4-2.6,5.1
			C40.3,128.2,40,128.4,39.6,128.4L39.6,128.4z M381.7,121.9c-0.4,0-0.7-0.2-0.9-0.5c-0.9-1.7-1.8-3.3-2.8-5
			c-0.3-0.5-0.1-1.1,0.4-1.4c0.5-0.3,1.1-0.1,1.4,0.4c1,1.7,1.9,3.4,2.8,5.1c0.3,0.5,0.1,1.1-0.4,1.4
			C382,121.8,381.9,121.9,381.7,121.9L381.7,121.9z M45,118.2c-0.2,0-0.4,0-0.5-0.1c-0.5-0.3-0.7-0.9-0.4-1.4c1-1.7,1.9-3.4,3-5
			c0.3-0.5,0.9-0.6,1.4-0.3c0.5,0.3,0.6,0.9,0.3,1.4c-1,1.6-2,3.3-2.9,5C45.7,118,45.4,118.2,45,118.2L45,118.2z M375.9,111.9
			c-0.4,0-0.7-0.2-0.9-0.5c-1-1.6-2-3.2-3.1-4.8c-0.3-0.5-0.2-1.1,0.3-1.5c0.5-0.3,1.1-0.2,1.5,0.3c1.1,1.6,2.1,3.2,3.1,4.9
			c0.3,0.5,0.2,1.1-0.3,1.4C376.3,111.9,376.1,111.9,375.9,111.9L375.9,111.9z M51,108.3c-0.2,0-0.4-0.1-0.6-0.2
			c-0.5-0.3-0.6-1-0.3-1.5c1.1-1.6,2.1-3.2,3.2-4.8c0.3-0.5,1-0.6,1.5-0.3c0.5,0.3,0.6,1,0.3,1.5c-1.1,1.6-2.2,3.2-3.2,4.8
			C51.7,108.2,51.4,108.3,51,108.3L51,108.3z M369.5,102.3c-0.3,0-0.6-0.2-0.9-0.4c-1.1-1.6-2.2-3.1-3.4-4.6
			c-0.3-0.5-0.3-1.1,0.2-1.5c0.5-0.3,1.1-0.3,1.5,0.2c1.2,1.5,2.3,3.1,3.4,4.7c0.3,0.5,0.2,1.1-0.2,1.5
			C370,102.2,369.7,102.3,369.5,102.3L369.5,102.3z M57.6,98.8c-0.2,0-0.4-0.1-0.6-0.2c-0.5-0.3-0.6-1-0.2-1.5
			c1.2-1.6,2.3-3.1,3.5-4.6c0.4-0.5,1-0.5,1.5-0.2c0.5,0.4,0.5,1,0.2,1.5c-1.2,1.5-2.3,3-3.5,4.6C58.3,98.7,58,98.8,57.6,98.8
			L57.6,98.8z M362.6,93.1c-0.3,0-0.6-0.1-0.8-0.4c-1.2-1.5-2.4-3-3.7-4.4c-0.4-0.4-0.3-1.1,0.1-1.5c0.4-0.4,1.1-0.3,1.5,0.1
			c1.3,1.5,2.5,3,3.7,4.5c0.4,0.5,0.3,1.1-0.2,1.5C363,93,362.8,93.1,362.6,93.1L362.6,93.1z M64.8,89.8c-0.2,0-0.5-0.1-0.7-0.2
			c-0.4-0.4-0.5-1-0.1-1.5c1.2-1.5,2.5-2.9,3.8-4.4c0.4-0.4,1-0.5,1.5-0.1c0.4,0.4,0.5,1,0.1,1.5c-1.3,1.4-2.5,2.9-3.8,4.3
			C65.4,89.6,65.1,89.8,64.8,89.8L64.8,89.8z M355.1,84.3c-0.3,0-0.6-0.1-0.8-0.3c-1.3-1.4-2.6-2.8-3.9-4.2c-0.4-0.4-0.4-1.1,0-1.5
			c0.4-0.4,1.1-0.4,1.5,0c1.3,1.4,2.7,2.8,4,4.2c0.4,0.4,0.4,1.1-0.1,1.5C355.6,84.2,355.4,84.3,355.1,84.3L355.1,84.3z M72.5,81.2
			c-0.3,0-0.5-0.1-0.7-0.3c-0.4-0.4-0.4-1.1,0-1.5c1.3-1.4,2.7-2.8,4.1-4.2c0.4-0.4,1.1-0.4,1.5,0c0.4,0.4,0.4,1.1,0,1.5
			c-1.4,1.3-2.7,2.7-4,4.1C73,81,72.7,81.2,72.5,81.2L72.5,81.2z M347.1,76c-0.3,0-0.5-0.1-0.7-0.3c-1.4-1.3-2.8-2.7-4.2-4
			c-0.4-0.4-0.5-1.1-0.1-1.5c0.4-0.4,1.1-0.4,1.5-0.1c1.4,1.3,2.8,2.6,4.2,4c0.4,0.4,0.4,1.1,0,1.5C347.7,75.9,347.4,76,347.1,76
			L347.1,76z M80.6,73c-0.3,0-0.6-0.1-0.8-0.3c-0.4-0.4-0.4-1.1,0-1.5c1.4-1.3,2.8-2.6,4.3-3.9c0.4-0.4,1.1-0.3,1.5,0.1
			c0.4,0.4,0.3,1.1-0.1,1.5c-1.4,1.3-2.8,2.6-4.2,3.9C81.2,72.9,80.9,73,80.6,73L80.6,73z M338.6,68.2c-0.2,0-0.5-0.1-0.7-0.3
			c-1.4-1.3-2.9-2.5-4.4-3.7c-0.4-0.4-0.5-1-0.1-1.5c0.4-0.5,1-0.5,1.5-0.1c1.5,1.2,3,2.5,4.4,3.7c0.4,0.4,0.5,1,0.1,1.5
			C339.2,68,338.9,68.2,338.6,68.2L338.6,68.2z M89.3,65.4c-0.3,0-0.6-0.1-0.8-0.4c-0.4-0.4-0.3-1.1,0.1-1.5c1.5-1.2,3-2.4,4.5-3.6
			c0.5-0.4,1.1-0.3,1.5,0.2c0.4,0.5,0.3,1.1-0.2,1.5c-1.5,1.2-3,2.4-4.5,3.6C89.8,65.3,89.5,65.4,89.3,65.4L89.3,65.4z M329.7,60.8
			c-0.2,0-0.5-0.1-0.6-0.2c-1.5-1.2-3-2.3-4.6-3.4c-0.5-0.3-0.6-1-0.2-1.5c0.3-0.5,1-0.6,1.5-0.2c1.6,1.1,3.1,2.3,4.7,3.5
			c0.5,0.4,0.5,1,0.2,1.5C330.3,60.7,330,60.8,329.7,60.8L329.7,60.8z M98.4,58.3c-0.3,0-0.6-0.1-0.8-0.4c-0.3-0.5-0.2-1.1,0.2-1.5
			c1.6-1.1,3.1-2.3,4.7-3.4c0.5-0.3,1.1-0.2,1.5,0.3c0.3,0.5,0.2,1.1-0.3,1.5c-1.6,1.1-3.1,2.2-4.7,3.3
			C98.8,58.2,98.6,58.3,98.4,58.3L98.4,58.3z M320.3,54.1c-0.2,0-0.4-0.1-0.6-0.2c-1.6-1.1-3.2-2.1-4.8-3.2c-0.5-0.3-0.6-1-0.3-1.4
			c0.3-0.5,1-0.6,1.4-0.3c1.6,1,3.3,2.1,4.9,3.2c0.5,0.3,0.6,1,0.3,1.5C321,53.9,320.7,54.1,320.3,54.1L320.3,54.1z M107.9,51.7
			c-0.3,0-0.7-0.2-0.9-0.5c-0.3-0.5-0.2-1.1,0.3-1.5c1.6-1,3.3-2.1,4.9-3.1c0.5-0.3,1.1-0.1,1.4,0.4c0.3,0.5,0.1,1.1-0.4,1.4
			c-1.6,1-3.3,2-4.9,3C108.2,51.7,108,51.7,107.9,51.7L107.9,51.7z M310.6,47.9c-0.2,0-0.4,0-0.5-0.1c-1.7-1-3.3-1.9-5-2.9
			c-0.5-0.3-0.7-0.9-0.4-1.4c0.3-0.5,0.9-0.7,1.4-0.4c1.7,0.9,3.4,1.9,5,2.9c0.5,0.3,0.7,0.9,0.4,1.4
			C311.3,47.7,311,47.9,310.6,47.9L310.6,47.9z M117.7,45.7c-0.4,0-0.7-0.2-0.9-0.5c-0.3-0.5-0.1-1.1,0.4-1.4c1.7-1,3.4-1.9,5.1-2.8
			c0.5-0.3,1.1-0.1,1.4,0.4c0.3,0.5,0.1,1.1-0.4,1.4c-1.7,0.9-3.4,1.8-5,2.7C118.1,45.7,117.9,45.7,117.7,45.7L117.7,45.7z
			 M300.5,42.2c-0.2,0-0.3,0-0.5-0.1c-1.7-0.9-3.4-1.7-5.2-2.6c-0.5-0.3-0.7-0.9-0.5-1.4c0.3-0.5,0.9-0.7,1.4-0.5
			c1.8,0.8,3.5,1.7,5.2,2.6c0.5,0.3,0.7,0.9,0.5,1.4C301.2,42,300.9,42.2,300.5,42.2L300.5,42.2z M127.9,40.4
			c-0.4,0-0.8-0.2-0.9-0.6c-0.3-0.5,0-1.1,0.5-1.4c1.7-0.8,3.5-1.7,5.2-2.5c0.5-0.2,1.1,0,1.4,0.5c0.2,0.5,0,1.1-0.5,1.4
			c-1.7,0.8-3.5,1.6-5.2,2.4C128.2,40.3,128.1,40.4,127.9,40.4L127.9,40.4z M290.1,37.3c-0.1,0-0.3,0-0.4-0.1
			c-1.8-0.8-3.5-1.5-5.3-2.2c-0.5-0.2-0.8-0.8-0.6-1.4c0.2-0.5,0.8-0.8,1.4-0.6c1.8,0.7,3.6,1.5,5.4,2.3c0.5,0.2,0.8,0.9,0.5,1.4
			C290.8,37,290.5,37.3,290.1,37.3L290.1,37.3z M138.4,35.6c-0.4,0-0.8-0.2-1-0.6c-0.2-0.5,0-1.1,0.6-1.4c1.8-0.7,3.6-1.5,5.4-2.1
			c0.5-0.2,1.1,0.1,1.4,0.6c0.2,0.5-0.1,1.1-0.6,1.4c-1.8,0.7-3.6,1.4-5.3,2.1C138.7,35.6,138.5,35.6,138.4,35.6L138.4,35.6z
			 M279.3,32.9c-0.1,0-0.2,0-0.4-0.1c-1.8-0.7-3.6-1.3-5.4-1.9c-0.5-0.2-0.8-0.8-0.7-1.3c0.2-0.5,0.8-0.8,1.3-0.7
			c1.8,0.6,3.7,1.3,5.5,1.9c0.5,0.2,0.8,0.8,0.6,1.3C280.2,32.6,279.8,32.9,279.3,32.9L279.3,32.9z M149.1,31.5
			c-0.4,0-0.8-0.3-1-0.7c-0.2-0.5,0.1-1.1,0.6-1.3c1.8-0.6,3.7-1.2,5.5-1.8c0.6-0.2,1.1,0.1,1.3,0.7c0.2,0.6-0.1,1.1-0.7,1.3
			c-1.8,0.6-3.6,1.2-5.5,1.8C149.4,31.5,149.3,31.5,149.1,31.5L149.1,31.5z M268.4,29.2c-0.1,0-0.2,0-0.3,0
			c-1.8-0.6-3.7-1.1-5.5-1.6c-0.6-0.2-0.9-0.7-0.7-1.3c0.2-0.6,0.7-0.9,1.3-0.7c1.9,0.5,3.7,1,5.6,1.6c0.6,0.2,0.9,0.8,0.7,1.3
			C269.2,28.9,268.8,29.2,268.4,29.2L268.4,29.2z M160.2,28.1c-0.5,0-0.9-0.3-1-0.8c-0.2-0.6,0.2-1.1,0.7-1.3c1.9-0.5,3.7-1,5.6-1.5
			c0.6-0.2,1.1,0.2,1.3,0.8c0.1,0.6-0.2,1.1-0.8,1.3c-1.9,0.5-3.7,1-5.5,1.5C160.3,28.1,160.3,28.1,160.2,28.1L160.2,28.1z
			 M257.2,26.2c-0.1,0-0.2,0-0.2,0c-1.9-0.4-3.7-0.9-5.6-1.3c-0.6-0.1-0.9-0.7-0.8-1.2c0.1-0.6,0.7-0.9,1.2-0.8
			c1.9,0.4,3.8,0.8,5.7,1.3c0.6,0.1,0.9,0.7,0.8,1.3C258.1,25.8,257.7,26.2,257.2,26.2L257.2,26.2z M171.4,25.3
			c-0.5,0-0.9-0.3-1-0.8c-0.1-0.6,0.2-1.1,0.8-1.2c1.9-0.4,3.8-0.8,5.7-1.1c0.6-0.1,1.1,0.3,1.2,0.8c0.1,0.6-0.3,1.1-0.8,1.2
			c-1.9,0.3-3.8,0.7-5.6,1.1C171.5,25.3,171.4,25.3,171.4,25.3L171.4,25.3z M245.9,23.8c-0.1,0-0.1,0-0.2,0
			c-1.9-0.3-3.8-0.6-5.7-0.9c-0.6-0.1-1-0.6-0.9-1.2c0.1-0.6,0.6-1,1.2-0.9c1.9,0.3,3.8,0.6,5.7,0.9c0.6,0.1,1,0.6,0.9,1.2
			C246.9,23.5,246.4,23.8,245.9,23.8L245.9,23.8z M182.7,23.2c-0.5,0-1-0.4-1-0.9c-0.1-0.6,0.3-1.1,0.9-1.2c1.9-0.3,3.8-0.6,5.7-0.8
			c0.6-0.1,1.1,0.3,1.2,0.9c0.1,0.6-0.3,1.1-0.9,1.2c-1.9,0.2-3.8,0.5-5.7,0.8C182.8,23.2,182.8,23.2,182.7,23.2L182.7,23.2z
			 M234.5,22.2c0,0-0.1,0-0.1,0c-1.9-0.2-3.8-0.4-5.7-0.6c-0.6,0-1-0.6-1-1.1c0-0.6,0.6-1,1.1-1c1.9,0.2,3.9,0.4,5.8,0.6
			c0.6,0.1,1,0.6,0.9,1.2C235.5,21.8,235,22.2,234.5,22.2L234.5,22.2z M194.2,21.8c-0.5,0-1-0.4-1-1c-0.1-0.6,0.4-1.1,0.9-1.1
			c1.9-0.2,3.8-0.3,5.8-0.5c0.6,0,1.1,0.4,1.1,1c0,0.6-0.4,1.1-1,1.1C198.1,21.4,196.2,21.6,194.2,21.8
			C194.2,21.8,194.2,21.8,194.2,21.8L194.2,21.8z M223,21.2C223,21.2,223,21.2,223,21.2c-2-0.1-3.9-0.2-5.8-0.2c-0.6,0-1-0.5-1-1.1
			c0-0.6,0.5-1,1-1c0,0,0,0,0,0c1.9,0,3.9,0.1,5.8,0.2c0.6,0,1,0.5,1,1.1C224,20.8,223.5,21.2,223,21.2L223,21.2z M205.7,21
			c-0.6,0-1-0.4-1-1c0-0.6,0.4-1.1,1-1.1c1.9-0.1,3.9-0.1,5.8-0.1c0,0,0,0,0,0c0.6,0,1,0.5,1,1c0,0.6-0.5,1.1-1,1.1
			C209.5,20.9,207.6,21,205.7,21C205.7,21,205.7,21,205.7,21L205.7,21z"/>
	</g>
	<g>
		<path class="st1" d="M136.5,131c3.6,1.7,4.7,5.3,4.7,9.6c0,7.9-4,18.1-4.1,23.4c-0.1,2.6-2.7,3.8-5.2,3.8c-2.6,0-5-1.1-5-3.2
			c0-7.7,8.9-20.2,8.9-28.3c0-1.2-0.2-2.5-0.7-3.5c-10.7,0.2-23.1,29.2-23.1,47.7c0,8.7,2.8,15.1,9.8,15.1c8.3,0,13.8-8,17.9-14.9
			c0.6-1,1.2-1.7,1.9-1.7c0.3,0,0.5,0.2,0.5,0.8c0,0.4-0.1,0.9-0.4,1.7c-2.8,7.3-10.5,21-23.2,21c-11.2,0-15.8-10-15.8-22.7
			c0-21.5,13.2-50.7,29-50.7C133.7,129.3,135.7,130,136.5,131z"/>
		<path class="st1" d="M166.2,190.3c-4,7.1-9.4,12.1-15.3,12.1c-8.2,0-11.6-7.7-11.6-17.1c0-7.6,1.9-14.9,4.6-20.6
			c0.8-1.8,2.6-4.3,5.1-3.9c1.9-6.4,6.1-11.4,12.6-11.4c8.2,0,11.6,7,11.6,15.8c0,7.1-2,15.3-5.4,22.1c3.7-0.1,7.6-1.8,10-6.4
			c0.6-1,1.1-1.7,1.8-1.7c0.3,0,0.6,0.2,0.6,0.7c0,0.4-0.1,1-0.4,1.8C178.6,185.5,173.2,190.3,166.2,190.3z M159.3,189.3
			c-5.4-1.8-8.5-6-10.1-11c-0.7,3.3-1.1,6.7-1.1,9.6c0,5.4,1.3,9.5,4.7,9.5c0.3,0,0.6,0,0.9-0.1
			C155.7,197.1,157.6,193.9,159.3,189.3z M153.9,170.8c0,6,1.8,12.1,6.7,14.9c2.3-7.3,3.9-16.5,3.9-23.1c0-5.3-0.9-9.2-3.4-9.2
			C157.6,153.4,153.9,161.9,153.9,170.8z"/>
		<path class="st1" d="M186.2,185.3c-0.7,3.4-1.3,7.1-2.1,11.3c11.3-1.5,22.7-6,26.7-21.9c5.8-27,11.8-50.7,25.1-50.7
			c2.5,0,4.3,1.4,4.7,3c1.5,0.8,4,3.2,4,8.8c0,24.5-16.5,46.9-26.3,47.3c-0.8,4.2-1.7,8.5-2.7,13.5c11.3-1.4,20.3-4.6,25.6-15.7
			c0.5-1,1.1-1.5,1.6-1.5c0.4,0,0.7,0.4,0.7,1.1c0,0.4-0.1,0.9-0.3,1.4c-5,12.2-14.7,17.3-27.2,19.7c3.7,1.7,6.7,9.6,6.7,17
			c0,6.9-2.7,13.2-10,13.2c-6.2,0-8.4-5.8-8.4-14.9c0-7.9,1.6-18.3,3.9-29.7c-5.6,8.1-14.7,12.5-23.7,14.4c3.8,1.6,7,9.3,7,16.2
			c0,6.1-2.6,11.7-9.7,11.7c-6.3,0-8.7-5.6-8.7-14.6c-0.1-9.2,2.4-21.8,5.3-35.8c6-28.7,11.5-53,25.4-53c2.6,0,4.4,1.3,4.8,3
			c1.5,0.8,4,3.2,4,8.8C212.4,161.4,197.6,186.3,186.2,185.3z M185.3,217c0-3.6-0.8-7.9-2.9-12.5c-3.2,16.5-3.3,17.4-3.3,18.2
			c0,2.1,0.7,3.5,1.7,3.5C183.4,226.2,185.3,222.6,185.3,217z M205.7,129.8c-2-0.1-3.4,2.3-4.8,5.4c-7,14.6-11.3,32.3-14.1,46.8
			c9.9-7,21-38.9,21-48.3C207.8,131.3,207.7,129.8,205.7,129.8z M216.9,216.9c0-3.8-0.8-8.2-2.8-12.6c-3.8,19-3.9,20-3.9,20.8
			c0,2.1,0.7,3.5,1.7,3.5C214.5,228.6,216.9,223.7,216.9,216.9z M237.9,127.9c-2-0.1-3.3,2.3-4.8,5.4c-6.9,14.4-11.5,32.8-14.2,46.3
			c9.4-8.5,21.1-38.2,21.1-47.8C239.9,129.4,239.8,127.9,237.9,127.9z"/>
		<path class="st1" d="M272.8,160.5c0,9.9-7.3,26.2-21.6,24.2c-0.3,0-0.5,0-0.8,0c0,6.7,1.6,11.9,6.8,11.9c8.9,0,14.9-10.3,17.3-15
			c1-14.9,9.4-32.4,19.6-32.4c2.3,0,4.6,0.7,5.8,1.7c4.3,0.5,6.1,4.7,6.1,10.1c0,10.4-7.2,25.2-17.7,25.2c-1.4,0-3-0.3-4.5-0.9
			c0.1,6.2,1.9,11,6.8,11c12,0,17.4-16.7,19.2-16.7c0.4,0,0.7,0.4,0.7,1c0,0.4-0.1,0.9-0.3,1.4c-4.6,11.5-11.8,20.5-23.5,20.5
			c-8,0-11.7-6.7-12.2-15.3c-4.6,9-11.3,15.7-21.2,15.7c-8.8,0-12.4-8-12.4-17.8c0-15.5,8.8-35.3,19.6-35.3c2.3,0,4.6,0.7,5.8,1.7
			C270.7,151.9,272.8,155.7,272.8,160.5z M266.4,158c0-2-0.3-4.3-2-4.3c-5.9,0-12.9,16.2-13.9,28.6
			C258.8,181.1,266.4,166.2,266.4,158z M299.9,157c0-2-0.3-4-1.9-4c-6,0-13.1,16.6-14,29.2C291.5,183.2,299.9,165.7,299.9,157z"/>
	</g>
	<g>
		<g>
			<path class="st1" d="M224.5,292.2c8.6-6.2,7-11.3-3.6-11.4c0,0-6.8-0.1-19.5,9.1c-12.7,9.1-14.8,15.6-14.8,15.6
				c-3.3,10.1,1.1,13.2,9.7,7.1L224.5,292.2z"/>
		</g>
		<g>
			<path class="st1" d="M248.7,301.4c-0.4-10.6-7.8-14.2-16.4-8l-37.4,26.9c-8.6,6.2-7.5,14.3,2.3,18.1c0,0,15.1,5.7,33.6-7.5
				C249.3,317.5,248.7,301.4,248.7,301.4z"/>
		</g>
	</g>
</g>
</svg>
