<?xml version="1.0" encoding="utf-8"?>
<!-- Generator: Adobe Illustrator 21.0.0, SVG Export Plug-In . SVG Version: 6.00 Build 0)  -->
<svg version="1.1" id="Capa_1" xmlns="http://www.w3.org/2000/svg" xmlns:xlink="http://www.w3.org/1999/xlink" x="0px" y="0px"
	 viewBox="0 0 700 700" style="enable-background:new 0 0 700 700;" xml:space="preserve">
<style type="text/css">
	.st0{fill-rule:evenodd;clip-rule:evenodd;fill:#8F141B;}
</style>
<path class="st0" d="M332.1,7.1c54.2-0.9,95.2,6.8,132.5,24.7c8.9,4.3,19.3,14.7,28.5,18c12.2,0,24.5,0,36.7,0
	c35.5,0,75.9-2,108,2.2c2.7,3.7,5.4,7.5,8.2,11.2c8.3,12.1,7.3,70.7,0,83.2c-4.8,8.3-20.7,12.4-24.5,20.2c0,137.1,0,274.3,0,411.5
	c-11.5,18.1-12.3,34.6-28.5,47.2c-88.9,69-280.7,93.4-403.6,38.2c-32-14.4-71.6-27.1-89.7-56.2C82.1,579,87.5,519.5,87.5,472.5
	c0-102.7,0-205.4,0-308.1c-11.9-3.1-23.3-14.6-26.5-27c-6.1-23.7-1-78,12.2-83.2c22.3-17.9,112.8,7,144.7-4.5
	c19.2-6.9,39.8-23.8,61.1-31.5C296.7,14.6,314.4,10.8,332.1,7.1z M336.2,11.6c-11.5,7.6-41,6.2-55,11.2
	c-15.6,6.7-31.3,13.5-46.9,20.2c-4.3,2.5-9.9,9.6-14.3,11.2c-14.3,0-28.5,0-42.8,0c-34.9,0-77.5-2.8-106,4.5
	c-5.7,13.6-12.9,63.8-4.1,83.2c5.7,12.5,24.9,13.2,26.5,29.2c0,136.4,0,272.8,0,409.2c8.3,11.9,9.5,27,20.4,36
	c87.9,72.4,271.8,96.8,399.5,45c35.1-14.2,77.1-28.9,95.8-60.7c15.2-25.8,8.2-88,8.2-128.2c0-103.4,0-206.9,0-310.3
	c8.7-2.3,20.3-10.7,24.5-18c10.4-18.1,6.5-76.2-6.1-85.4c-21.9-17.7-112.9,6.8-144.7-4.5c-10.7-3.8-22.3-15.4-32.6-20.2
	C423.5,17.7,385.3,11.9,336.2,11.6z M248.5,137.5c0-18,0-36,0-54c-3.2-8.3-6.8-6.9-6.1-18c45-29.2,131.8-39,189.6-15.7
	c15.4,6.2,35.1,5.5,38.7,24.7c-10.8,11.1-8.6,37.3-8.2,60.7c11.3,5.3,14.9,8,14.3,27c-8.2,14.2-5.7,26.8-18.3,36
	c11.4,20.2,36.7,78.9,28.5,116.9c-4.1,19.1-16,22.6-16.3,45c0.7,42,1.4,84,2,125.9c2.6,9.7,6.1,14,4.1,27
	c-42.5,27.8-123.9,35.9-181.4,20.2c-19.8-5.4-52-3.7-59.1-22.5c-0.3-0.4,4.1-79.1,4.1-103.4c0-21,0-42,0-63c-0.8-1.4-7-2.7-8.2-4.5
	c-3.7-6.1-6.6-17.5-8.2-24.7c-9.7-45.8,20.9-88.1,26.5-119.2c-12.1-8.8-16.4-29.8-16.3-51.7c3.6-2.2,3.4-2.8,8.2-4.5
	C244.6,138,244.3,138.4,248.5,137.5z M340.2,40.8c-22.3,14.1-86.8,5.5-93.8,33.7c4.5,3.7,5.1,8.2,10.2,11.2
	c4.5-3.9,44.6-18.2,53-15.7c9.9,2.9,22,12.5,34.7,15.7c25.8,6.6,42.1-11.4,57.1-15.7c17.1-5,42.6,12,57.1,15.7c2.5-8.2,5-7.2,6.1-18
	C428.5,51.9,392.1,41.4,340.2,40.8z M254.6,90.3c0,15,0,30,0,45c0.7,0,1.4,0,2,0c0-0.7,0-1.5,0-2.2c1.8-3,3-12.2,4.1-15.7
	c22.4-2.7,43.3-12.2,67.3-15.7c0-2.2,0-4.5,0-6.7c17.7,0,35.3,0,53,0c0,2.2,0,4.5,0,6.7c26,2.7,48.9,11.9,71.3,18c0,4.5,0,9,0,13.5
	c2,0,4.1,0,6.1,0c0-13.5,0-27,0-40.5c-0.7,0-1.4,0-2,0c0-0.7,0-1.5,0-2.2c-17-5.2-34-10.5-51-15.7c0,0-31.1,15.3-32.6,15.7
	c-29.9,8.4-49.8-10.5-65.2-15.7C290,79.8,272.3,85,254.6,90.3z M95.6,83.5c44.8,0,89.7,0,134.5,0c3.2,10.4,2.2,28.8,2,42.7
	c-8,4.7-20.9,10.3-24.5,20.2c-6.8,12-2,74.8-2,94.4c0,65.2,0,130.4,0,195.6c0,29.4-3.8,70.1,4.1,92.2
	c55.3,35.9,158.2,50.4,234.4,24.7c20.5-6.9,46-9.9,57.1-27c8.8-12.9,4.1-75.7,4.1-98.9c0-63,0-125.9,0-188.9c0-31.2,2.8-69.3-2-96.7
	c-22.9-7.2-25.7-21.8-24.5-56.2c26.8-9.8,104.4-2.4,138.6-2.2c3.2,10.4,2.2,28.8,2,42.7c-10.8,6.6-20,13.7-28.5,22.5
	c0,102.7,0,205.4,0,308.1c0,23.2,5.9,102.8-2,116.9c-8.2,27.1-56.4,45-81.5,56.2c-118.4,53-316.5,29.7-387.3-51.7
	c0-95.9,0-191.9,0-287.8c0-47.4,5.4-105.1-2-148.4c-19.5-9.8-27.6-15.5-26.5-49.5C93.2,90.3,94.5,86.3,95.6,83.5z M379,106
	c0-2.2,0-4.5,0-6.7c-31.5-0.9-98.9,8.9-114.1,22.5c-1.8,2.8,0.1,9.8-2,13.5c-4.9,8.2-7.5-2.4-8.2,15.7c1.4,0,2.7,0,4.1,0
	c2.8-12.5,7.7-18.4,16.3-24.7c39.9-29.3,47.5,18.9,81.5,18c21.7-0.6,25.9-18,40.8-24.7c30.1-13.6,49.5,13.1,57.1,33.7
	c0.7,0,1.4,0,2,0c0-3.7,0-7.5,0-11.2c0,0-7.9-18.8-10.2-20.2C432.6,110.2,400.8,106.2,379,106z M266.9,344.3
	c-3.7-47,8.1-52,18.3-83.2c-3.7-2.7-5.7-4.9-8.2-9c1.4,0,2.7,0,4.1,0c3.3,5.2,3,5.3,10.2,6.7c8.9-14.1,24-12.5,36.7-22.5
	c-20-7-46.3-9.9-57.1-27c1.4,0,2.7,0,4.1,0c16.1,22.4,78.2,33.7,116.2,22.5c10.2-3,19.2-9.2,30.6-11.2c0,0.7,0,1.5,0,2.2
	c-1.4,0-2.7,0-4.1,0c-13.4,12.9-38.8,5.8-53,15.7c0.7,0,1.4,0,2,0c7.5,5.3,54.2,0.2,75.4,0c2-4,2.6-3.8,4.1-9
	c8.3-11.3,2.9-22.7,2-33.7c-0.4-5.7,2.9-19.9,4.1-27c3.6-22.4-17.1-35.3-26.5-45c-13.6-0.8-18.8-0.6-30.6,2.2c0,3.7,0,7.5,0,11.2
	c5.5,3.7,10.9,9.6,18.3,11.2c7,1.6,8.4-3.7,14.3,0c-8.4,1-16.2,4-24.5,0c-7.9-3.9-8.9-14.8-16.3-13.5c-2.8,2.9-8.7,9.3-6.1,11.2
	c8,8.2,17.9,10.1,20.4,24.7c-2,0.7-4.1,1.5-6.1,2.2c-5,4.3-8.9,1.5-16.3,4.5c-3.6,1.4-8,7.7-12.2,9c-21,6.5-40.8-9.1-57.1-13.5
	c-1.3-3.9-0.4-2.2-2-4.5c0.7-2.2,1.4-4.5,2-6.7c6.3-4.3,17.8-11.5,22.4-18c-4.3-3.1-7.4-6.5-10.2-11.2c-0.7,0-1.4,0-2,0
	c0,0.7,0,1.5,0,2.2c-8.9,9.5-12.4,15.6-30.6,15.7c-1.6-1.5-4.5-2.9-6.1-4.5c12.2,1.1,15.9,0.5,26.5-2.2c2.2-4,5.1-8.1,8.2-11.2
	c0-1.5,0-3,0-4.5c-0.7,0-1.4,0-2,0c0-0.7,0-1.5,0-2.2c-10.9-2-21.1-7.7-30.6,0c-32.1,8.9-28.3,60.5-14.3,83.2c-1.4,0-2.7,0-4.1,0
	c-2.4-4.1-4.5-6.3-8.2-9c0,5.2,0,10.5,0,15.7c5.2,7.4,11.6,23.1,14.3,31.5c-0.7,0-1.4,0-2,0c0-0.7,0-1.5,0-2.2c-0.7,0-1.4,0-2,0
	c-3.4-6-6.8-12-10.2-18c-2.7-7.9-0.3-18.5-4.1-24.7c0,0.7,0,1.5,0,2.2c-21.7,23.5-29.1,85.9-20.4,128.2c4.2,2.9,4.7,4.7,10.2,6.7
	C249.6,344.4,257.1,344.6,266.9,344.3z M436,137.5c1.2,1.6,2.9,0.1,2,4.5c-0.7,0-1.4,0-2,0c-2.8,2.8-3.6,3.1-8.2,4.5
	c0-0.7,0-1.5,0-2.2c0.7,0,1.4,0,2,0C432.1,141.6,434,140.5,436,137.5z M256.7,191.4c0.4-19.9-3.1-34.6-8.2-49.5
	c-2.6,1.2-6.2,2.7-8.2,4.5c-1.5,2.4-1.2,2.1-2,6.7c5.1,8.9,8.1,28.8,12.2,38.2C252.6,191.4,254.6,191.4,256.7,191.4z M277,142
	c2,0.7,4.1,1.5,6.1,2.2c0,0.7,0,1.5,0,2.2C278.3,144.6,279.8,145.6,277,142z M334.1,142c1.1,3.4,1.4,3.8,2,9
	c-10.4,2.7-17.4,9.3-22.4,18c21.6,0.9,30.5,19.1,48.9,13.5c7.4-2.2,12.2-10.9,18.3-13.5c9.1-3.8,8.5,5.3,14.3-4.5
	c-4.5-3-16.8-9-20.4-13.5c-5.6-6.9,5.6-5.1-2-9C363.2,150.7,344.6,144.9,334.1,142z M454.4,191.4c2,0,4.1,0,6.1,0
	c6.5-12.4,11.5-25.7,12.2-45c-3.8-1.9-5.4-3.1-10.2-4.5C460.6,161,454.7,169.4,454.4,191.4z M309.7,193.7c29.1,0.2,60.6,0.2,89.7,0
	c3.7,6.6,5.6,6.5,6.1,18c-1.6,2.3-0.7,0.6-2,4.5c-23.9,8.8-65.7,2.4-93.8,2.2c-3-5.7-4.9-7.1-6.1-15.7
	C306,200.1,307.9,197,309.7,193.7z M311.7,198.2c-0.4,5.6,0.5,5,8.2,6.7c0-1.5,0-3,0-4.5c-0.7,0-1.4,0-2,0c0-0.7,0-1.5,0-2.2
	C315.8,198.2,313.7,198.2,311.7,198.2z M321.9,198.2c0.3,5.9,0.9,7.6,2,11.2c0.7,0,1.4,0,2,0c0-0.7,0-1.5,0-2.2
	c1.5-2.4,1.2-2.1,2-6.7C326,199.7,323.9,198.9,321.9,198.2z M385.1,198.2c-2.3,3.5-2.2,1.9-4.1,6.7c0.7,0,1.4,0,2,0
	c2.6,5.5-0.9,1.5,4.1,4.5C387,203.7,386.9,201.1,385.1,198.2z M391.2,198.2c0.8,4.7,0.5,4.3,2,6.7c1.6-1.5,4.5-2.9,6.1-4.5
	c-0.7,0-1.4,0-2,0c0-0.7,0-1.5,0-2.2C395.3,198.2,393.2,198.2,391.2,198.2z M332.1,200.4c0.6,5.9,1.7,4.7,12.2,4.5
	c8.3,6.1,24.3,0.7,34.7,0c0-0.7,0-1.5,0-2.2C367.5,198.4,347,200.3,332.1,200.4z M442.1,202.7c1.4,0,2.7,0,4.1,0
	c-0.7,1.5-1.4,3-2,4.5c-6.4,4.2-10.2,8.7-18.3,11.2c0-0.7,0-1.5,0-2.2c0.7,0,1.4,0,2,0C432.5,211.1,438.3,208.8,442.1,202.7z
	 M309.7,204.9c-0.1,7.2,0.4,8.9,12.2,9c0-1.5,0-3,0-4.5C317.8,207.9,313.7,206.4,309.7,204.9z M397.3,204.9
	c-2.4,1.8-3.4,1.7-8.2,2.2c0,1.5,0,3,0,4.5c-0.7,0-1.4,0-2,0c0,0.7,0,1.5,0,2.2c4.1,0,8.2,0,12.2,0
	C399.3,205.9,402.3,210,397.3,204.9z M446.2,344.3c11.3,0.1,16.3-2.3,24.5-4.5c25.1-42.4-1.9-94.7-12.2-134.9c-1.4,0-2.7,0-4.1,0
	c-0.5,14.5-5.5,22-8.2,31.5C446.2,272.4,446.2,308.4,446.2,344.3z M379,207.2c-9.2,6.6-37.5,2.5-51,2.2c0,1.5,0,3,0,4.5
	c18.3,0,36.7,0,55,0c0-0.7,0-1.5,0-2.2C381.3,210,380.7,208.9,379,207.2z M421.8,218.4c1.4,0,2.7,0,4.1,0c0,0.7,0,1.5,0,2.2
	C422.3,219.3,423.9,220.2,421.8,218.4z M270.9,414.1c0,36,0,72,0,107.9c20.4,0,40.8,0,61.1,0c1.7-7.3-1-3.4,4.1-6.7
	c11.1,11.5,37.7,10.3,53,4.5c27.6-10.5,64.4-44.7,51-96.7c-9.3-35.9-40.4-43.5-57.1-69.7c14.2-5.3,39.3-2.4,57.1-2.2
	c0-36,0-72,0-107.9c-19.7,0-39.4,0-59.1,0c-4,1.9,0.2,7.8-8.2,6.7c-1.2-0.1-8.4-6.1-10.2-6.7c-17.2-6-42.9-1.2-55,6.7
	c-67.3,43.9-32.3,130.4,20.4,159.6c0,1.5,0,3,0,4.5C309,414.1,290,414.1,270.9,414.1z M391.2,256.7c12.2,0,24.5,0,36.7,0
	c6.2,20.4,2.2,56.3,2,80.9c-19,0-38,0-57.1,0c-10.2-5-10.5-16-26.5-18c-2.3,3.5-2.2,1.9-4.1,6.7c-5.4,13.7,16.2,22.6,24.5,29.2
	c18.6,15.1,48.7,37.2,59.1,60.7c18.9,42.7-14.8,86.1-42.8,94.4c-26.9,8-50.1-17-59.1-13.5c-5.1,3.3-3.7,2.8-4.1,11.2
	c-12.9,0-25.8,0-38.7,0c0-27,0-54,0-80.9c39.6-1,58.6-2.3,77.5,20.2c3.6-1.4,2-0.4,4.1-2.2c5.9-2.5,3.8-0.4,6.1-6.7
	c1.5-2.4,1.2-2.1,2-6.7c-19.7-13.7-81.2-66.1-87.6-89.9c-11.9-44.2,27-102.4,73.4-87.7c12.2,3.9,17.7,13.8,32.6,15.7
	c0-0.7,0-1.5,0-2.2c0.7,0,1.4,0,2,0C391.2,264.2,391.2,260.4,391.2,256.7z M260.7,348.8c-3.3,2.4-11.9,3.6-16.3,4.5
	c0,11.2,0,22.5,0,33.7c0.7,0,1.4,0,2,0c0,0.7,0,1.5,0,2.2c20.1,1.4,34.6,8.5,57.1,9c0-0.7,0-1.5,0-2.2
	C289.7,386.6,270.2,350.6,260.7,348.8z M446.2,348.8c-0.8,4.7-0.5,4.3-2,6.7c-8.9,6.3-35.8,2.5-48.9,2.2c0,0.7,0,1.5,0,2.2
	c0.7,0,1.4,0,2,0c7.1,8.5,33.3,35.1,44.8,36c5.5-4.1,16.9-5.8,24.5-6.7c0-12,0-24,0-36c-0.7,0-1.4,0-2,0c0-0.7,0-1.5,0-2.2
	C458.5,350.3,452.3,349.6,446.2,348.8z M244.4,391.6c0,4.5,0,9,0,13.5c21.2,1.6,45.4,4.4,71.3,4.5c0-0.7,0-1.5,0-2.2
	c-5.7-3.4-10.1-4.6-20.4-4.5C278.4,399.1,261.4,395.3,244.4,391.6z M436,398.3c0.7,3.7,1.4,7.5,2,11.2c3.4,0,6.8,0,10.2,0
	c4.4-3.1,12.4-3.3,16.3-6.7c1.6-2.7,1.6-3.8,2-9C456.4,395.3,446.2,396.8,436,398.3z M264.8,411.8c-6.8-1.5-13.6-3-20.4-4.5
	c0,26.2,0,52.5,0,78.7c6.8,2.2,13.6,4.5,20.4,6.7C264.8,465.8,264.8,438.8,264.8,411.8z M442.1,411.8c3.3,39,3.3,56.7-12.2,85.4
	c2.7,0,5.4,0,8.2,0c6.6-5.7,19.5-9,28.5-11.2c0-26.2,0-52.5,0-78.7c-1.4,0-2.7,0-4.1,0C457.8,411,449.9,411.6,442.1,411.8z
	 M242.4,488.3c-2.6,6.4-3.9,9.8-4.1,20.2c7.8,5.2,16.9,9.2,26.5,13.5c0-8.2,0-16.5,0-24.7C257.3,494.3,249.9,491.3,242.4,488.3z
	 M466.6,488.3c-11.1,9.2-27.4,5.9-40.8,13.5c-2.7,3.7-5.4,7.5-8.2,11.2c-11.5,9.1-28.8,14.5-44.8,18c-18.4,4-62.9-16.6-83.6-2.2
	c49.3,3.9,97.4,9.7,142.7-4.5C444.7,520.2,495.8,512.4,466.6,488.3z"/>
</svg>
